<?xml version="1.0" encoding="UTF-8" standalone="no"?>
<!DOCTYPE svg PUBLIC "-//W3C//DTD SVG 1.1//EN"
 "http://www.w3.org/Graphics/SVG/1.1/DTD/svg11.dtd">
<!-- Generated by graphviz version 2.38.0 (20140413.2041)
 -->
<!-- Title: collectionDrill Pages: 1 -->
<svg width="548pt" height="193pt"
 viewBox="0.00 0.00 547.50 193.00" xmlns="http://www.w3.org/2000/svg" xmlns:xlink="http://www.w3.org/1999/xlink">
<g id="graph0" class="graph" transform="scale(1 1) rotate(0) translate(4 189)">
<title>collectionDrill</title>
<!-- table_artists -->
<g id="node1" class="node"><title>table_artists</title>
<polygon fill="#ffffff" stroke="none" points="7,-41 7,-144 96,-144 96,-41 7,-41"/>
<polygon fill="#2c4870" stroke="none" points="8.5,-123.5 8.5,-142.5 95.5,-142.5 95.5,-123.5 8.5,-123.5"/>
<text text-anchor="start" x="33.5" y="-130.5" font-family="Outage" font-size="10.00" fill="white">Artist</text>
<polygon fill="#f5f2f0" stroke="none" points="8.5,-104.5 8.5,-123.5 26.5,-123.5 26.5,-104.5 8.5,-104.5"/>
<text text-anchor="start" x="12.5" y="-112.5" font-family="Source Sans Pro" font-weight="bold" text-decoration="underline" font-size="10.00">id</text>
<polygon fill="#f5f2f0" stroke="none" points="26.5,-104.5 26.5,-123.5 95.5,-123.5 95.5,-104.5 26.5,-104.5"/>
<text text-anchor="start" x="48.5" y="-112.5" font-family="Source Sans Pro" font-weight="bold" font-size="10.00">name</text>
<text text-anchor="start" x="14" y="-90.9" font-family="Source Sans Pro" font-size="12.00">1</text>
<text text-anchor="start" x="34.5" y="-90.9" font-family="Source Sans Pro" font-size="12.00">Pink Floyd</text>
<text text-anchor="start" x="14" y="-69.9" font-family="Source Sans Pro" font-size="12.00">2</text>
<text text-anchor="start" x="30.5" y="-69.9" font-family="Source Sans Pro" font-size="12.00">Iron Maiden</text>
<text text-anchor="start" x="14" y="-48.9" font-family="Source Sans Pro" font-size="12.00">3</text>
<text text-anchor="start" x="47" y="-48.9" font-family="Source Sans Pro" font-size="12.00">Bjork</text>
<polygon fill="#111111" stroke="#111111" points="7.5,-123.5 7.5,-123.5 96.5,-123.5 96.5,-123.5 7.5,-123.5"/>
<polygon fill="#111111" stroke="#111111" points="26.5,-104.5 26.5,-123.5 26.5,-123.5 26.5,-104.5 26.5,-104.5"/>
<polygon fill="#111111" stroke="#111111" points="7.5,-104.5 7.5,-104.5 26.5,-104.5 26.5,-104.5 7.5,-104.5"/>
<polygon fill="#111111" stroke="#111111" points="26.5,-104.5 26.5,-104.5 96.5,-104.5 96.5,-104.5 26.5,-104.5"/>
<polygon fill="#111111" stroke="#111111" points="26.5,-83.5 26.5,-104.5 26.5,-104.5 26.5,-83.5 26.5,-83.5"/>
<polygon fill="#111111" stroke="#111111" points="7.5,-83.5 7.5,-83.5 26.5,-83.5 26.5,-83.5 7.5,-83.5"/>
<polygon fill="#111111" stroke="#111111" points="26.5,-83.5 26.5,-83.5 96.5,-83.5 96.5,-83.5 26.5,-83.5"/>
<polygon fill="#111111" stroke="#111111" points="26.5,-62.5 26.5,-83.5 26.5,-83.5 26.5,-62.5 26.5,-62.5"/>
<polygon fill="#111111" stroke="#111111" points="7.5,-62.5 7.5,-62.5 26.5,-62.5 26.5,-62.5 7.5,-62.5"/>
<polygon fill="#111111" stroke="#111111" points="26.5,-62.5 26.5,-62.5 96.5,-62.5 96.5,-62.5 26.5,-62.5"/>
<polygon fill="#111111" stroke="#111111" points="26.5,-40.5 26.5,-62.5 26.5,-62.5 26.5,-40.5 26.5,-40.5"/>
<polygon fill="none" stroke="#111111" points="7,-41 7,-144 96,-144 96,-41 7,-41"/>
</g>
<!-- table_albums -->
<g id="node2" class="node"><title>table_albums</title>
<polygon fill="#ffffff" stroke="none" points="168,-7 168,-178 373,-178 373,-7 168,-7"/>
<polygon fill="#2c4870" stroke="none" points="169.5,-157.5 169.5,-176.5 372.5,-176.5 372.5,-157.5 169.5,-157.5"/>
<text text-anchor="start" x="251.5" y="-164.5" font-family="Outage" font-size="10.00" fill="white">Album</text>
<polygon fill="#f5f2f0" stroke="none" points="169.5,-138.5 169.5,-157.5 187.5,-157.5 187.5,-138.5 169.5,-138.5"/>
<text text-anchor="start" x="173.5" y="-146.5" font-family="Source Sans Pro" font-weight="bold" text-decoration="underline" font-size="10.00">id</text>
<polygon fill="#f5f2f0" stroke="none" points="187.5,-138.5 187.5,-157.5 292.5,-157.5 292.5,-138.5 187.5,-138.5"/>
<text text-anchor="start" x="230.5" y="-146.5" font-family="Source Sans Pro" font-weight="bold" font-size="10.00">title</text>
<polygon fill="#f5f2f0" stroke="none" points="292.5,-138.5 292.5,-157.5 333.5,-157.5 333.5,-138.5 292.5,-138.5"/>
<text text-anchor="start" x="296.5" y="-146.5" font-family="Source Sans Pro" font-weight="bold" font-style="italic" font-size="10.00">artistId</text>
<polygon fill="#f5f2f0" stroke="none" points="333.5,-138.5 333.5,-157.5 372.5,-157.5 372.5,-138.5 333.5,-138.5"/>
<text text-anchor="start" x="337.5" y="-146.5" font-family="Source Sans Pro" font-weight="bold" font-style="italic" font-size="10.00">labelId</text>
<text text-anchor="start" x="175" y="-118.4" font-family="Source Sans Pro" font-size="12.00">1</text>
<text text-anchor="start" x="204.5" y="-124.9" font-family="Source Sans Pro" font-size="12.00">The Dark Side</text>
<text text-anchor="start" x="209.5" y="-111.9" font-family="Source Sans Pro" font-size="12.00">of the Moon</text>
<text text-anchor="start" x="309.5" y="-118.4" font-family="Source Sans Pro" font-size="12.00">1</text>
<text text-anchor="start" x="349.5" y="-118.4" font-family="Source Sans Pro" font-size="12.00">1</text>
<text text-anchor="start" x="175" y="-90.9" font-family="Source Sans Pro" font-size="12.00">2</text>
<text text-anchor="start" x="195.5" y="-90.9" font-family="Source Sans Pro" font-size="12.00">The Endless River</text>
<text text-anchor="start" x="309.5" y="-90.9" font-family="Source Sans Pro" font-size="12.00">1</text>
<text text-anchor="start" x="349.5" y="-90.9" font-family="Source Sans Pro" font-size="12.00">2</text>
<text text-anchor="start" x="175" y="-69.9" font-family="Source Sans Pro" font-size="12.00">3</text>
<text text-anchor="start" x="199.5" y="-69.9" font-family="Source Sans Pro" font-size="12.00">Fear of the Dark</text>
<text text-anchor="start" x="309.5" y="-69.9" font-family="Source Sans Pro" font-size="12.00">2</text>
<text text-anchor="start" x="349.5" y="-69.9" font-family="Source Sans Pro" font-size="12.00">1</text>
<text text-anchor="start" x="175" y="-48.9" font-family="Source Sans Pro" font-size="12.00">4</text>
<text text-anchor="start" x="194" y="-48.9" font-family="Source Sans Pro" font-size="12.00">The Book of Souls</text>
<text text-anchor="start" x="309.5" y="-48.9" font-family="Source Sans Pro" font-size="12.00">2</text>
<text text-anchor="start" x="349.5" y="-48.9" font-family="Source Sans Pro" font-size="12.00">2</text>
<text text-anchor="start" x="175" y="-21.4" font-family="Source Sans Pro" font-size="12.00">5</text>
<text text-anchor="start" x="207.5" y="-27.9" font-family="Source Sans Pro" font-size="12.00">Selmasongs:</text>
<text text-anchor="start" x="191.5" y="-14.9" font-family="Source Sans Pro" font-size="12.00">Dancer In The Dark</text>
<text text-anchor="start" x="309.5" y="-21.4" font-family="Source Sans Pro" font-size="12.00">3</text>
<text text-anchor="start" x="349.5" y="-21.4" font-family="Source Sans Pro" font-size="12.00">3</text>
<polygon fill="#333333" stroke="#333333" points="168.5,-157.5 168.5,-157.5 373.5,-157.5 373.5,-157.5 168.5,-157.5"/>
<polygon fill="#333333" stroke="#333333" points="187.5,-138.5 187.5,-157.5 187.5,-157.5 187.5,-138.5 187.5,-138.5"/>
<polygon fill="#333333" stroke="#333333" points="168.5,-138.5 168.5,-138.5 187.5,-138.5 187.5,-138.5 168.5,-138.5"/>
<polygon fill="#333333" stroke="#333333" points="292.5,-138.5 292.5,-157.5 292.5,-157.5 292.5,-138.5 292.5,-138.5"/>
<polygon fill="#333333" stroke="#333333" points="187.5,-138.5 187.5,-138.5 292.5,-138.5 292.5,-138.5 187.5,-138.5"/>
<polygon fill="#333333" stroke="#333333" points="333.5,-138.5 333.5,-157.5 333.5,-157.5 333.5,-138.5 333.5,-138.5"/>
<polygon fill="#333333" stroke="#333333" points="292.5,-138.5 292.5,-138.5 333.5,-138.5 333.5,-138.5 292.5,-138.5"/>
<polygon fill="#333333" stroke="#333333" points="333.5,-138.5 333.5,-138.5 373.5,-138.5 373.5,-138.5 333.5,-138.5"/>
<polygon fill="#333333" stroke="#333333" points="187.5,-104.5 187.5,-138.5 187.5,-138.5 187.5,-104.5 187.5,-104.5"/>
<polygon fill="#333333" stroke="#333333" points="168.5,-104.5 168.5,-104.5 187.5,-104.5 187.5,-104.5 168.5,-104.5"/>
<polygon fill="#333333" stroke="#333333" points="292.5,-104.5 292.5,-138.5 292.5,-138.5 292.5,-104.5 292.5,-104.5"/>
<polygon fill="#333333" stroke="#333333" points="187.5,-104.5 187.5,-104.5 292.5,-104.5 292.5,-104.5 187.5,-104.5"/>
<polygon fill="#333333" stroke="#333333" points="333.5,-104.5 333.5,-138.5 333.5,-138.5 333.5,-104.5 333.5,-104.5"/>
<polygon fill="#333333" stroke="#333333" points="292.5,-104.5 292.5,-104.5 333.5,-104.5 333.5,-104.5 292.5,-104.5"/>
<polygon fill="#333333" stroke="#333333" points="333.5,-104.5 333.5,-104.5 373.5,-104.5 373.5,-104.5 333.5,-104.5"/>
<polygon fill="#333333" stroke="#333333" points="187.5,-83.5 187.5,-104.5 187.5,-104.5 187.5,-83.5 187.5,-83.5"/>
<polygon fill="#333333" stroke="#333333" points="168.5,-83.5 168.5,-83.5 187.5,-83.5 187.5,-83.5 168.5,-83.5"/>
<polygon fill="#333333" stroke="#333333" points="292.5,-83.5 292.5,-104.5 292.5,-104.5 292.5,-83.5 292.5,-83.5"/>
<polygon fill="#333333" stroke="#333333" points="187.5,-83.5 187.5,-83.5 292.5,-83.5 292.5,-83.5 187.5,-83.5"/>
<polygon fill="#333333" stroke="#333333" points="333.5,-83.5 333.5,-104.5 333.5,-104.5 333.5,-83.5 333.5,-83.5"/>
<polygon fill="#333333" stroke="#333333" points="292.5,-83.5 292.5,-83.5 333.5,-83.5 333.5,-83.5 292.5,-83.5"/>
<polygon fill="#333333" stroke="#333333" points="333.5,-83.5 333.5,-83.5 373.5,-83.5 373.5,-83.5 333.5,-83.5"/>
<polygon fill="#333333" stroke="#333333" points="187.5,-62.5 187.5,-83.5 187.5,-83.5 187.5,-62.5 187.5,-62.5"/>
<polygon fill="#333333" stroke="#333333" points="168.5,-62.5 168.5,-62.5 187.5,-62.5 187.5,-62.5 168.5,-62.5"/>
<polygon fill="#333333" stroke="#333333" points="292.5,-62.5 292.5,-83.5 292.5,-83.5 292.5,-62.5 292.5,-62.5"/>
<polygon fill="#333333" stroke="#333333" points="187.5,-62.5 187.5,-62.5 292.5,-62.5 292.5,-62.5 187.5,-62.5"/>
<polygon fill="#333333" stroke="#333333" points="333.5,-62.5 333.5,-83.5 333.5,-83.5 333.5,-62.5 333.5,-62.5"/>
<polygon fill="#333333" stroke="#333333" points="292.5,-62.5 292.5,-62.5 333.5,-62.5 333.5,-62.5 292.5,-62.5"/>
<polygon fill="#333333" stroke="#333333" points="333.5,-62.5 333.5,-62.5 373.5,-62.5 373.5,-62.5 333.5,-62.5"/>
<polygon fill="#333333" stroke="#333333" points="187.5,-41.5 187.5,-62.5 187.5,-62.5 187.5,-41.5 187.5,-41.5"/>
<polygon fill="#333333" stroke="#333333" points="168.5,-41.5 168.5,-41.5 187.5,-41.5 187.5,-41.5 168.5,-41.5"/>
<polygon fill="#333333" stroke="#333333" points="292.5,-41.5 292.5,-62.5 292.5,-62.5 292.5,-41.5 292.5,-41.5"/>
<polygon fill="#333333" stroke="#333333" points="187.5,-41.5 187.5,-41.5 292.5,-41.5 292.5,-41.5 187.5,-41.5"/>
<polygon fill="#333333" stroke="#333333" points="333.5,-41.5 333.5,-62.5 333.5,-62.5 333.5,-41.5 333.5,-41.5"/>
<polygon fill="#333333" stroke="#333333" points="292.5,-41.5 292.5,-41.5 333.5,-41.5 333.5,-41.5 292.5,-41.5"/>
<polygon fill="#333333" stroke="#333333" points="333.5,-41.5 333.5,-41.5 373.5,-41.5 373.5,-41.5 333.5,-41.5"/>
<polygon fill="#333333" stroke="#333333" points="187.5,-6.5 187.5,-41.5 187.5,-41.5 187.5,-6.5 187.5,-6.5"/>
<polygon fill="#333333" stroke="#333333" points="292.5,-6.5 292.5,-41.5 292.5,-41.5 292.5,-6.5 292.5,-6.5"/>
<polygon fill="#333333" stroke="#333333" points="333.5,-6.5 333.5,-41.5 333.5,-41.5 333.5,-6.5 333.5,-6.5"/>
<polygon fill="none" stroke="#333333" points="168,-7 168,-178 373,-178 373,-7 168,-7"/>
</g>
<!-- table_artists&#45;&gt;table_albums -->
<g id="edge1" class="edge"><title>table_artists:a1&#45;&gt;table_albums:a1a</title>
<path fill="none" stroke="#333333" stroke-opacity="0.933333" d="M96.5,-94.5C96.5,-94.5 168.5,-121.5 168.5,-121.5"/>
</g>
<!-- table_artists&#45;&gt;table_albums -->
<g id="edge2" class="edge"><title>table_artists:a1&#45;&gt;table_albums:a2a</title>
<path fill="none" stroke="#333333" stroke-opacity="0.933333" d="M96.5,-94.5C96.5,-94.5 168.5,-94.5 168.5,-94.5"/>
</g>
<!-- table_artists&#45;&gt;table_albums -->
<g id="edge3" class="edge"><title>table_artists:a2&#45;&gt;table_albums:a3a</title>
<path fill="none" stroke="#333333" stroke-opacity="0.933333" d="M96.5,-72.5C96.5,-72.5 168.5,-72.5 168.5,-72.5"/>
</g>
<!-- table_artists&#45;&gt;table_albums -->
<g id="edge4" class="edge"><title>table_artists:a2&#45;&gt;table_albums:a4a</title>
<path fill="none" stroke="#333333" stroke-opacity="0.933333" d="M96.5,-72.5C96.5,-72.5 168.5,-51.5 168.5,-51.5"/>
</g>
<!-- table_artists&#45;&gt;table_albums -->
<g id="edge5" class="edge"><title>table_artists:a3&#45;&gt;table_albums:a5a</title>
<path fill="none" stroke="#333333" stroke-opacity="0.933333" d="M96.5,-51.5C96.5,-51.5 168.5,-24.5 168.5,-24.5"/>
</g>
<!-- table_labels -->
<g id="node3" class="node"><title>table_labels</title>
<polygon fill="#ffffff" stroke="none" points="444.5,-34.5 444.5,-150.5 532.5,-150.5 532.5,-34.5 444.5,-34.5"/>
<polygon fill="#2c4870" stroke="none" points="445.5,-130.5 445.5,-149.5 531.5,-149.5 531.5,-130.5 445.5,-130.5"/>
<text text-anchor="start" x="471.5" y="-137.5" font-family="Outage" font-size="10.00" fill="white">Label</text>
<polygon fill="#f5f2f0" stroke="none" points="445.5,-111.5 445.5,-130.5 463.5,-130.5 463.5,-111.5 445.5,-111.5"/>
<text text-anchor="start" x="449.5" y="-119.5" font-family="Source Sans Pro" font-weight="bold" text-decoration="underline" font-size="10.00">id</text>
<polygon fill="#f5f2f0" stroke="none" points="463.5,-111.5 463.5,-130.5 531.5,-130.5 531.5,-111.5 463.5,-111.5"/>
<text text-anchor="start" x="485" y="-119.5" font-family="Source Sans Pro" font-weight="bold" font-size="10.00">name</text>
<text text-anchor="start" x="451" y="-97.9" font-family="Source Sans Pro" font-size="12.00">1</text>
<text text-anchor="start" x="488" y="-97.9" font-family="Source Sans Pro" font-size="12.00">EMI</text>
<text text-anchor="start" x="451" y="-76.9" font-family="Source Sans Pro" font-size="12.00">2</text>
<text text-anchor="start" x="467.5" y="-76.9" font-family="Source Sans Pro" font-size="12.00">Parlophone</text>
<text text-anchor="start" x="451" y="-49.4" font-family="Source Sans Pro" font-size="12.00">3</text>
<text text-anchor="start" x="473" y="-55.9" font-family="Source Sans Pro" font-size="12.00">One Little</text>
<text text-anchor="start" x="481" y="-42.9" font-family="Source Sans Pro" font-size="12.00">Indian</text>
<polygon fill="#333333" stroke="#333333" points="444.5,-130.5 444.5,-130.5 532.5,-130.5 532.5,-130.5 444.5,-130.5"/>
<polygon fill="#333333" stroke="#333333" points="463.5,-111.5 463.5,-130.5 463.5,-130.5 463.5,-111.5 463.5,-111.5"/>
<polygon fill="#333333" stroke="#333333" points="444.5,-111.5 444.5,-111.5 463.5,-111.5 463.5,-111.5 444.5,-111.5"/>
<polygon fill="#333333" stroke="#333333" points="463.5,-111.5 463.5,-111.5 532.5,-111.5 532.5,-111.5 463.5,-111.5"/>
<polygon fill="#333333" stroke="#333333" points="463.5,-90.5 463.5,-111.5 463.5,-111.5 463.5,-90.5 463.5,-90.5"/>
<polygon fill="#333333" stroke="#333333" points="444.5,-90.5 444.5,-90.5 463.5,-90.5 463.5,-90.5 444.5,-90.5"/>
<polygon fill="#333333" stroke="#333333" points="463.5,-90.5 463.5,-90.5 532.5,-90.5 532.5,-90.5 463.5,-90.5"/>
<polygon fill="#333333" stroke="#333333" points="463.5,-69.5 463.5,-90.5 463.5,-90.5 463.5,-69.5 463.5,-69.5"/>
<polygon fill="#333333" stroke="#333333" points="444.5,-69.5 444.5,-69.5 463.5,-69.5 463.5,-69.5 444.5,-69.5"/>
<polygon fill="#333333" stroke="#333333" points="463.5,-69.5 463.5,-69.5 532.5,-69.5 532.5,-69.5 463.5,-69.5"/>
<polygon fill="#333333" stroke="#333333" points="463.5,-34.5 463.5,-69.5 463.5,-69.5 463.5,-34.5 463.5,-34.5"/>
<polygon fill="none" stroke="#333333" points="444.5,-34.5 444.5,-150.5 532.5,-150.5 532.5,-34.5 444.5,-34.5"/>
</g>
<!-- table_albums&#45;&gt;table_labels -->
<g id="edge6" class="edge"><title>table_albums:a1l&#45;&gt;table_labels:l1</title>
<path fill="none" stroke="#333333" stroke-opacity="0.933333" d="M373.5,-121.5C373.5,-121.5 444.5,-101.5 444.5,-101.5"/>
</g>
<!-- table_albums&#45;&gt;table_labels -->
<g id="edge7" class="edge"><title>table_albums:a2l&#45;&gt;table_labels:l2</title>
<path fill="none" stroke="#333333" stroke-opacity="0.933333" d="M373.5,-94.5C373.5,-94.5 444.5,-79.5 444.5,-79.5"/>
</g>
<!-- table_albums&#45;&gt;table_labels -->
<g id="edge8" class="edge"><title>table_albums:a3l&#45;&gt;table_labels:l1</title>
<path fill="none" stroke="#333333" stroke-opacity="0.933333" d="M373.5,-72.5C373.5,-72.5 444.5,-101.5 444.5,-101.5"/>
</g>
<!-- table_albums&#45;&gt;table_labels -->
<g id="edge9" class="edge"><title>table_albums:a4l&#45;&gt;table_labels:l2</title>
<path fill="none" stroke="#333333" stroke-opacity="0.933333" d="M373.5,-51.5C373.5,-51.5 444.5,-79.5 444.5,-79.5"/>
</g>
<!-- table_albums&#45;&gt;table_labels -->
<g id="edge10" class="edge"><title>table_albums:a5l&#45;&gt;table_labels:l3</title>
<path fill="none" stroke="#333333" stroke-opacity="0.933333" d="M373.5,-24.5C373.5,-24.5 444.5,-52.5 444.5,-52.5"/>
</g>
</g>
</svg>
