<svg xmlns="http://www.w3.org/2000/svg" xmlns:xlink="http://www.w3.org/1999/xlink" width="548pt" height="193pt" viewBox="0.00 0.00 547.50 193.00"><g id="graph0" class="graph" transform="scale(1 1) rotate(0) translate(4 189)"><title>collectionDrill</title><g id="node1" class="node"><title>table_artists</title><polygon fill="#ffffff" stroke="none" points="7,-41 7,-144 96,-144 96,-41 7,-41"></polygon><polygon fill="#2c4870" stroke="none" points="8.5,-123.5 8.5,-142.5 95.5,-142.5 95.5,-123.5 8.5,-123.5"></polygon><text text-anchor="start" x="33.5" y="-130.5" font-family="Outage" font-size="10.00" fill="white">Artist</text><polygon fill="#f5f2f0" stroke="none" points="8.5,-104.5 8.5,-123.5 26.5,-123.5 26.5,-104.5 8.5,-104.5"></polygon><text text-anchor="start" x="12.5" y="-112.5" font-family="Source Sans Pro" font-weight="bold" text-decoration="underline" font-size="10.00">id</text><polygon fill="#f5f2f0" stroke="none" points="26.5,-104.5 26.5,-123.5 95.5,-123.5 95.5,-104.5 26.5,-104.5"></polygon><text text-anchor="start" x="48.5" y="-112.5" font-family="Source Sans Pro" font-weight="bold" font-size="10.00">name</text><text text-anchor="start" x="14" y="-90.9" font-family="Source Sans Pro" font-size="12.00">1</text><text text-anchor="start" x="34.5" y="-90.9" font-family="Source Sans Pro" font-size="12.00">Pink Floyd</text><text text-anchor="start" x="14" y="-69.9" font-family="Source Sans Pro" font-size="12.00">2</text><text text-anchor="start" x="30.5" y="-69.9" font-family="Source Sans Pro" font-size="12.00">Iron Maiden</text><text text-anchor="start" x="14" y="-48.9" font-family="Source Sans Pro" font-size="12.00">3</text><text text-anchor="start" x="47" y="-48.9" font-family="Source Sans Pro" font-size="12.00">Bjork</text><polygon fill="#111111" stroke="#111111" points="7.5,-123.5 8.94016470189672,-122.4101465290878 18.904021750669926,-122.20470387546811 30.370940497377887,-122.21204703557305 41.12166664155666,-123.25848653330468 53.19071771216113,-122.89666735997889 63.537920150440186,-123.19593731290661 75.32435898086987,-122.41381074581295 85.52555130585097,-122.54457994259428 97.8774497237755,-122.10615541506559 97.98450019757729,-122.40947595587932 85.63376673182938,-122.92095407110173 75.64679676911328,-123.00022367259953 63.744983992306516,-123.2632124525262 52.28259095468093,-122.56225800712127 41.70447443181183,-122.93805089429952 30.536359034944326,-122.01917857676744 19.520550675340928,-122.39896131760906 8.426760405767709,-122.52883809665218" ></polygon><polygon fill="#111111" stroke="#111111" points="26.5,-104.5 27.010666156420484,-123.06430094956886 27.889152294257656,-122.87275248998776 27.29910214606207,-104.14181421371177 27.154507766244933,-104.48984211473726" ></polygon><polygon fill="#111111" stroke="#111111" points="7.5,-104.5 8.994629827095196,-103.97559043788351 27.184063494671136,-103.76938248611987 26.65336375113111,-103.88352550042327 7.502376989345066,-103.82496106158942" ></polygon><polygon fill="#111111" stroke="#111111" points="26.5,-104.5 27.580794024979696,-104.35037218779325 37.44697401416488,-103.89949884929229 46.67429062840529,-103.2353183280211 56.93439098459203,-103.9258279382484 67.04555355198681,-103.75843721535057 77.37341179023497,-104.07072316692211 87.94022097275592,-103.78627519565634 96.80802483507432,-103.95028236706275 97.27501461235806,-103.70881080534309 86.61364589305595,-104.3561503662495 77.774377640686,-103.10022788890637 66.8386858511949,-104.27846287831198 57.864362235181034,-103.8575607277453 46.80778920301236,-103.59662998688873 37.00014642684255,-103.41299103514757 27.848839939921163,-104.41239899664652" ></polygon><polygon fill="#111111" stroke="#111111" points="26.5,-83.5 26.674303735606372,-93.9637549938634 27.31082402879838,-103.01535323855933 27.3188338795444,-103.68096973665524 27.437231080955826,-93.10176598757971 27.734358610701747,-82.15943334077019 27.65284826559946,-83.0696594157489" ></polygon><polygon fill="#111111" stroke="#111111" points="7.5,-83.5 8.500104896491393,-83.09336100367364 27.840540468576364,-82.98755168751813 27.725881218793802,-83.45492083218414 8.892281723208725,-83.44389980682172" ></polygon><polygon fill="#111111" stroke="#111111" points="26.5,-83.5 27.346903705387376,-82.63572433544323 37.30134027590975,-83.13456193858292 47.47275705600623,-82.75659137952607 57.91751854296308,-82.57239939121064 67.8271706062369,-82.75848635809962 76.76309443730861,-83.02159988030326 86.87061095575336,-82.35176943033002 97.30333434743807,-83.15381218167022 96.91452584718354,-82.87951074831653 86.7921602948336,-82.4589918393176 77.81696353422012,-83.36718428542372 67.19658339151647,-82.14445286465343 57.393649457837455,-82.18535993352998 47.99954199674539,-82.80448970478028 36.83587145362981,-83.23110824660398 26.685970476595685,-82.95016999158543" ></polygon><polygon fill="#111111" stroke="#111111" points="26.5,-62.5 27.804796888143755,-72.04487596626859 27.742898092605174,-82.30371793243103 27.158626061398536,-82.47796975297388 27.811083089211024,-72.42961652984377 26.695535300998017,-61.86951124819461 27.070427536265925,-61.66634658456314" ></polygon><polygon fill="#111111" stroke="#111111" points="7.5,-62.5 8.067540700896643,-61.10737141233403 26.88995609176345,-61.89076835673768 27.749818642740138,-61.27135948976502 8.181493254960515,-61.70777258614544" ></polygon><polygon fill="#111111" stroke="#111111" points="26.5,-62.5 27.158245226135477,-62.19191824551672 36.77247942623217,-62.44453798083123 47.48394047585316,-61.0442981532542 57.33392026065849,-61.23680506844539 67.2920484560309,-61.570432747364976 77.1450461394852,-61.76698620757088 87.56071768386755,-61.24948091653641 97.14574442256708,-62.38579602201935 97.50800643139519,-62.307821548893116 86.58781491860282,-61.929849941749126 76.73225637304131,-61.44056715781335 67.00301728455815,-61.87311610463075 57.95253844943363,-61.713311953353696 46.5032855020836,-61.77118694083765 36.86481574352365,-62.18939550395589 27.085881411796436,-62.19944127288181" ></polygon><polygon fill="#111111" stroke="#111111" points="26.5,-40.5 27.482825339073315,-50.69789232034236 27.016304517746903,-61.093027006369084 27.622433918062598,-61.49509133491665 26.75858152320143,-51.2459058027016 26.6646773328539,-40.15369055850897 27.302163041080348,-40.420793533092365" ></polygon><polygon fill="none" stroke="#111111" points="7,-41 7.072570362593979,-51.10177530983928 7.776382256415673,-60.14507513402495 7.245895882602781,-70.64346415209583 7.542161748860963,-80.84646022673695 7.948543798993342,-91.59376543480901 8.26068071089685,-102.38218686049802 7.297121512237936,-112.56448673866687 8.001473459764384,-122.20399824422782 7.140101409051567,-133.39369132118298 7.94135689153336,-143.96150984661654 19.08891035988927,-142.5513513162732 30.47482245240826,-143.18035297142342 40.5661291758297,-143.44701573823113 52.755222082021646,-142.89577423478477 64.01238861714955,-143.46471875568386 73.92469127045479,-142.82514478289522 85.97692055918742,-143.81480236072093 96.2481018982362,-143.97608698590193 96.39987736952025,-133.27951991597655 96.34315956698265,-122.4764510264853 97.4883027736796,-112.63499638068024 96.79343025223352,-101.32957828098442 96.63085011485964,-92.47604942205362 97.33053081168327,-81.0440121053718 97.46390019217506,-71.78146994751879 97.22846714907791,-61.53115122546443 97.16122203134,-50.18087492133492 96.01226519211195,-40.411530607845634 85.22563207591884,-40.08586572960485 75.13136499596294,-39.55028109776322 63.86035419255495,-40.850055619026534 52.266932379687205,-40.49270397948567 41.59143020142801,-40.3906751293689 29.377885326510295,-40.72299404395744 18.840332100982778,-40.6248178856913 7.835516382823698,-39.64689707860816" ></polygon></g><g id="node2" class="node"><title>table_albums</title><polygon fill="#ffffff" stroke="none" points="168,-7 168,-178 373,-178 373,-7 168,-7"></polygon><polygon fill="#2c4870" stroke="none" points="169.5,-157.5 169.5,-176.5 372.5,-176.5 372.5,-157.5 169.5,-157.5"></polygon><text text-anchor="start" x="251.5" y="-164.5" font-family="Outage" font-size="10.00" fill="white">Album</text><polygon fill="#f5f2f0" stroke="none" points="169.5,-138.5 169.5,-157.5 187.5,-157.5 187.5,-138.5 169.5,-138.5"></polygon><text text-anchor="start" x="173.5" y="-146.5" font-family="Source Sans Pro" font-weight="bold" text-decoration="underline" font-size="10.00">id</text><polygon fill="#f5f2f0" stroke="none" points="187.5,-138.5 187.5,-157.5 292.5,-157.5 292.5,-138.5 187.5,-138.5"></polygon><text text-anchor="start" x="230.5" y="-146.5" font-family="Source Sans Pro" font-weight="bold" font-size="10.00">title</text><polygon fill="#f5f2f0" stroke="none" points="292.5,-138.5 292.5,-157.5 333.5,-157.5 333.5,-138.5 292.5,-138.5"></polygon><text text-anchor="start" x="296.5" y="-146.5" font-family="Source Sans Pro" font-weight="bold" font-style="italic" font-size="10.00">artistId</text><polygon fill="#f5f2f0" stroke="none" points="333.5,-138.5 333.5,-157.5 372.5,-157.5 372.5,-138.5 333.5,-138.5"></polygon><text text-anchor="start" x="337.5" y="-146.5" font-family="Source Sans Pro" font-weight="bold" font-style="italic" font-size="10.00">labelId</text><text text-anchor="start" x="175" y="-118.4" font-family="Source Sans Pro" font-size="12.00">1</text><text text-anchor="start" x="204.5" y="-124.9" font-family="Source Sans Pro" font-size="12.00">The Dark Side</text><text text-anchor="start" x="209.5" y="-111.9" font-family="Source Sans Pro" font-size="12.00">of the Moon</text><text text-anchor="start" x="309.5" y="-118.4" font-family="Source Sans Pro" font-size="12.00">1</text><text text-anchor="start" x="349.5" y="-118.4" font-family="Source Sans Pro" font-size="12.00">1</text><text text-anchor="start" x="175" y="-90.9" font-family="Source Sans Pro" font-size="12.00">2</text><text text-anchor="start" x="195.5" y="-90.9" font-family="Source Sans Pro" font-size="12.00">The Endless River</text><text text-anchor="start" x="309.5" y="-90.9" font-family="Source Sans Pro" font-size="12.00">1</text><text text-anchor="start" x="349.5" y="-90.9" font-family="Source Sans Pro" font-size="12.00">2</text><text text-anchor="start" x="175" y="-69.9" font-family="Source Sans Pro" font-size="12.00">3</text><text text-anchor="start" x="199.5" y="-69.9" font-family="Source Sans Pro" font-size="12.00">Fear of the Dark</text><text text-anchor="start" x="309.5" y="-69.9" font-family="Source Sans Pro" font-size="12.00">2</text><text text-anchor="start" x="349.5" y="-69.9" font-family="Source Sans Pro" font-size="12.00">1</text><text text-anchor="start" x="175" y="-48.9" font-family="Source Sans Pro" font-size="12.00">4</text><text text-anchor="start" x="194" y="-48.9" font-family="Source Sans Pro" font-size="12.00">The Book of Souls</text><text text-anchor="start" x="309.5" y="-48.9" font-family="Source Sans Pro" font-size="12.00">2</text><text text-anchor="start" x="349.5" y="-48.9" font-family="Source Sans Pro" font-size="12.00">2</text><text text-anchor="start" x="175" y="-21.4" font-family="Source Sans Pro" font-size="12.00">5</text><text text-anchor="start" x="207.5" y="-27.9" font-family="Source Sans Pro" font-size="12.00">Selmasongs:</text><text text-anchor="start" x="191.5" y="-14.9" font-family="Source Sans Pro" font-size="12.00">Dancer In The Dark</text><text text-anchor="start" x="309.5" y="-21.4" font-family="Source Sans Pro" font-size="12.00">3</text><text text-anchor="start" x="349.5" y="-21.4" font-family="Source Sans Pro" font-size="12.00">3</text><polygon fill="#333333" stroke="#333333" points="168.5,-157.5 168.77576089836657,-156.23199044214562 179.46270500891842,-156.30967802368104 189.8048443675507,-156.90575294592418 200.72521154780407,-156.17507868690882 210.45012592966668,-156.6271540336311 220.83248945628293,-156.758078823681 230.1239008163102,-156.99178527330514 241.29648975282907,-156.49450363777578 250.55452291772235,-156.734021349228 260.8114295490086,-157.08505208208226 271.88295182655565,-156.0755427600816 281.25617986824363,-156.68614097032696 292.36201653874014,-156.6497938411776 302.67370818252675,-157.48347637534607 312.79204585729167,-156.91339908982627 323.47589772660285,-157.02185682021081 333.09608985460363,-156.10075430595316 343.9105808031745,-157.0697262401227 354.2642153992783,-156.2486781020416 363.39532060571946,-156.08881508430932 373.95236604020465,-156.52381237281952 374.6684285894735,-156.63894658209756 364.4527801104123,-156.747028827318 354.0658346408745,-156.8050174129894 343.97505500202533,-157.26097806135658 332.89110759238247,-156.07444712659344 322.42922573164105,-156.87076197273564 312.36888884799555,-156.17351107334252 302.37025792512577,-156.58368178177625 291.6595746879466,-157.49779964773916 281.91060004848987,-156.90384268504567 272.1874564142199,-157.31145801907405 261.2720174039714,-156.59333433990832 251.98412588099018,-157.14630024391226 241.20887375075836,-156.75288597377948 230.3542148442939,-156.6650689142989 220.8678100135876,-156.01259997929446 210.42417234263849,-156.55470201862045 199.93840603611898,-156.65821459307335 189.51192359626293,-156.9028282983927 180.05420238804072,-156.76136381726246 169.2598582765786,-156.84699692681897" ></polygon><polygon fill="#333333" stroke="#333333" points="187.5,-138.5 187.79684541164897,-157.35186844028067 187.99480570829473,-156.77379791624844 188.9552262261277,-137.40314966905862 188.06139641697519,-137.04425465257373" ></polygon><polygon fill="#333333" stroke="#333333" points="168.5,-138.5 168.54301320994273,-138.18512761732563 188.25469799526036,-137.81521524500567 187.5868770807283,-138.21395654743537 168.71025575930253,-138.09839264687616" ></polygon><polygon fill="#333333" stroke="#333333" points="292.5,-138.5 292.83498454245273,-156.90625754278153 293.76709650596604,-156.70676845125854 293.4770223693922,-137.3815318327397 293.9940379631007,-137.9001962969778" ></polygon><polygon fill="#333333" stroke="#333333" points="187.5,-138.5 188.5319128758274,-137.842613127199 199.19242358976044,-137.24435837124474 209.70828210376203,-137.596722889808 219.59719821321778,-138.17546131287236 230.9682332117809,-138.20216265891213 240.11738481977955,-137.22603546001483 251.96435095136985,-137.59553383931052 262.12668351083994,-137.37597157643177 272.8149904869497,-138.24698327016085 282.5596221765736,-137.55231178551912 292.9188717895886,-137.30597271886654 292.5771927359747,-137.1349398966413 283.3956239320105,-137.83034940820653 271.985726458719,-137.96185897570103 261.51087830832694,-137.46937228366733 250.52317674667574,-137.59040934836958 240.16915995860472,-138.08925336890388 230.98057019489352,-137.74720155424438 220.25354820198845,-137.46598258719314 209.80323200847488,-138.47349023248535 199.23498501512222,-137.84437459602486 188.47239350457676,-138.2795198170934" ></polygon><polygon fill="#333333" stroke="#333333" points="333.5,-138.5 333.64300919987727,-156.05248776439112 334.86529418092687,-156.10063967923634 333.9355776857119,-137.42974794982 334.25374950887635,-138.4396962422179" ></polygon><polygon fill="#333333" stroke="#333333" points="292.5,-138.5 293.6905624953797,-137.83521905681118 303.779759684694,-137.61608710093424 313.9259037738666,-137.85752867988776 324.26252556976397,-137.86571145348717 333.7990621054778,-137.32765341806225 334.24199811310973,-137.11335173994303 323.98006089543924,-137.97019485209603 313.3647690399084,-137.56948214001022 303.6971283602761,-137.79594765626825 293.6112719094381,-137.66066968045197" ></polygon><polygon fill="#333333" stroke="#333333" points="333.5,-138.5 334.5594739068765,-137.0046206515981 344.4313299022615,-137.38556012092158 354.3508504505735,-137.95196683169343 363.88648692227434,-137.84957904124167 373.5619717191439,-137.21265847375616 374.4506853990024,-137.82064893841743 364.83707336103544,-137.63896473206114 354.74918106000405,-138.2569498185767 344.52835619891994,-137.40521770180203 333.8906242516823,-138.00516317982692" ></polygon><polygon fill="#333333" stroke="#333333" points="187.5,-104.5 188.70561171113513,-115.42221840141185 188.3685112944804,-126.64052035465525 187.87503036553971,-137.1925625713775 187.8645538177807,-138.4823013987625 188.59727297374047,-127.07263660143751 188.0664770824369,-114.5398602007966 188.18610150064342,-104.32980625762139 188.41958748735487,-103.95188555971254" ></polygon><polygon fill="#333333" stroke="#333333" points="168.5,-104.5 169.0560796315549,-104.43558080424555 187.91749763977714,-104.30941148207057 188.53817077924032,-103.382531800773 169.85321061662398,-103.58328434929717" ></polygon><polygon fill="#333333" stroke="#333333" points="292.5,-104.5 293.8766572860768,-114.98105946866174 293.20595035725273,-126.32953155638339 292.83127636648715,-137.13960611331277 293.78003138664644,-138.33507483627182 293.16798967297655,-127.14473551829967 293.5254357702797,-115.1216533581804 293.0532441479154,-103.06214647099841 293.8297456857981,-103.48594919766765" ></polygon><polygon fill="#333333" stroke="#333333" points="187.5,-104.5 188.97252942924388,-103.34244394733105 199.4774563353276,-104.16539139254019 208.78695964906365,-104.214612197713 219.2977654680144,-104.44606155308429 229.84175695152953,-103.35039651824627 240.05583250557538,-104.17194755200762 251.95841632329393,-104.23833754204679 261.5898324729642,-103.3203099265229 272.79033918015193,-103.18151795165613 282.43788427405525,-103.77190959220752 293.2788234259933,-103.74319146841299 293.7784226954682,-103.38831494585611 282.92546364152804,-104.13564616185613 272.1985637100879,-103.5907931686379 261.8394968236098,-103.19471237098332 251.20098817243706,-103.08850692363922 240.38268222485203,-103.11589227803051 230.82438396988437,-104.06643985339906 219.73434229718987,-103.56236924650148 208.89039446704555,-103.67514385224786 199.0512164568063,-103.48389201110695 188.5365595986368,-103.95527672441676" ></polygon><polygon fill="#333333" stroke="#333333" points="333.5,-104.5 334.5125211479608,-115.22593646911749 334.907188035897,-126.80512160706954 334.9848565266002,-137.09068368084263 334.9816367540043,-137.98945815348998 334.6000879328931,-125.67814859751768 333.6403200045461,-114.73249271810832 333.5049188346602,-104.38491221459117 333.9259941074997,-104.19344400335103" ></polygon><polygon fill="#333333" stroke="#333333" points="292.5,-104.5 293.5594210275449,-104.3892152182525 303.8833838715218,-104.18085688399151 313.22471263993066,-103.19201201479882 324.47735638171434,-104.41225958184805 334.61694040789735,-103.89977983303834 334.7689626511419,-103.27838921244256 324.3331663525896,-103.28190113138407 313.89294971735217,-104.01606658508535 304.1610102329869,-104.2558574739378 293.46853975765407,-103.22194827359635" ></polygon><polygon fill="#333333" stroke="#333333" points="333.5,-104.5 333.6544895566767,-103.01190141472034 344.9520337142749,-103.55522091046441 354.25479421392083,-103.49121319141705 364.39933929697145,-104.43762924987823 374.78395791642834,-103.12493928486947 374.0661311117001,-103.04420331516303 364.3696685070172,-103.64007767173462 353.8995814108057,-103.21427108941134 344.15638918813784,-104.48272136354353 334.3367479009321,-103.46098382829223" ></polygon><polygon fill="#333333" stroke="#333333" points="187.5,-83.5 187.56416867219377,-93.48904581484385 188.13825968583114,-103.44633164268453 187.62087327986956,-104.37897058832459 188.34044817171525,-93.991929812124 188.99246844265144,-83.1801839505788 187.7910330730956,-83.26272462576162" ></polygon><polygon fill="#333333" stroke="#333333" points="168.5,-83.5 169.8582409892697,-82.03717078000773 187.77850048989058,-82.59360224090051 188.87770905916113,-83.16756928374525 168.55548123887274,-82.0868767258944" ></polygon><polygon fill="#333333" stroke="#333333" points="292.5,-83.5 293.50493092043325,-93.24878431321122 293.64820106327534,-104.00462174555287 293.31820169999264,-103.50801429268904 293.5141029905062,-93.2950629980769 293.22398624033667,-83.01633086858783 293.4124174180906,-83.03258334565908" ></polygon><polygon fill="#333333" stroke="#333333" points="187.5,-83.5 187.96577043423895,-82.86920073640067 198.42220718215685,-82.14275983686093 209.85603893792722,-82.34576958231628 219.10769494785927,-82.55150436551776 230.73813124594744,-83.05439807288349 240.2770887549268,-82.54656395339407 250.92230223258957,-83.40331269684248 261.25095034134574,-82.91619630518835 271.730814042734,-82.93527187744621 283.4678731353488,-82.23887968587223 293.8258078013314,-83.01449074782431 292.5045924052829,-83.33162732736673 283.1308434595121,-82.47182898281608 272.53762067633215,-83.056282537058 261.8826811267063,-82.51969913684297 250.6554485571105,-82.76149438112043 240.96775907138363,-82.61687550274655 229.87793118995614,-82.18475489038974 219.08717610756867,-82.17574028484523 209.10070884099696,-82.50786120735575 198.84297352074645,-82.44545837340411 188.3588168952847,-83.3579221846303" ></polygon><polygon fill="#333333" stroke="#333333" points="333.5,-83.5 334.70350455935113,-92.65194025984965 334.58874308352824,-103.46734036889393 334.41012658772524,-103.1489375816891 334.5683276860509,-93.57168283232022 334.1615468019154,-82.36698751803488 334.8678701472236,-82.05502296076156" ></polygon><polygon fill="#333333" stroke="#333333" points="292.5,-83.5 293.8081462449627,-82.04818523605354 304.018550836714,-83.47224498097785 314.0098335050279,-83.31769111205358 323.97584497451317,-82.73352597770281 334.9122558340896,-82.98107479186729 334.53233137133066,-82.52406258415431 324.538560164161,-82.51346835412551 313.42711635422893,-82.23266251920722 303.12412974541076,-83.49562774121296 293.42365410982165,-83.04153470066376" ></polygon><polygon fill="#333333" stroke="#333333" points="333.5,-83.5 334.61334741988685,-83.08757810795214 343.8655270000454,-82.48354480159469 354.53801903221756,-82.04403887724038 364.38821319886483,-82.87412940443028 374.90086076350417,-83.0313820837764 374.97186024917755,-82.46004340180662 364.1585375415161,-82.67165680450853 354.35143920069095,-83.21384247113019 344.4839726407081,-83.06815944379196 334.6901209038915,-83.07380226498935" ></polygon><polygon fill="#333333" stroke="#333333" points="187.5,-62.5 188.81638629734516,-71.76584731205367 188.2415534000611,-82.84983472456224 187.62025159341283,-83.04485583805945 188.5545816498343,-72.92254417669028 187.77879753755406,-61.10997580096591 187.6783585898811,-61.0621624046471" ></polygon><polygon fill="#333333" stroke="#333333" points="168.5,-62.5 169.72661076602526,-62.49477363820188 188.92712776944973,-62.452421107678674 188.92909583856817,-61.45081186876632 168.95435894839466,-61.72076780430507" ></polygon><polygon fill="#333333" stroke="#333333" points="292.5,-62.5 293.1096292489674,-71.71496363577899 292.8339733929606,-82.82084210950416 292.9533436599886,-83.39290263538714 293.02613616536837,-72.83444790414069 292.5154437694,-61.81220242858399 292.8564571287716,-61.739337916718796" ></polygon><polygon fill="#333333" stroke="#333333" points="187.5,-62.5 188.9914426698815,-62.13079821469728 199.34113785240334,-61.768312553991564 209.81712848274037,-61.063582875649445 220.45411145221442,-61.516085474868305 230.5151580168167,-62.31428207224235 240.71573599695694,-61.134477410814725 251.32475693360902,-61.33120032097213 262.4221774342004,-61.68256780935917 272.62870976817794,-62.17192994337529 282.66626340989023,-61.88372292392887 293.4294047896983,-61.792032726691104 293.6736434729537,-62.12309376557823 282.8248323658481,-61.86515879340004 272.6516118182335,-62.04821055859793 261.6752654768061,-61.668825705652125 251.52759846369736,-61.36165745847393 241.2089481165167,-61.66144970804453 230.05544261075556,-61.91054804273881 219.2450555220712,-61.750519715365954 209.5759270110866,-61.72942558664363 198.37720336590428,-62.42129472584929 188.87681824760512,-61.98956182471011" ></polygon><polygon fill="#333333" stroke="#333333" points="333.5,-62.5 334.42055040353443,-71.52596283506136 334.86831105838064,-83.12039581360295 333.57391247781925,-82.8713717921637 333.61037567956373,-71.91324633464683 334.2895211568102,-62.42579291644506 333.60617263114545,-62.49780056311283" ></polygon><polygon fill="#333333" stroke="#333333" points="292.5,-62.5 293.14591479487717,-61.340528259868734 304.16466684348416,-62.04217217373662 313.19355622609146,-61.803114633308724 323.98699999647215,-61.20708789722994 334.82885112718213,-61.120096162194386 334.1526863081381,-61.81000113300979 324.3984780460596,-61.56938261818141 313.2261074822163,-61.350685309036635 303.82193402852863,-61.42470219603274 292.7170837362064,-61.904413674608804" ></polygon><polygon fill="#333333" stroke="#333333" points="333.5,-62.5 334.7485857248539,-61.05949234205764 344.8912166885566,-61.54297808511183 354.10594243882224,-61.606540778884664 363.89435625006445,-62.29470382083673 374.38116138009354,-61.82180019421503 373.6842320471769,-61.700772907352075 364.2996850211639,-62.277656527701765 354.4347719884245,-61.334712367039174 344.8133132091025,-62.36082474444993 334.91894589480944,-61.65284152631648" ></polygon><polygon fill="#333333" stroke="#333333" points="187.5,-41.5 188.77862449502572,-50.56206791230943 187.68000842398033,-61.3364422339946 188.7424601172097,-61.99985351099167 188.68031152838375,-51.59215044451412 188.26185075449757,-41.03535106370691 188.990782552748,-41.17978738876991" ></polygon><polygon fill="#333333" stroke="#333333" points="168.5,-41.5 168.71871475013904,-40.312295848852955 187.62410962907597,-40.15506775886752 188.75544945755973,-40.551151995547116 168.74400947033428,-40.134641967481" ></polygon><polygon fill="#333333" stroke="#333333" points="292.5,-41.5 293.3062633801019,-51.271808521822095 293.9435365470126,-61.86630912718829 292.68811871646903,-62.058459205552936 292.94492897344753,-51.9095931929769 293.2718578762142,-40.784177014254965 292.6774608262349,-41.34192489949055" ></polygon><polygon fill="#333333" stroke="#333333" points="187.5,-41.5 188.9751211273251,-40.03310281713493 198.26660851354245,-40.270246978267096 209.21934565133415,-40.644769313861616 220.26005354931112,-40.238408840144984 230.02211819705553,-40.14742337621283 241.1980451446725,-40.5353105715476 251.29856912407558,-40.040485489880666 261.6994718236383,-40.282538679544814 272.7325215790188,-40.08552513807081 282.17652471608017,-40.06933287938591 293.14649365644436,-40.13067223946564 292.8096034191549,-40.795424968819134 283.42737978568766,-41.22061650909018 271.9909318109276,-41.479562152992 261.74024499440566,-40.7061462685233 251.97426813072525,-40.53980125125963 240.9904679171741,-40.68330869660713 230.391710540629,-40.91088227671571 219.1474617999047,-40.892330399132334 208.62126805563457,-40.486218674108386 198.68795625306666,-40.980174762313254 187.9273484274745,-40.32165344920941" ></polygon><polygon fill="#333333" stroke="#333333" points="333.5,-41.5 334.39787074318156,-51.30210122419521 334.58843988669105,-61.01096348883584 333.7159362885868,-61.42429730191361 334.90971881640144,-50.70280683005694 334.18395583715755,-41.12013850873336 334.92504607036244,-41.402682009967975" ></polygon><polygon fill="#333333" stroke="#333333" points="292.5,-41.5 293.66902618075255,-40.65121636050753 303.25969919457566,-40.43029596772976 314.36996815924067,-40.0190987290116 324.04413928929716,-40.457198551739566 334.14364903303795,-40.408958590589464 334.01892189099453,-40.55603723344393 323.89181259821635,-40.450069863931276 313.35601847653743,-40.980517717660405 302.8959306766046,-40.06064207199961 293.95416041475255,-41.189946144702844" ></polygon><polygon fill="#333333" stroke="#333333" points="333.5,-41.5 334.9814052730799,-40.91862691566348 343.8259044176666,-41.18835054466035 353.55817261664197,-41.30974450102076 364.66189564578235,-40.37992707756348 373.93207442353014,-40.64567771344446 374.67405625618994,-41.15470726310741 364.42221511970274,-41.4462020030478 354.5375112586189,-40.38770776079036 344.58871841349173,-40.944878484588116 334.3808351389598,-40.50298393506091" ></polygon><polygon fill="#333333" stroke="#333333" points="187.5,-6.5 187.81959870632272,-17.225998094926275 188.66192224051338,-29.18146468508833 188.27377195190638,-40.46510781196412 188.26552719343454,-40.42233542911708 188.13821397721767,-29.44908918133782 188.2331824597204,-16.87631937702342 187.60832269338425,-6.371868285001256 187.67857949773315,-5.782580294180661" ></polygon><polygon fill="#333333" stroke="#333333" points="292.5,-6.5 292.9014277034439,-17.99354786953578 293.66353929473553,-29.005465351937644 292.7368913273094,-41.009515998186544 293.25526023691054,-41.3627320608357 292.51347983954474,-28.643274394756496 293.0730692240177,-17.72156924036487 292.5152972167125,-5.211333684623241 293.3729482283816,-5.173690502997488" ></polygon><polygon fill="#333333" stroke="#333333" points="333.5,-6.5 333.9575458440231,-16.949505263978303 333.8011967771454,-29.121948304430887 334.48922896711156,-40.53616895072628 333.97219624812715,-40.27124569530133 334.5309257041663,-28.747899225059278 333.5203481519129,-17.00089433024793 334.2278953930363,-5.822317905607633 334.65057712676935,-5.106752288294956" ></polygon><polygon fill="none" stroke="#333333" points="168,-7 169.19256338034756,-16.124693737961078 168.37735267484095,-26.017905763727065 169.26177564659156,-36.39706769508227 168.72047447192017,-46.870254060773945 169.02237664803397,-55.87369737408453 168.91394152888097,-66.39132895876024 168.92211048072204,-76.25177341907094 168.06948317494243,-87.18601025128054 168.79433585260995,-96.10167634639178 168.4941832748009,-107.15218401481125 168.48738271684851,-117.04800106064583 169.04937769670505,-126.7658076578998 169.133173285285,-136.43147465371638 168.6566815635888,-147.34111405660482 169.10951923567336,-157.37989954426476 168.8238070254447,-167.84212354429562 168.86682788003236,-177.6849184144521 178.8580886904383,-177.90447532129474 188.75570565380622,-177.4930086218519 200.04833932674956,-177.93070860754233 209.0212404980557,-177.5195057176752 220.02009179804008,-177.45275719452184 230.8333503875183,-176.9411586477654 240.32643291563727,-176.92793630622327 250.39372374711093,-176.88776641141158 260.3362438136246,-176.73854126932565 271.223146362463,-177.632179461536 281.11933083308395,-177.49194345937576 292.2252880964661,-176.68566273432225 301.975998577429,-177.03338000481017 312.74600729637314,-176.5895790134091 322.3869349169545,-177.72128940338735 332.30592486658134,-177.62328686192632 343.6220342204906,-176.65642572881188 353.751018418232,-177.6102655295981 363.69353864958975,-177.73452473478392 374.4520677573746,-176.97889204730745 374.10973469458986,-167.66378784224884 373.50092009082437,-156.43664140204953 373.77518616826274,-146.48444518535945 374.2027173131937,-136.61824962153673 373.7563688005321,-126.66711365133659 373.00265277561266,-116.40376973644527 373.4496898385696,-106.9410844674772 374.06697846821044,-97.22984539450363 374.37022033613175,-86.1621431077296 373.79599329957273,-75.98981986739943 374.0881364066154,-66.52947163892742 373.07006247725803,-56.872592160546674 373.8227562243119,-46.64151636947298 373.3139638748253,-35.86453591826751 373.64453013590537,-26.77094409815442 373.44964672694914,-15.98367712042728 373.15715565148275,-6.784851215663366 364.01570902892854,-5.984059734386392 353.70683620800264,-6.661136400420219 342.7198500119848,-6.035909902420826 332.3687160704285,-6.970090538146906 322.30363532190677,-6.234273400739767 311.65931420738343,-5.57862984330859 302.3461211902322,-6.153493940830231 291.1349401784828,-5.554174873512238 281.98787965998054,-6.456983940326609 270.6173486522166,-6.071254378184676 260.8531525733415,-6.960560020874254 250.20316600962542,-5.595149677596055 239.90759995521512,-6.3533518923213705 230.40780096757226,-5.8478890740079805 219.855709342286,-6.09230039617978 209.99016429530457,-5.975198552245274 199.08584499720018,-5.55317840911448 189.53811987070367,-6.362283532042056 178.95720791479107,-6.024845250998624 168.66820779349655,-5.628420844557695" ></polygon></g><g id="edge1" class="edge"><title>table_artists:a1-&gt;table_albums:a1a</title><polyline fill="none" stroke="#333333" stroke-opacity="0.933333" points="96.5,-94.5 97.17028606683016,-94.4660143784713 107.37828321886316,-97.631907833025 117.72122474731546,-101.20130869556618 128.74693565278517,-105.7304937396631 137.8036946113155,-109.47491375245488 149.17052213002796,-113.55971009054755 159.29855068467026,-116.3903037795265 169.4675350569887,-120.10219024610706 169.67698980285786,-120.68291425786447" ></polyline></g><g id="edge2" class="edge"><title>table_artists:a1-&gt;table_albums:a2a</title><polyline fill="none" stroke="#333333" stroke-opacity="0.933333" points="96.5,-94.5 97.37115026649553,-93.99198601255193 107.32371601814937,-93.45904031570535 117.63069967862353,-93.93830932094716 128.02973781664127,-93.50877852039412 138.49866191532266,-93.34829763660673 148.59183832274618,-93.71741567971185 159.13179961763257,-93.83672504103743 169.2181616827147,-94.25966738769785 169.77405834919773,-94.35111355909612" ></polyline></g><g id="edge3" class="edge"><title>table_artists:a2-&gt;table_albums:a3a</title><polyline fill="none" stroke="#333333" stroke-opacity="0.933333" points="96.5,-72.5 97.3818982297089,-72.13173080969136 107.53953364762545,-71.39480150025338 117.65315951134212,-71.67482247506268 128.23844422095658,-72.17519930819981 137.72868572538056,-71.79598483489826 147.97753869234919,-71.59672944899648 158.49252479147566,-71.7869418890914 169.60812080523465,-71.60720407555345 169.06494959827978,-71.22326856374275" ></polyline></g><g id="edge4" class="edge"><title>table_artists:a2-&gt;table_albums:a4a</title><polyline fill="none" stroke="#333333" stroke-opacity="0.933333" points="96.5,-72.5 97.02104262914509,-71.0389529025415 108.05798230195485,-68.2038512948202 118.23457297968812,-66.37861652800348 127.58710858177595,-63.33141750039067 138.04977990641993,-60.43613852141425 148.9008607866043,-56.505712455138564 158.9508399391447,-53.87873233493883 169.4116811862914,-51.11296480207238 168.65463976806495,-50.36830675939564" ></polyline></g><g id="edge5" class="edge"><title>table_artists:a3-&gt;table_albums:a5a</title><polyline fill="none" stroke="#333333" stroke-opacity="0.933333" points="96.5,-51.5 97.79332233616151,-50.134429114637896 107.09474339781862,-46.75616024599211 117.14527040342469,-42.755605097660535 128.68125551040953,-38.54448593890162 138.81357505849365,-35.83077332116332 149.10456831362433,-31.46053178500319 158.71635147401997,-27.146663315228334 169.81264453125186,-24.315949563169852 169.1723830216797,-23.239389604190364" ></polyline></g><g id="node3" class="node"><title>table_labels</title><polygon fill="#ffffff" stroke="none" points="444.5,-34.5 444.5,-150.5 532.5,-150.5 532.5,-34.5 444.5,-34.5"></polygon><polygon fill="#2c4870" stroke="none" points="445.5,-130.5 445.5,-149.5 531.5,-149.5 531.5,-130.5 445.5,-130.5"></polygon><text text-anchor="start" x="471.5" y="-137.5" font-family="Outage" font-size="10.00" fill="white">Label</text><polygon fill="#f5f2f0" stroke="none" points="445.5,-111.5 445.5,-130.5 463.5,-130.5 463.5,-111.5 445.5,-111.5"></polygon><text text-anchor="start" x="449.5" y="-119.5" font-family="Source Sans Pro" font-weight="bold" text-decoration="underline" font-size="10.00">id</text><polygon fill="#f5f2f0" stroke="none" points="463.5,-111.5 463.5,-130.5 531.5,-130.5 531.5,-111.5 463.5,-111.5"></polygon><text text-anchor="start" x="485" y="-119.5" font-family="Source Sans Pro" font-weight="bold" font-size="10.00">name</text><text text-anchor="start" x="451" y="-97.9" font-family="Source Sans Pro" font-size="12.00">1</text><text text-anchor="start" x="488" y="-97.9" font-family="Source Sans Pro" font-size="12.00">EMI</text><text text-anchor="start" x="451" y="-76.9" font-family="Source Sans Pro" font-size="12.00">2</text><text text-anchor="start" x="467.5" y="-76.9" font-family="Source Sans Pro" font-size="12.00">Parlophone</text><text text-anchor="start" x="451" y="-49.4" font-family="Source Sans Pro" font-size="12.00">3</text><text text-anchor="start" x="473" y="-55.9" font-family="Source Sans Pro" font-size="12.00">One Little</text><text text-anchor="start" x="481" y="-42.9" font-family="Source Sans Pro" font-size="12.00">Indian</text><polygon fill="#333333" stroke="#333333" points="444.5,-130.5 445.1154521445278,-129.2633306211792 456.4428455112502,-130.38174470036756 467.13303106685635,-129.14402136357967 478.7169873014791,-130.25303095509298 489.58673357532825,-129.67290777666494 500.68485101906117,-129.29275295406114 510.8134578128811,-129.09810213453602 522.4530018294463,-130.10906133439858 532.7332745507592,-129.3322148019215 533.6017778485548,-129.7927959174849 522.6028294337448,-130.4364891409641 511.06096586829517,-129.6693524136208 500.00465501868166,-129.13621502474416 489.4034782042727,-129.14597597590182 478.2141038273694,-129.61290212895256 467.7007551295683,-130.46786091139074 456.2245848720195,-129.97190368396696 445.4127163426019,-129.1556002238067" ></polygon><polygon fill="#333333" stroke="#333333" points="463.5,-111.5 464.48091381252743,-129.57532846543472 464.3847835888155,-130.42139167059213 464.86576597730163,-110.81110166048165 464.5362962842919,-111.08469570800662" ></polygon><polygon fill="#333333" stroke="#333333" points="444.5,-111.5 445.84124787535984,-110.19227995839901 464.9951472028624,-110.53977405792102 464.9088824962964,-110.09083848271985 444.98469081905205,-111.32874763512518" ></polygon><polygon fill="#333333" stroke="#333333" points="463.5,-111.5 464.2598613447044,-111.00308461661916 476.36051771149505,-111.11103322531562 487.35541308508255,-110.02945402800106 498.12395674560685,-111.46598100382835 510.76761054992676,-110.78193070192356 521.2559013796272,-110.10767958557699 533.4394476284506,-110.91467586602084 533.5693839724408,-111.38667688390706 521.442936241976,-111.40253014490008 510.2875368735986,-111.18791639246047 498.5259887119755,-111.16676371579524 487.2647401246941,-111.14630072168075 475.7609609585488,-110.64454828831367 464.3982287828112,-110.28816023096442" ></polygon><polygon fill="#333333" stroke="#333333" points="463.5,-90.5 464.1820746953599,-99.98288103274535 464.59264664479997,-110.49114059086423 464.23029702238273,-111.03470780607313 464.5369912229944,-100.26601319713518 464.4135214352282,-89.6553744742414 464.2454368468607,-90.30242866068147" ></polygon><polygon fill="#333333" stroke="#333333" points="444.5,-90.5 445.90662084612995,-89.65536245773546 464.3810945232399,-89.38390497444198 464.04955316428095,-89.39140716439579 445.01395557739306,-89.101457179524" ></polygon><polygon fill="#333333" stroke="#333333" points="463.5,-90.5 464.25777499366086,-89.71875985653605 475.5957362126792,-89.20748740143608 487.86185028846376,-89.54437310481444 498.9247702129651,-89.47149033332244 510.67103689559735,-89.07972621999215 522.0661149889929,-89.16933716530912 533.4187407831196,-89.90155638335273 533.0258568045683,-89.15134619001765 522.1318243007408,-89.40213089517783 510.13007169764023,-89.60945089743473 498.4913998361444,-89.5579561315244 486.96963933913503,-90.49672482651658 475.6415908423951,-89.33558798709419 463.63837359985337,-90.06561808567494" ></polygon><polygon fill="#333333" stroke="#333333" points="463.5,-69.5 463.76430307875853,-78.73438145476393 464.3787824140163,-90.44816988077946 463.53559492668137,-89.27772600133903 464.2114021227462,-79.84469627065118 464.688486306346,-68.86241657135542 464.77252799039707,-68.39099637849722" ></polygon><polygon fill="#333333" stroke="#333333" points="444.5,-69.5 445.14099943311885,-68.26091316016391 464.69330520986114,-68.49004166712984 464.5663597988896,-68.65548143116757 444.7241010061698,-68.27699595398735" ></polygon><polygon fill="#333333" stroke="#333333" points="463.5,-69.5 463.96882502012886,-68.86302144650836 475.84502768388484,-69.31519284460228 487.1619531220058,-68.50584442191757 499.1751324523939,-69.2205553969834 509.65956522128545,-68.17300406179857 521.6414958673995,-68.12212134944275 532.6482772647869,-68.81906991952565 533.5908162201522,-68.59756007639226 521.7086161283078,-68.77888575033285 510.4877437183168,-68.35730215837248 498.5187018548604,-68.16855114221107 487.7990461894078,-68.41099880100228 476.4712642263621,-68.51889411965385 463.6736386563862,-69.18548563390505" ></polygon><polygon fill="#333333" stroke="#333333" points="463.5,-34.5 464.10053676192183,-45.75370005324172 464.62862099613994,-57.767247457600504 464.2002071358729,-68.96033543837257 464.7190334965708,-68.33693911496084 464.94947380037047,-56.697440058652624 464.16889164363965,-45.8706407386732 463.7962385384599,-33.59228945011273 464.40499961504247,-34.12229537777603" ></polygon><polygon fill="none" stroke="#333333" points="444.5,-34.5 444.6945158953313,-45.03831276371652 445.8078076946549,-54.72479225785091 445.8547296137549,-64.6396578675009 445.4476405256428,-75.3304848240752 444.5307249588659,-86.5470405928579 444.7655914722709,-97.32973902034362 445.46469448064454,-107.31466419733427 445.0420648638392,-117.73039567283229 445.4617613659939,-128.95060425685634 444.5364980302984,-139.02612719145094 445.30348000116646,-149.23822719522286 456.19789768895134,-149.31145672430284 467.0248837330146,-150.23399180639535 478.2410667827353,-149.78233574796468 489.09557354822755,-149.11369262321386 499.9996692506829,-150.446281213779 511.6832447987981,-149.8926864292007 522.8034466403769,-149.8768063398311 533.7322471104562,-149.70109515590593 533.8105566554004,-139.93704304746777 533.1434657026548,-128.90152150826447 532.6345459901495,-118.52649893773595 532.8116420621518,-107.16958419135139 533.8898935709149,-96.83112762556202 532.8760153970215,-86.0605568438557 533.7453867980512,-75.85854471096009 533.811935296515,-65.35171107797547 533.2366187557345,-55.28930240517103 533.0072987613967,-43.95704129715028 533.5239124962827,-33.73140564572532 522.3729329216294,-33.31675616162829 511.33268723485526,-33.096169101423584 499.6731292849872,-34.148011639597826 489.64765715319663,-33.518623687676154 477.62401753885206,-33.36254749679938 466.7787457621889,-33.643696305924095 456.5345050873002,-33.227231347351335 445.7576303697424,-33.36698401160538" ></polygon></g><g id="edge6" class="edge"><title>table_albums:a1l-&gt;table_labels:l1</title><polyline fill="none" stroke="#333333" stroke-opacity="0.933333" points="373.5,-121.5 373.5318811152829,-121.24613129964564 384.11841213134386,-118.44634980547042 395.22242457411323,-115.68780041221595 405.3303126582677,-111.51091003492806 414.65619737882776,-108.68731753022541 425.59427412025576,-106.39571240086971 435.1079606591792,-103.18835625213768 445.9018102798145,-100.04969351796899 445.55782476987224,-101.04904363420792" ></polyline></g><g id="edge7" class="edge"><title>table_albums:a2l-&gt;table_labels:l2</title><polyline fill="none" stroke="#333333" stroke-opacity="0.933333" points="373.5,-94.5 374.2932017063722,-94.16019008809235 384.41856041342754,-91.24348396294019 394.06283463936836,-90.16437925266968 405.13404402805367,-87.25877133379359 414.3916749285502,-85.48375541104804 425.2079490808206,-82.7491501374503 435.3083550797145,-80.54098545575317 445.29832024581265,-78.0421441619983 445.07421491702553,-79.34753334440757" ></polyline></g><g id="edge8" class="edge"><title>table_albums:a3l-&gt;table_labels:l1</title><polyline fill="none" stroke="#333333" stroke-opacity="0.933333" points="373.5,-72.5 374.47917054744903,-71.76647683826741 383.787005979468,-75.83316793399197 394.1663672158362,-80.29515949453759 404.46140476286286,-84.1567285863483 414.9089719010019,-88.79389737494887 425.6163487367699,-91.96978331633309 434.56356690135533,-97.02107256870448 445.3484048434766,-100.3222324103117 445.69685936521273,-101.04245737986639" ></polyline></g><g id="edge9" class="edge"><title>table_albums:a4l-&gt;table_labels:l2</title><polyline fill="none" stroke="#333333" stroke-opacity="0.933333" points="373.5,-51.5 374.6815452554729,-51.31947383808438 383.7273654163749,-54.358104082988575 394.61233494981263,-59.466139774536714 404.0007648664095,-62.417034390498884 414.2592445796556,-66.71228381758556 424.4399619720312,-70.73080230306368 435.23999823139263,-74.12877057353035 444.62657103850506,-78.94847902853508 444.82633625227027,-78.85575739480555" ></polyline></g><g id="edge10" class="edge"><title>table_albums:a5l-&gt;table_labels:l3</title><polyline fill="none" stroke="#333333" stroke-opacity="0.933333" points="373.5,-24.5 374.62345080811065,-23.13460350537207 384.0164344614771,-27.872801568824798 394.9800671300951,-32.17539055738598 405.2991353354218,-36.49456551554613 414.75221839053233,-40.42452977306675 424.48761534559486,-44.23958609637339 434.42386973333294,-48.483775145490654 445.6915210679872,-51.01504816277884 444.78834132268094,-51.137706485926174" ></polyline></g></g></svg>