<?xml version="1.0" encoding="UTF-8" standalone="no"?>
<!DOCTYPE svg PUBLIC "-//W3C//DTD SVG 1.1//EN"
 "http://www.w3.org/Graphics/SVG/1.1/DTD/svg11.dtd">
<!-- Generated by graphviz version 2.38.0 (20140413.2041)
 -->
<!-- Title: ER Pages: 1 -->
<svg width="629pt" height="116pt"
 viewBox="0.00 0.00 629.50 116.00" xmlns="http://www.w3.org/2000/svg" xmlns:xlink="http://www.w3.org/1999/xlink">
<g id="graph0" class="graph" transform="scale(1 1) rotate(0) translate(4 112)">
<title>ER</title>
<!-- Artist -->
<g id="node1" class="node"><title>Artist</title>
<polygon fill="#c4e2fd" stroke="black" points="92,-108 38,-108 38,-72 92,-72 92,-108"/>
<text text-anchor="middle" x="65" y="-86.3" font-family="Source Sans Pro" font-size="14.00">Artist</text>
</g>
<!-- attrIdArtist -->
<g id="node4" class="node"><title>attrIdArtist</title>
<ellipse fill="#f4f2fd" stroke="black" cx="27" cy="-18" rx="27" ry="18"/>
<text text-anchor="start" x="21" y="-15.3" font-family="Source Sans Pro" text-decoration="underline" font-size="14.00">id</text>
</g>
<!-- Artist&#45;&gt;attrIdArtist -->
<g id="edge5" class="edge"><title>Artist&#45;&gt;attrIdArtist</title>
<path fill="none" stroke="black" d="M55.6067,-71.6966C49.5407,-60.5224 41.7019,-46.0824 35.7642,-35.1446"/>
</g>
<!-- attrNameArtist -->
<g id="node7" class="node"><title>attrNameArtist</title>
<ellipse fill="#f4f2fd" stroke="black" cx="104" cy="-18" rx="32.4942" ry="18"/>
<text text-anchor="middle" x="104" y="-14.3" font-family="Source Sans Pro" font-size="14.00">name</text>
</g>
<!-- Artist&#45;&gt;attrNameArtist -->
<g id="edge1" class="edge"><title>Artist&#45;&gt;attrNameArtist</title>
<path fill="none" stroke="black" d="M74.6405,-71.6966C80.7759,-60.6843 88.6784,-46.5002 94.739,-35.6223"/>
</g>
<!-- Authorship -->
<g id="node10" class="node"><title>Authorship</title>
<polygon fill="#a4a2fd" stroke="black" points="184,-108 110.435,-90 184,-72 257.565,-90 184,-108"/>
<text text-anchor="middle" x="184" y="-86.3" font-family="Source Sans Pro" font-size="14.00">Authorship</text>
</g>
<!-- Artist&#45;&gt;Authorship -->
<g id="edge7" class="edge"><title>Artist&#45;&gt;Authorship</title>
<path fill="none" stroke="black" d="M92.4258,-90C98.3876,-90 104.35,-90 110.311,-90"/>
<text text-anchor="middle" x="100.911" y="-94.7853" font-family="Source Sans Pro" font-size="14.00">1</text>
</g>
<!-- Album -->
<g id="node2" class="node"><title>Album</title>
<polygon fill="#c4e2fd" stroke="black" points="330,-108 276,-108 276,-72 330,-72 330,-108"/>
<text text-anchor="middle" x="303" y="-86.3" font-family="Source Sans Pro" font-size="14.00">Album</text>
</g>
<!-- attrId -->
<g id="node6" class="node"><title>attrId</title>
<ellipse fill="#f4f2fd" stroke="black" cx="267" cy="-18" rx="27" ry="18"/>
<text text-anchor="start" x="261" y="-15.3" font-family="Source Sans Pro" text-decoration="underline" font-size="14.00">id</text>
</g>
<!-- Album&#45;&gt;attrId -->
<g id="edge4" class="edge"><title>Album&#45;&gt;attrId</title>
<path fill="none" stroke="black" d="M294.101,-71.6966C288.354,-60.5224 280.928,-46.0824 275.303,-35.1446"/>
</g>
<!-- attrTitle -->
<g id="node9" class="node"><title>attrTitle</title>
<ellipse fill="#f4f2fd" stroke="black" cx="339" cy="-18" rx="27" ry="18"/>
<text text-anchor="middle" x="339" y="-14.3" font-family="Source Sans Pro" font-size="14.00">title</text>
</g>
<!-- Album&#45;&gt;attrTitle -->
<g id="edge2" class="edge"><title>Album&#45;&gt;attrTitle</title>
<path fill="none" stroke="black" d="M311.899,-71.6966C317.646,-60.5224 325.072,-46.0824 330.697,-35.1446"/>
</g>
<!-- Album&#45;&gt;Authorship -->
<g id="edge8" class="edge"><title>Album&#45;&gt;Authorship</title>
<path fill="none" stroke="black" d="M275.876,-90C269.887,-90 263.899,-90 257.91,-90"/>
<text text-anchor="middle" x="267.39" y="-94.7853" font-family="Source Sans Pro" font-size="14.00">n</text>
</g>
<!-- Distribution -->
<g id="node11" class="node"><title>Distribution</title>
<polygon fill="#a4a2fd" stroke="black" points="427,-108 347.905,-90 427,-72 506.095,-90 427,-108"/>
<text text-anchor="middle" x="427" y="-86.3" font-family="Source Sans Pro" font-size="14.00">Distribution</text>
</g>
<!-- Album&#45;&gt;Distribution -->
<g id="edge9" class="edge"><title>Album&#45;&gt;Distribution</title>
<path fill="none" stroke="black" d="M330.125,-90C336.054,-90 341.982,-90 347.911,-90"/>
<text text-anchor="middle" x="338.61" y="-94.7853" font-family="Source Sans Pro" font-size="14.00">n</text>
</g>
<!-- Label -->
<g id="node3" class="node"><title>Label</title>
<polygon fill="#c4e2fd" stroke="black" points="578,-108 524,-108 524,-72 578,-72 578,-108"/>
<text text-anchor="middle" x="551" y="-86.3" font-family="Source Sans Pro" font-size="14.00">Label</text>
</g>
<!-- attrIdLabel -->
<g id="node5" class="node"><title>attrIdLabel</title>
<ellipse fill="#f4f2fd" stroke="black" cx="512" cy="-18" rx="27" ry="18"/>
<text text-anchor="start" x="506" y="-15.3" font-family="Source Sans Pro" text-decoration="underline" font-size="14.00">id</text>
</g>
<!-- Label&#45;&gt;attrIdLabel -->
<g id="edge6" class="edge"><title>Label&#45;&gt;attrIdLabel</title>
<path fill="none" stroke="black" d="M541.36,-71.6966C535.134,-60.5224 527.089,-46.0824 520.995,-35.1446"/>
</g>
<!-- attrNameLabel -->
<g id="node8" class="node"><title>attrNameLabel</title>
<ellipse fill="#f4f2fd" stroke="black" cx="589" cy="-18" rx="32.4942" ry="18"/>
<text text-anchor="middle" x="589" y="-14.3" font-family="Source Sans Pro" font-size="14.00">name</text>
</g>
<!-- Label&#45;&gt;attrNameLabel -->
<g id="edge3" class="edge"><title>Label&#45;&gt;attrNameLabel</title>
<path fill="none" stroke="black" d="M560.393,-71.6966C566.371,-60.6843 574.071,-46.5002 579.976,-35.6223"/>
</g>
<!-- Label&#45;&gt;Distribution -->
<g id="edge10" class="edge"><title>Label&#45;&gt;Distribution</title>
<path fill="none" stroke="black" d="M523.845,-90C518.042,-90 512.24,-90 506.438,-90"/>
<text text-anchor="middle" x="515.359" y="-94.7853" font-family="Source Sans Pro" font-size="14.00">1</text>
</g>
</g>
</svg>
