<svg xmlns="http://www.w3.org/2000/svg" xmlns:xlink="http://www.w3.org/1999/xlink" width="629pt" height="116pt" viewBox="0.00 0.00 629.50 116.00"><g id="graph0" class="graph" transform="scale(1 1) rotate(0) translate(4 112)"><title>ER</title><g id="node1" class="node"><title>Artist</title><polygon fill="#c4e2fd" stroke="black" points="92,-108 81.26402172730305,-106.85104217485059 70.82456207820215,-107.49479338817764 60.2562494080281,-106.58618990017567 48.85043917451986,-107.49030831770506 38.437396179069765,-107.16057950758841 39.02477970614564,-94.6183048003586 38.17027318151668,-82.7383465646999 39.460331957321614,-71.72953991463874 48.857165707694364,-71.97873618279118 60.48983174436725,-70.9689945364371 71.54289574883877,-71.16800802655052 82.21250458601861,-71.31356738309842 93.37032805755734,-71.52175678918138 92.78652616974432,-82.65348465519492 92.32485469325911,-94.54816128651146 93.41070779471193,-106.85434085328598" ></polygon><text text-anchor="middle" x="65" y="-86.3" font-family="Source Sans Pro" font-size="14.00">Artist</text></g><g id="node4" class="node"><title>attrIdArtist</title><ellipse fill="#f4f2fd" stroke="black" cx="27" cy="-18" rx="27" ry="18"></ellipse><text text-anchor="start" x="21" y="-15.3" font-family="Source Sans Pro" text-decoration="underline" font-size="14.00">id</text></g><g id="edge5" class="edge"><title>Artist-&gt;attrIdArtist</title><polyline fill="none" stroke="black" points="55.6067,-71.6966 50.910706383163856,-59.69526331800278 42.29002988037244,-45.69768567946516 36.14976194538251,-34.54607112647537" ></polyline></g><g id="node7" class="node"><title>attrNameArtist</title><ellipse fill="#f4f2fd" stroke="black" cx="104" cy="-18" rx="32.4942" ry="18"></ellipse><text text-anchor="middle" x="104" y="-14.3" font-family="Source Sans Pro" font-size="14.00">name</text></g><g id="edge1" class="edge"><title>Artist-&gt;attrNameArtist</title><polyline fill="none" stroke="black" points="74.6405,-71.6966 81.30578431497942,-60.61768906997815 89.70538792761657,-46.21440095395297 95.16849181632139,-35.12967543264404" ></polyline></g><g id="node10" class="node"><title>Authorship</title><polygon fill="#a4a2fd" stroke="black" points="184,-108 174.09031024920355,-105.38623335997441 164.1805326829538,-102.76993097386523 153.08979347987767,-100.2551779102401 142.13984696515638,-97.41089427374703 132.495484563083,-94.22850158323335 121.72988772262755,-91.11188477878127 111.54358448862564,-89.64836712554097 122.15917431538392,-86.0112310174653 132.20947710590303,-84.49732123173973 143.40532719956045,-81.64904885428093 153.80757927509688,-79.66483942648796 163.7245797351109,-76.43144618733122 173.92689259066776,-73.46089772106748 184.64737667771988,-71.12448002037127 195.79133090765148,-74.22459117516077 205.11965647220012,-75.67925711187334 215.99141137465634,-78.33879182833645 226.71837009249919,-81.49252245497024 236.94958626371474,-84.7999490840427 247.52615988290933,-86.31246362410351 258.4142556674173,-89.83869093528483 248.40270520398926,-91.66509260511624 236.98007576479245,-94.37283059129757 226.833477576079,-96.25037039137844 215.96011296020157,-99.03542257534406 205.86470115879885,-102.19524138232892 195.94735291092127,-104.44218986661039 184.57951639709063,-106.73688551760279" ></polygon><text text-anchor="middle" x="184" y="-86.3" font-family="Source Sans Pro" font-size="14.00">Authorship</text></g><g id="edge7" class="edge"><title>Artist-&gt;Authorship</title><polyline fill="none" stroke="black" points="92.4258,-90 99.37164503241182,-89.56136068480555 105.10431494647636,-88.79661017353646 111.26411126671732,-89.10029964940622" ></polyline><text text-anchor="middle" x="100.911" y="-94.7853" font-family="Source Sans Pro" font-size="14.00">1</text></g><g id="node2" class="node"><title>Album</title><polygon fill="#c4e2fd" stroke="black" points="330,-108 319.84985595596953,-107.61367648886517 309.189721179055,-107.40440388978459 299.0061342644272,-107.12470018782187 287.1640420316951,-106.68001481727697 276.41952175833285,-106.7360120730009 276.1216363767162,-95.70288668142166 276.4540200792253,-83.61778476589825 276.36720008275006,-70.86665049148723 287.86433279486374,-71.43685496784747 297.8226866644342,-70.94019688968547 309.50317096975635,-71.64939773431979 319.843076386652,-70.91623594332486 331.2884452342987,-71.54716890770942 330.1959047728451,-82.79906779329758 330.1433904172154,-95.17996461794246 330.9090612625005,-106.60312468127813" ></polygon><text text-anchor="middle" x="303" y="-86.3" font-family="Source Sans Pro" font-size="14.00">Album</text></g><g id="node6" class="node"><title>attrId</title><ellipse fill="#f4f2fd" stroke="black" cx="267" cy="-18" rx="27" ry="18"></ellipse><text text-anchor="start" x="261" y="-15.3" font-family="Source Sans Pro" text-decoration="underline" font-size="14.00">id</text></g><g id="edge4" class="edge"><title>Album-&gt;attrId</title><polyline fill="none" stroke="black" points="294.101,-71.6966 289.09527222108653,-60.27954496988803 281.10254963515047,-45.96403007888943 276.28803847408574,-33.77591212163716" ></polyline></g><g id="node9" class="node"><title>attrTitle</title><ellipse fill="#f4f2fd" stroke="black" cx="339" cy="-18" rx="27" ry="18"></ellipse><text text-anchor="middle" x="339" y="-14.3" font-family="Source Sans Pro" font-size="14.00">title</text></g><g id="edge2" class="edge"><title>Album-&gt;attrTitle</title><polyline fill="none" stroke="black" points="311.899,-71.6966 318.4938486525128,-59.96472740171719 325.60606261478085,-45.5076968566725 332.17414701341465,-34.747780484264155" ></polyline></g><g id="edge8" class="edge"><title>Album-&gt;Authorship</title><polyline fill="none" stroke="black" points="275.876,-90 271.32167038776726,-89.07495639729314 264.01138787905313,-88.5164004539838 259.0536927071773,-89.59989913122263" ></polyline><text text-anchor="middle" x="267.39" y="-94.7853" font-family="Source Sans Pro" font-size="14.00">n</text></g><g id="node11" class="node"><title>Distribution</title><polygon fill="#a4a2fd" stroke="black" points="427,-108 417.46841983295974,-104.70218966365792 408.12476083979004,-103.28314022999257 398.25957920893086,-100.04685380263254 388.82451345502386,-97.84172203321941 378.308336626808,-96.07433434249833 368.5180891369607,-93.14769631018862 359.03777346818686,-90.88415236270521 348.6530657539563,-88.7015134531539 358.9035347512737,-87.2316911034286 367.9861959151831,-84.8209062841488 378.6863216205501,-82.30855309416074 387.8657433210035,-80.8254976311 398.17926637585754,-78.13139265077189 408.2961597521139,-75.88600803399459 417.38619736241196,-73.8808575620642 427.18060280394275,-70.90097334317397 437.3016278102622,-73.79565973486751 446.96575941815513,-76.45322569599375 456.8063498558291,-78.154752059374 467.5863384156396,-79.80367302359082 477.86220540064403,-82.49451079918072 486.3431323587058,-85.27583657135256 496.5301472805396,-86.77852376864757 506.21673735070976,-89.63266109407414 496.7458447327325,-91.69983387656976 486.41293079937805,-93.08945397706702 477.31711906956036,-95.76570444123354 466.9209179936581,-98.36638068559114 456.816318132663,-100.56745431222953 448.25378712121847,-102.07659356575459 437.5743316951299,-105.19630535901524 427.6846568303881,-107.0317868613638" ></polygon><text text-anchor="middle" x="427" y="-86.3" font-family="Source Sans Pro" font-size="14.00">Distribution</text></g><g id="edge9" class="edge"><title>Album-&gt;Distribution</title><polyline fill="none" stroke="black" points="330.125,-90 337.2631244130861,-88.90688215219416 342.7098412393062,-89.08032803109381 348.7632209965158,-88.74511443602387" ></polyline><text text-anchor="middle" x="338.61" y="-94.7853" font-family="Source Sans Pro" font-size="14.00">n</text></g><g id="node3" class="node"><title>Label</title><polygon fill="#c4e2fd" stroke="black" points="578,-108 568.1964426418301,-107.39434164902195 556.43954358364,-107.64544449385721 546.4303758562544,-106.50423361756839 535.1837478720818,-106.69703881535679 524.8955255156616,-107.36056622152682 524.1185320700752,-94.99836520152166 524.970009027049,-83.10242011130322 525.2758147249697,-71.39440459851176 535.1783789075678,-71.92030660598539 546.7221336541929,-70.72501367563382 557.2111102068795,-71.22244725795463 567.3699113151988,-71.50734886166174 578.9408431968186,-71.98907084518578 578.6043325340142,-82.6666733060265 578.6618765470339,-94.84055934066419 578.5937021528371,-107.3314209363889" ></polygon><text text-anchor="middle" x="551" y="-86.3" font-family="Source Sans Pro" font-size="14.00">Label</text></g><g id="node5" class="node"><title>attrIdLabel</title><ellipse fill="#f4f2fd" stroke="black" cx="512" cy="-18" rx="27" ry="18"></ellipse><text text-anchor="start" x="506" y="-15.3" font-family="Source Sans Pro" text-decoration="underline" font-size="14.00">id</text></g><g id="edge6" class="edge"><title>Label-&gt;attrIdLabel</title><polyline fill="none" stroke="black" points="541.36,-71.6966 535.5034344609976,-59.78090631017238 528.1759164569304,-44.81785797751285 522.204423133987,-34.60519385768603" ></polyline></g><g id="node8" class="node"><title>attrNameLabel</title><ellipse fill="#f4f2fd" stroke="black" cx="589" cy="-18" rx="32.4942" ry="18"></ellipse><text text-anchor="middle" x="589" y="-14.3" font-family="Source Sans Pro" font-size="14.00">name</text></g><g id="edge3" class="edge"><title>Label-&gt;attrNameLabel</title><polyline fill="none" stroke="black" points="560.393,-71.6966 567.6907197854752,-60.668613454362564 575.1157489010403,-45.49342624341585 580.6397986724963,-34.3880982702367" ></polyline></g><g id="edge10" class="edge"><title>Label-&gt;Distribution</title><polyline fill="none" stroke="black" points="523.845,-90 518.3420257330714,-89.33029362838715 513.2496448552795,-89.94247663300484 507.2654107807083,-89.32086297555361" ></polyline><text text-anchor="middle" x="515.359" y="-94.7853" font-family="Source Sans Pro" font-size="14.00">1</text></g></g></svg>