<svg xmlns="http://www.w3.org/2000/svg" xmlns:xlink="http://www.w3.org/1999/xlink" height="471px" style="width:449px;height:471px;" version="1.1" viewBox="0 0 449 471" width="449px"><defs></defs><g><polygon fill="#FFFFFF" height="222.8967" style="stroke: #000000; stroke-width: 1.2;" width="327.5" x="121" y="168.8275" points="121,168.8275 132.13058586861007,169.8823857913818 142.5323254179675,169.2508341377694 152.4004565126961,169.96852738385553 162.25109105266165,169.68721857747062 173.20439345680643,170.19857408465816 183.09794856922235,169.21147588045335 193.34912509238347,168.84259899832307 203.52205882407725,169.62423042020293 214.0549297669204,169.52025613175704 224.59367090160958,170.22983179030473 233.62955914624035,169.49168377554508 244.29934081737883,170.08514201395212 255.37633783149067,169.3398952302383 265.7660550005967,169.45295567564665 274.652484642691,168.87712696391156 285.4647771533346,169.7359361635614 295.71011341153644,169.2303596143471 305.89261902170256,169.97210327487903 315.6373988396954,169.08037599803413 326.4600171080092,169.5555685851583 336.3800867649261,169.84761405560187 347.24758338427637,170.31477247188798 357.8314677912276,168.97450551284476 366.71351308817975,170.1781115952041 377.36084230127744,169.9726522951247 388.1347845388809,169.29183186775538 397.6183001458412,169.92291459823957 408.80489432031754,169.98354672580956 418.97455206199083,169.95829684390685 428.5117426024517,169.90284722751005 439.1453366143396,169.24660660546272 449.7147340422962,168.874675183543 448.855220951722,179.75918396545407 448.7902909858385,189.75465701068885 449.9497618339956,199.5858050476384 449.85979080281686,210.41349029454204 448.74986876081675,220.02613025254206 448.7373363309307,230.78235322410177 448.8679584200727,241.21607545408656 449.96201143192593,250.74564228628367 449.96207782498095,260.449689649729 449.97470380109735,271.34705531801296 449.5724787100917,280.7700582818597 449.2509968255181,291.7884766289345 449.97671400080435,300.8170191430875 449.44269205082674,312.1365959473419 448.98642047157045,320.8525637991103 449.2390837655403,332.1024837023032 449.8197719177697,342.0799136602082 449.9697723436402,352.334202893295 448.61806911905296,361.71416063251985 448.79565372294746,372.57618672810406 448.77025168330874,382.3407049485084 448.5604455177672,392.38928197330404 438.3492138402071,392.9924478647912 428.31783092359547,392.75097516732365 418.92912208184134,392.66164787643663 407.7609717345331,392.7779452913122 398.5660436414182,392.9846979665484 387.30142669624183,392.26174037083126 377.06424433528446,392.3039365977196 367.29984766687267,392.66244015767313 357.4068413602654,391.7930349007396 346.84640638076235,392.60075190506484 336.2860186622711,393.19523725525085 326.8424526199233,392.65642897697705 316.06819070247,391.85506283172015 306.6449505077908,392.8867037587946 295.5866586287739,392.6463580151934 285.1364740888821,392.47755755292326 274.87234916049056,392.95498316636383 265.5957111201715,393.01507567399256 254.80661351105664,391.96577734273467 244.88238755997736,391.8217757028209 233.60152204614133,392.003824946299 223.48785348492675,393.0836607011182 213.91826674027834,391.9082757847531 203.82146455789916,392.25535316224284 193.41268935531843,392.1880199912151 182.54359174042474,392.8955173202006 172.29905906890053,392.862910141764 162.4141902299598,392.88516801811363 152.89504044735804,393.03956025216337 142.34322404384147,392.2070038759297 131.9192626742879,392.2996513734719 122.22421706281602,393.1614118031606" ></polygon><polygon fill="#2C4870" height="37.9868" style="stroke: #2C4870; stroke-width: 1.0;" width="71" x="253.5" y="207.8967" points="253.5,207.8967 264.1023345936722,209.30898335082998 274.6328585880443,209.17347913103254 285.352593371811,209.17043787690886 294.76851393137736,208.14494754567818 304.2677387955733,208.55868660980445 315.72784409239637,208.97098984867876 324.64161111519206,208.40600233835244 325.44702916638926,220.99643811837015 325.1977685573511,234.70696710048986 325.1834093045909,246.91104491067028 314.62946896369766,246.6608534797598 305.43458231546845,247.30901448324232 295.15343511763155,247.111332108154 284.7076336221569,246.40454886982127 275.1098493780341,246.0402072060425 264.67302021607077,246.55577033118254 254.42999990168028,246.83639925276304" ></polygon><text fill="#FFFFFF" font-family="Outage-Cut" font-size="12" lengthAdjust="spacingAndGlyphs" textLength="57" x="260.5" y="223.8917">Related</text><text fill="#FFFFFF" font-family="Outage-Cut" font-size="12" lengthAdjust="spacingAndGlyphs" textLength="43" x="267.5" y="235.8851">Model</text><polyline style="stroke: #051A38; stroke-width: 2.0; stroke-dasharray: 5.0,5.0;" x1="36" x2="36" y1="41.9868" y2="470.3378" points="36,41.9868 37.19774283876177,53.675590994002796 36.665635203011334,62.6782008862904 37.02794856321998,73.7638889463285 37.005152164259925,84.18344948039814 37.32645971607417,93.05991311611132 36.177403248497285,103.42464666076026 37.42205724993255,114.878505790453 36.915162551100366,124.34532082589894 37.13746484799776,134.23218022365705 37.03999999654479,145.17948804292976 36.776697241002694,154.183134207718 36.28328453027643,165.62812819377265 36.09339403244667,175.6267142267829 36.056773058488034,185.4921473370613 36.62527832679916,196.09482454089755 37.00083293917123,205.47158670705616 37.00659837189596,215.52542203701006 37.218687771004625,226.4338737867254 36.407517338055186,236.25046155080167 37.02938744961284,246.1953520587692 36.58298580406699,256.944277118808 36.66589751257561,266.4995116113365 36.29723375639878,277.5819675644589 36.38632824271917,287.65089094317636 37.486160042812116,298.03531508537156 37.24914461129811,308.1337762552424 36.60864717385266,317.449855525342 36.92355770606082,328.97403315019096 36.39523689367343,339.1973724236738 37.22370707814116,348.04925585033664 36.58968517917674,359.3964344107904 36.59265862649772,369.5588035788096 36.20387536555063,379.567878047213 36.52986430807505,388.9295767211396 36.069849262945354,399.56439238808554 36.55668599449564,409.4580720493011 36.92151908541564,420.09573237911826 36.3068557275692,430.0563550170051 37.43995136220474,440.0262334168711 37.36148343491368,450.01575903863295 36.34931093605701,460.97693557899123 36.50207659683656,470.48412368134336" ></polyline><polyline style="stroke: #051A38; stroke-width: 2.0; stroke-dasharray: 5.0,5.0;" x1="159" x2="159" y1="41.9868" y2="470.3378" points="159,41.9868 159.9500335502671,52.5835250044973 160.18532094487455,63.139792506288615 159.066462285351,73.78359530848843 159.55290955281816,84.16429701884701 159.79392774158623,93.28253734235176 160.1977317732526,104.07789207920919 159.32997081521899,113.73338531442971 159.12432969140355,124.31997264417905 160.17716185050085,134.3018266623572 160.3177443766035,144.4970474750517 159.65394714928698,154.82498390109458 159.36508773523383,164.70141995208084 160.36034203099553,175.0255761429366 159.93670856254175,185.0767575049521 160.1605143758934,195.3608496082046 159.93255096743815,205.35060651391618 159.59329437324777,215.838640967397 159.6353194147814,226.2864076362637 159.88876800821163,237.09237354751644 159.5476762120379,246.29102795643732 159.4275806620717,256.9144754810588 159.32166419620626,266.8750894545025 160.18205779104028,276.83484787661206 159.12666725786403,287.5720800622844 159.66565478069242,297.06519873294195 160.33803160500247,307.1924990033143 159.41692326811608,317.72122597025447 159.53313908027485,328.06912326796214 159.31055520102382,339.05480852846785 159.15437297173776,348.88308955317655 160.42014477972407,358.5874117567096 159.4476995895384,368.87211176447454 159.12016164022498,378.8176585545056 159.8801130282227,389.9599724780809 159.4220693721436,399.4872804396876 159.85503473714925,410.05448021925054 159.5486991845537,420.12651587230647 159.25074889522512,429.60097187722624 159.36360835691448,440.4957688326304 160.07145935471635,451.24064382446113 159.42861870804336,460.2291473488012 159.0532889510505,471.0675762128292" ></polyline><polyline style="stroke: #051A38; stroke-width: 2.0; stroke-dasharray: 5.0,5.0;" x1="288.5" x2="288.5" y1="242.3901" y2="470.3378" points="288.5,242.3901 289.7108973846771,254.05479424877717 288.87656059651636,263.7830457910532 289.23627096787095,273.5539408859753 289.2360544615658,284.1260627878407 289.78840452514123,295.1057492534992 289.390487837838,305.80054689261425 289.26582299149595,315.4185481168166 289.4703654430341,326.22973954453295 289.87113593542017,337.13564152857384 289.4706928723026,347.41600994568813 288.5581324418308,357.53194332527426 288.767665091902,367.35571427927715 289.50295848364476,377.71975329298357 288.638775573927,387.6641327446303 289.9577193285804,398.747040407785 289.4302138329949,408.410326585305 289.7929818199482,419.46167473073615 289.51237926399335,430.1301628673073 289.25761927186977,440.1021975706275 288.66700643638615,450.21779007742015 289.8623485318385,460.4084854242974 289.9449094325537,471.6504348103397" ></polyline><polyline style="stroke: #051A38; stroke-width: 2.0; stroke-dasharray: 5.0,5.0;" x1="388.5" x2="388.5" y1="41.9868" y2="470.3378" points="388.5,41.9868 389.835885473527,52.76185089762186 388.9342291394714,62.88050905841763 389.0893151562195,73.33596484729946 388.5323035349138,83.27214884682982 389.9454814506462,94.1264100694795 389.1655079035554,103.90270720161985 389.07713455776684,113.65117711023015 389.8675103051355,124.18293435309633 389.8402259973809,134.56601624735282 389.3580115986988,144.6007818004364 388.76580703351647,154.22867276075476 389.3638764352072,165.4407484842113 389.69149665290024,175.93325143644364 389.80109888256993,185.0957583329854 388.7801332308445,195.27527593297725 389.7024396895431,205.57827904483642 388.5353264892474,216.23572842324057 388.962178070331,226.01722264652543 389.88280612626113,236.0855182248863 388.6565412073396,246.8289043689426 389.15779467264656,257.23705962466573 389.19896332151257,267.3939027834364 389.86627105192747,277.5901879860749 389.2430422223406,287.5893612580153 388.9040582778398,298.11937442904485 388.7028470663354,307.5926378735452 389.4706033015391,318.3268224823449 389.6255119041307,328.65024719149574 388.85244404361583,338.4080037567325 389.41275454487186,348.24379706006323 389.73270372475963,359.6118862026729 389.1821137260413,368.7605610161263 388.8118169278605,380.01862001579633 388.8476530259941,388.7562824827427 389.7525690528564,400.03039151382137 389.923669344862,410.1755102595687 388.9249912924133,420.1571146210146 389.96178132493515,430.6007603317272 389.707599849673,440.2100648970864 389.3947277854895,450.9064848076191 389.34033498633653,461.3162286571614 389.61581898957957,470.5167586408995" ></polyline><polygon fill="#2C4870" height="37.9868" style="stroke: #2C4870; stroke-width: 1.0;" width="57" x="8" y="3" points="8,3 19.491920963604933,4.34782585920766 31.956193970702586,3.6827246689936146 42.756678057182576,3.3309828978963196 54.0184823349351,3.008880746550858 66.23263255367056,3.1453455928713083 65.31869776244275,16.774349098807264 65.17688338435255,28.774767702242485 66.25793476169929,41.670954138318265 54.6831228599418,41.23169766568877 43.1965862412937,42.29063641913068 31.045733347721402,42.3130425105786 19.94697603883688,42.021052741723324 9.148268631892279,41.298063214796784" ></polygon><text fill="#FFFFFF" font-family="Outage-Cut" font-size="12" lengthAdjust="spacingAndGlyphs" textLength="21" x="26" y="18.9951">API</text><text fill="#FFFFFF" font-family="Outage-Cut" font-size="12" lengthAdjust="spacingAndGlyphs" textLength="43" x="15" y="30.9885">Client</text><polygon fill="#2C4870" height="37.9868" style="stroke: #2C4870; stroke-width: 1.0;" width="57" x="131" y="3" points="131,3 143.16896455464885,4.279671283322386 154.69943104493433,3.2875996929360554 166.6956300595077,3.758382484316826 178.0501462497283,3.9921096463222057 188.25131689733826,4.432924885768443 189.02178427937906,17.146974614254262 188.20222339301836,29.70736114253023 188.6650064191781,41.69619351071138 177.78669348361436,41.08824091653638 165.99743806482292,41.07513598624915 155.02817861498332,41.682591471051055 143.1133032819256,42.24921851516534 131.22794952592812,41.15397862477526" ></polygon><text fill="#FFFFFF" font-family="Outage-Cut" font-size="12" lengthAdjust="spacingAndGlyphs" textLength="37" x="141" y="18.9951">Some</text><text fill="#FFFFFF" font-family="Outage-Cut" font-size="12" lengthAdjust="spacingAndGlyphs" textLength="43" x="138" y="30.9885">Model</text><polygon fill="#2C4870" height="25.9934" style="stroke: #2C4870; stroke-width: 1.0;" width="99" x="339.5" y="14.9934" points="339.5,14.9934 351.2332615328487,15.962065793188847 361.9759717618581,15.31470365842022 373.8351965963375,16.416673370135577 384.6715581364697,15.51377143218331 395.96458203694783,15.317272891603968 405.73933599633165,16.001342285737955 416.9885798600735,16.208841407170148 428.35918186500203,15.782528564530983 438.99616034468636,16.243714325792716 439.7763693066081,28.096915065606495 439.88781477021985,41.58847548467871 427.8419310069876,41.08847757084128 416.69177005439997,42.397127839199456 405.69620290317107,41.81591351229996 395.7551525771851,42.428968035078796 383.51823523896746,41.37204951273576 373.2202910238411,42.029323769428956 361.6712454763474,41.48744583285712 351.46443627472036,41.55408670583107 340.8891976396553,42.47559123677034" ></polygon><text fill="#FFFFFF" font-family="Outage-Cut" font-size="12" lengthAdjust="spacingAndGlyphs" textLength="85" x="346.5" y="30.9885">Datasource</text><polygon fill="#000000" style="stroke: #000000; stroke-width: 1.0;" points="147.5,75.9868 158.17193549545482,81.26554983975198 148.36578450212255,85.14344779872168 152.80359633942135,80.23716368845031" ></polygon><polyline style="stroke: #000000; stroke-width: 1.0;" x1="36.5" x2="153.5" y1="79.9868" y2="79.9868" points="36.5,79.9868 47.822671274897985,80.58408475951124 58.18827602118043,81.24668729810342 69.66100056111729,81.44778983997945 79.28079041505276,81.08962525920775 91.1155007919826,81.36107650357131 100.39459843357858,80.8705535873754 111.72946978228127,80.71919856073633 122.04515569944954,80.11552211949434 132.31787675349256,81.38572311929725 144.10771725803022,81.3515447541589 153.9392173839733,80.66269667602442" ></polyline><text fill="#000000" font-family="Source Sans Pro" font-size="18" font-weight="bold" lengthAdjust="spacingAndGlyphs" textLength="10" x="43.5" y="73.6891">1</text><text fill="#000000" font-family="Source Sans Pro" font-size="18" lengthAdjust="spacingAndGlyphs" textLength="85" x="57.5" y="73.6891">sift({...}, {...})</text><polygon fill="#000000" style="stroke: #000000; stroke-width: 1.0;" points="377,112.6004 387.38258833112195,117.63143446424938 378.416021071258,121.37063604360874 381.69333635503426,118.03160307906064" ></polygon><polyline style="stroke: #000000; stroke-width: 1.0;" x1="159.5" x2="383" y1="116.6004" y2="116.6004" points="159.5,116.6004 169.85194380375006,116.77219747042246 180.9892488226231,116.69764961151368 191.33840569141532,117.52161828580275 200.31197357982057,117.88840940152723 211.24495637607336,116.82089208381213 221.00394029654984,117.57389629795644 231.11323769226541,116.8025323184017 241.73384660868692,117.2478530508276 251.50427402759138,117.75401048863269 261.84082017602947,116.7670870904155 272.04802343808115,116.93621224072258 281.9681641439992,116.66669864755086 292.82576518954545,118.07615510479509 302.6388502189446,117.07181236974857 312.5698400712679,117.08692972548734 323.53097694511115,118.01163217844869 332.35096499901704,116.86391381500717 343.0191208367365,117.82949106896258 353.3815044632861,117.46514975128657 363.15260438638,117.71611672023273 374.17480237185134,117.21980194596536 383.6494082076242,118.06879715202804" ></polyline><text fill="#000000" font-family="Source Sans Pro" font-size="18" font-weight="bold" lengthAdjust="spacingAndGlyphs" textLength="10" x="166.5" y="110.3027">2</text><text fill="#000000" font-family="Source Sans Pro" font-size="18" lengthAdjust="spacingAndGlyphs" textLength="61" x="180.5" y="110.3027">find({...})</text><polygon fill="#000000" style="stroke: #000000; stroke-width: 1.0;" points="170.5,149.214 160.77593786094803,154.40246400419716 170.75809491390828,157.8524306239197 167.7855007436592,154.30937137905136" ></polygon><polyline style="stroke: #000000; stroke-width: 1.0; stroke-dasharray: 2.0,2.0;" x1="164.5" x2="388" y1="153.214" y2="153.214" points="164.5,153.214 175.34997246382673,154.0785407174481 186.02869635943154,153.95171182680502 195.7043986284195,153.24301638194453 206.19432167744856,153.83729600355588 215.52351264671464,153.76873314970732 226.58314862342507,154.4064210297875 236.99891648964362,153.30753339660447 246.33961260902947,154.43546501019597 257.345792967879,153.30866033475473 267.38670555848245,153.86305360143166 277.30169623100664,153.84790852150041 287.2034798544218,154.06318277873658 296.9029632042565,153.2168311718488 308.0782925934553,154.7073420905145 317.16991241905976,153.82974848915916 327.37807860846686,153.36126233645342 338.52759367071997,154.45950682271365 347.70596076197813,154.5082775633419 357.59077063577524,154.53707189400308 367.81821768526646,154.20206895501912 378.6001858970534,154.1187900272999 388.71014928771183,154.58490621504467" ></polyline><text fill="#000000" font-family="Source Sans Pro" font-size="18" font-weight="bold" lengthAdjust="spacingAndGlyphs" textLength="10" x="176.5" y="146.9162">3</text><text fill="#000000" font-family="Source Sans Pro" font-size="18" lengthAdjust="spacingAndGlyphs" textLength="62" x="190.5" y="146.9162">[results]</text><polygon fill="none" height="222.8967" style="stroke: #000000; stroke-width: 1.2;" width="327.5" x="121" y="168.8275" points="121,168.8275 131.5359954254236,169.5093118430674 141.78334874671418,169.7185298735136 151.77389112510718,169.64783030735327 162.19135063979775,169.1073040609341 172.26808228413574,169.37309549817348 183.84167157532647,169.9116944516869 192.9878665538272,170.30229407070203 204.20383452961687,169.84476152177433 213.8560050544329,169.53162127231246 224.13789502566215,169.65657978107686 234.58509176108055,170.14602664356119 244.99777032237034,169.0107495627459 255.24062653572764,169.88777849728706 265.31773454812355,169.6463619383145 275.6240262518404,170.20147938536013 285.3721561705461,169.5088350028824 295.7210154676577,169.5133557233354 306.69632157252636,169.59570712536572 316.93542329850607,169.12920029308646 326.55065843544435,170.25783232749438 336.97981444827747,169.83633761199656 346.46432962687686,169.19642649007494 356.95411673316266,169.04896656038238 366.8131685856497,169.98098948887548 378.02753854356706,169.2852185412636 388.5687904591905,170.2261353476066 398.5010022157803,168.8635113577917 409.0213188547641,170.02429738942067 418.5937089342624,168.98765100455842 428.2301180466311,169.18285936418454 438.5834133545868,169.99038413444998 449.81281766959,168.88717192922252 449.20218320167623,178.98702690873128 449.917381041334,190.34554155045322 449.3505279488163,200.03167449122728 448.99616168334614,210.61000287655543 448.7308038021438,219.82278564726104 448.53673321253154,230.13923325574427 448.5001169593306,240.4560790430452 449.9349848886486,250.6686225569814 448.80681100382935,261.21087517797383 448.9544043238275,270.2898031882403 449.0566938651027,280.87173456258637 449.20676925661974,291.0303642531936 449.37796917243395,300.970591805821 449.320168066537,311.13519294795105 449.1420815787278,321.759923488468 449.9152937148465,332.39129398094144 449.12571127410047,341.2345121144545 448.7538122185506,352.3853712773255 449.6098123721313,361.3904893525791 449.53349407576025,372.35726310373195 449.74690698680934,382.9905985235071 449.79326153034344,391.9250243279997 438.42266665934585,392.6354349397037 429.44974584912416,392.442955361042 418.47450652113184,392.04692142067086 409.03895679756533,393.17148659198153 397.9335195001913,391.8483502404446 387.60381772450637,393.19733652036246 377.0204831986921,392.528764280319 367.5713362421375,391.86267576093394 357.32838924159296,392.92670268653035 346.4782279636711,392.1394930256678 337.06661874160636,392.81339690875336 325.9176910633687,391.78578978899475 315.6093841101974,392.06620211276766 306.43590083380695,391.99360593740437 295.49162607325707,391.9784116679251 285.54644443735015,392.1095793281596 274.9260469088331,391.9868301385462 265.41507008706685,392.42590964929275 255.11676885653287,391.94836815918404 244.83551742113195,392.6607509771742 234.15225827274844,391.99522868817746 224.47396112035494,391.7257374121722 214.0694866066333,392.1588218613209 202.99210019409657,392.5836970877748 192.905013499083,391.7574657487597 183.59424028382637,392.662061382612 172.31381233537104,391.97340362152624 162.25785389658995,392.5773633326784 151.71275222906843,392.7819776541468 142.19799313496333,392.7199340657711 132.40251941781025,392.1385414219143 121.54523663502187,392.644372478538" ></polygon><polygon fill="#F1E4CD" style="stroke: #000000; stroke-width: 1.2;" points="121,168.8275 131.71813941153232,169.00096693528815 142.87199708167464,169.28979672105982 151.8159057769226,169.04301025111693 162.34336940723006,169.32140192225108 173.02296326763462,168.87534253216347 182.70121817861218,169.65737426186445 194.12476529635023,169.90393203856422 204.43409320397768,170.12265559633727 204.462670269073,172.61259146627037 193.03157025389373,182.6208792141266 183.24011760748857,182.40443476916755 173.43282226093913,181.96846611307467 162.66532901990496,181.97453529444522 152.51834381300228,182.69302149266935 142.51876381244182,183.2277514965832 132.70057356407472,183.0656164113758 121.57391419704072,182.5547504349239 121.95997749269009,168.8984071132587" ></polygon><text fill="#000000" font-family="Outage-Cut" font-size="12" font-weight="bold" lengthAdjust="spacingAndGlyphs" textLength="37" x="136" y="178.8226">loop</text><text fill="#666666" font-family="Source Sans Pro" font-size="12" font-style="italic" font-weight="bold" lengthAdjust="spacingAndGlyphs" textLength="176" x="218" y="182.629">[for every relation being included]</text><polygon fill="#000000" style="stroke: #000000; stroke-width: 1.0;" points="241.5,231.8967 251.8153423992917,236.32522666950786 242.6684551629005,241.0197450932635 245.58149266277906,236.82493291791138" ></polygon><polyline style="stroke: #000000; stroke-width: 1.0;" x1="159.5" x2="247.5" y1="235.8967" y2="235.8967" points="159.5,235.8967 171.01447835948784,237.3244423724998 182.3298585388111,236.10890414456912 193.62851730396505,236.84418970516958 204.86131424934138,237.35321909697336 215.2940073487116,235.95673727682401 226.66222297097556,237.1710519791402 237.76725254557095,236.76588300762774 248.64190274931025,236.939190785243" ></polyline><text fill="#000000" font-family="Source Sans Pro" font-size="18" font-weight="bold" lengthAdjust="spacingAndGlyphs" textLength="10" x="166.5" y="229.5989">4</text><text fill="#000000" font-family="Source Sans Pro" font-size="18" lengthAdjust="spacingAndGlyphs" textLength="56" x="180.5" y="229.5989">include</text><polygon fill="#2C4870" height="37.9868" style="stroke: #2C4870; stroke-width: 1.0;" width="71" x="253.5" y="207.8967" points="253.5,207.8967 265.0174179920162,208.31757971779984 273.91247376581725,208.90082758102176 284.8823000503971,209.38377113193815 295.1730143912803,208.39035928187036 305.56911659505164,207.9416437092757 314.80886381141124,208.52947415558697 325.9083019827958,208.9862535342861 325.4054994052276,220.65286113994372 325.5376762312371,234.2332690555956 325.57684581086505,247.14593604661434 315.0977984788894,246.94716498314313 304.7018609526234,246.95663339330724 295.42372807378075,246.7810579054095 284.89688078167705,246.21456688910632 274.46812738854027,246.8484127929006 263.92630801863754,246.2031680347901 253.98238487855997,246.0749511418436" ></polygon><text fill="#FFFFFF" font-family="Outage-Cut" font-size="12" lengthAdjust="spacingAndGlyphs" textLength="57" x="260.5" y="223.8917">Related</text><text fill="#FFFFFF" font-family="Outage-Cut" font-size="12" lengthAdjust="spacingAndGlyphs" textLength="43" x="267.5" y="235.8851">Model</text><polygon fill="#000000" style="stroke: #000000; stroke-width: 1.0;" points="377,280.8835 387.237641639309,285.31711669371373 377.1733573761303,290.0952990078405 382.157312175259,286.2498312486606" ></polygon><polyline style="stroke: #000000; stroke-width: 1.0;" x1="289" x2="383" y1="284.8835" y2="284.8835" points="289,284.8835 299.8342767896312,284.9221183954543 310.1771024766042,285.2845194935836 320.4602445283284,285.35820325371253 332.1704182656508,285.66059012804556 342.2986529235237,285.7404939899026 351.80084706439334,286.2139699363653 362.47205915393886,286.1177280147132 373.1849430964148,285.4313345570155 383.0241685664514,285.405255930502" ></polyline><text fill="#000000" font-family="Source Sans Pro" font-size="18" font-weight="bold" lengthAdjust="spacingAndGlyphs" textLength="10" x="296" y="278.5857">5</text><text fill="#000000" font-family="Source Sans Pro" font-size="18" lengthAdjust="spacingAndGlyphs" textLength="61" x="310" y="278.5857">find({...})</text><polygon fill="#000000" style="stroke: #000000; stroke-width: 1.0;" points="300,317.497 290.40933335071895,321.9014652915327 300.9739941379521,326.03553984398303 296.57332893135026,322.2149515560856" ></polygon><polyline style="stroke: #000000; stroke-width: 1.0; stroke-dasharray: 2.0,2.0;" x1="294" x2="388" y1="321.497" y2="321.497" points="294,321.497 305.44596852077586,322.0685619318653 315.0456457615494,321.645461249657 325.97971647159045,321.9501996805454 336.39982251930314,322.86161848707405 347.4269411768506,322.55312889048645 357.5995165261363,322.7270653454149 367.7911712394433,322.2038234777544 379.0269081058732,322.5236556860879 388.89481820492074,322.7675417140387" ></polyline><text fill="#000000" font-family="Source Sans Pro" font-size="18" font-weight="bold" lengthAdjust="spacingAndGlyphs" textLength="10" x="306" y="315.1993">6</text><text fill="#000000" font-family="Source Sans Pro" font-size="18" lengthAdjust="spacingAndGlyphs" textLength="62" x="320" y="315.1993">[results]</text><polygon fill="#000000" style="stroke: #000000; stroke-width: 1.0;" points="170.5,354.1106 161.7771581041161,358.7538765255449 171.05273224937264,363.45081273406686 166.86253269016743,359.3220123048959" ></polygon><polyline style="stroke: #000000; stroke-width: 1.0; stroke-dasharray: 2.0,2.0;" x1="164.5" x2="288" y1="358.1106" y2="358.1106" points="164.5,358.1106 174.9855560363891,359.20492624862527 185.99089593215223,358.2591311295837 195.96596228121777,358.48017890039773 206.27553439668065,358.752029273528 217.40061575589542,358.5233520730253 226.89613738958718,359.0097692868294 236.61555823722537,358.4695062915416 248.08120140347933,358.69310053133813 258.10766853741364,359.1015591441974 267.905687434754,358.16217118616623 279.0972904155108,358.33077991764003 288.89285884669516,358.16929009403975" ></polyline><text fill="#000000" font-family="Source Sans Pro" font-size="18" font-weight="bold" lengthAdjust="spacingAndGlyphs" textLength="10" x="176.5" y="351.8129">7</text><text fill="#000000" font-family="Source Sans Pro" font-size="18" lengthAdjust="spacingAndGlyphs" textLength="62" x="190.5" y="351.8129">[results]</text><polygon fill="#000000" style="stroke: #000000; stroke-width: 1.0;" points="47.5,422.7242 38.3416501278989,427.58683647826854 47.50006130000111,431.78689537331536 44.03884303837549,428.18668668583575" ></polygon><polyline style="stroke: #000000; stroke-width: 1.0; stroke-dasharray: 2.0,2.0;" x1="41.5" x2="158.5" y1="426.7242" y2="426.7242" points="41.5,426.7242 52.41199666286015,427.04628182208705 63.083727817887194,426.8137776062971 74.28781602546489,427.1271308797326 84.49942205163694,427.8101843735816 95.44761793274138,426.7680068602234 105.97413467377723,427.55899655510746 116.17931948842441,427.91206296481266 126.60540087797301,427.2736187520817 138.55675808163573,427.4544241825964 148.26643919792366,427.66127913032267 159.39501033141278,426.7714816256806" ></polyline><text fill="#000000" font-family="Source Sans Pro" font-size="18" font-weight="bold" lengthAdjust="spacingAndGlyphs" textLength="10" x="53.5" y="420.4265">8</text><text fill="#000000" font-family="Source Sans Pro" font-size="18" lengthAdjust="spacingAndGlyphs" textLength="62" x="67.5" y="420.4265">[results]</text></g></svg>