<?xml version="1.0" encoding="UTF-8" standalone="yes"?><svg xmlns="http://www.w3.org/2000/svg" xmlns:xlink="http://www.w3.org/1999/xlink" height="471px" style="width:449px;height:471px;" version="1.1" viewBox="0 0 449 471" width="449px"><defs/><g><rect fill="#FFFFFF" height="222.8967" style="stroke: #000000; stroke-width: 1.2;" width="327.5" x="121" y="168.8275"/><rect fill="#2C4870" height="37.9868" style="stroke: #2C4870; stroke-width: 1.0;" width="71" x="253.5" y="207.8967"/><text fill="#FFFFFF" font-family="Outage-Cut" font-size="12" lengthAdjust="spacingAndGlyphs" textLength="57" x="260.5" y="223.8917">Related</text><text fill="#FFFFFF" font-family="Outage-Cut" font-size="12" lengthAdjust="spacingAndGlyphs" textLength="43" x="267.5" y="235.8851">Model</text><line style="stroke: #051A38; stroke-width: 2.0; stroke-dasharray: 5.0,5.0;" x1="36" x2="36" y1="41.9868" y2="470.3378"/><line style="stroke: #051A38; stroke-width: 2.0; stroke-dasharray: 5.0,5.0;" x1="159" x2="159" y1="41.9868" y2="470.3378"/><line style="stroke: #051A38; stroke-width: 2.0; stroke-dasharray: 5.0,5.0;" x1="288.5" x2="288.5" y1="242.3901" y2="470.3378"/><line style="stroke: #051A38; stroke-width: 2.0; stroke-dasharray: 5.0,5.0;" x1="388.5" x2="388.5" y1="41.9868" y2="470.3378"/><rect fill="#2C4870" height="37.9868" style="stroke: #2C4870; stroke-width: 1.0;" width="57" x="8" y="3"/><text fill="#FFFFFF" font-family="Outage-Cut" font-size="12" lengthAdjust="spacingAndGlyphs" textLength="21" x="26" y="18.9951">API</text><text fill="#FFFFFF" font-family="Outage-Cut" font-size="12" lengthAdjust="spacingAndGlyphs" textLength="43" x="15" y="30.9885">Client</text><rect fill="#2C4870" height="37.9868" style="stroke: #2C4870; stroke-width: 1.0;" width="57" x="131" y="3"/><text fill="#FFFFFF" font-family="Outage-Cut" font-size="12" lengthAdjust="spacingAndGlyphs" textLength="37" x="141" y="18.9951">Some</text><text fill="#FFFFFF" font-family="Outage-Cut" font-size="12" lengthAdjust="spacingAndGlyphs" textLength="43" x="138" y="30.9885">Model</text><rect fill="#2C4870" height="25.9934" style="stroke: #2C4870; stroke-width: 1.0;" width="99" x="339.5" y="14.9934"/><text fill="#FFFFFF" font-family="Outage-Cut" font-size="12" lengthAdjust="spacingAndGlyphs" textLength="85" x="346.5" y="30.9885">Datasource</text><polygon fill="#000000" points="147.5,75.9868,157.5,79.9868,147.5,83.9868,151.5,79.9868" style="stroke: #000000; stroke-width: 1.0;"/><line style="stroke: #000000; stroke-width: 1.0;" x1="36.5" x2="153.5" y1="79.9868" y2="79.9868"/><text fill="#000000" font-family="Source Sans Pro" font-size="18" font-weight="bold" lengthAdjust="spacingAndGlyphs" textLength="10" x="43.5" y="73.6891">1</text><text fill="#000000" font-family="Source Sans Pro" font-size="18" lengthAdjust="spacingAndGlyphs" textLength="85" x="57.5" y="73.6891">sift({...}, {...})</text><polygon fill="#000000" points="377,112.6004,387,116.6004,377,120.6004,381,116.6004" style="stroke: #000000; stroke-width: 1.0;"/><line style="stroke: #000000; stroke-width: 1.0;" x1="159.5" x2="383" y1="116.6004" y2="116.6004"/><text fill="#000000" font-family="Source Sans Pro" font-size="18" font-weight="bold" lengthAdjust="spacingAndGlyphs" textLength="10" x="166.5" y="110.3027">2</text><text fill="#000000" font-family="Source Sans Pro" font-size="18" lengthAdjust="spacingAndGlyphs" textLength="61" x="180.5" y="110.3027">find({...})</text><polygon fill="#000000" points="170.5,149.214,160.5,153.214,170.5,157.214,166.5,153.214" style="stroke: #000000; stroke-width: 1.0;"/><line style="stroke: #000000; stroke-width: 1.0; stroke-dasharray: 2.0,2.0;" x1="164.5" x2="388" y1="153.214" y2="153.214"/><text fill="#000000" font-family="Source Sans Pro" font-size="18" font-weight="bold" lengthAdjust="spacingAndGlyphs" textLength="10" x="176.5" y="146.9162">3</text><text fill="#000000" font-family="Source Sans Pro" font-size="18" lengthAdjust="spacingAndGlyphs" textLength="62" x="190.5" y="146.9162">[results]</text><rect fill="none" height="222.8967" style="stroke: #000000; stroke-width: 1.2;" width="327.5" x="121" y="168.8275"/><polygon fill="#F1E4CD" points="121,168.8275,203,168.8275,203,171.8275,193,181.8275,121,181.8275,121,168.8275" style="stroke: #000000; stroke-width: 1.2;"/><text fill="#000000" font-family="Outage-Cut" font-size="12" font-weight="bold" lengthAdjust="spacingAndGlyphs" textLength="37" x="136" y="178.8226">loop</text><text fill="#666666" font-family="Source Sans Pro" font-size="12" font-style="italic" font-weight="bold" lengthAdjust="spacingAndGlyphs" textLength="176" x="218" y="182.629">[for every relation being included]</text><polygon fill="#000000" points="241.5,231.8967,251.5,235.8967,241.5,239.8967,245.5,235.8967" style="stroke: #000000; stroke-width: 1.0;"/><line style="stroke: #000000; stroke-width: 1.0;" x1="159.5" x2="247.5" y1="235.8967" y2="235.8967"/><text fill="#000000" font-family="Source Sans Pro" font-size="18" font-weight="bold" lengthAdjust="spacingAndGlyphs" textLength="10" x="166.5" y="229.5989">4</text><text fill="#000000" font-family="Source Sans Pro" font-size="18" lengthAdjust="spacingAndGlyphs" textLength="56" x="180.5" y="229.5989">include</text><rect fill="#2C4870" height="37.9868" style="stroke: #2C4870; stroke-width: 1.0;" width="71" x="253.5" y="207.8967"/><text fill="#FFFFFF" font-family="Outage-Cut" font-size="12" lengthAdjust="spacingAndGlyphs" textLength="57" x="260.5" y="223.8917">Related</text><text fill="#FFFFFF" font-family="Outage-Cut" font-size="12" lengthAdjust="spacingAndGlyphs" textLength="43" x="267.5" y="235.8851">Model</text><polygon fill="#000000" points="377,280.8835,387,284.8835,377,288.8835,381,284.8835" style="stroke: #000000; stroke-width: 1.0;"/><line style="stroke: #000000; stroke-width: 1.0;" x1="289" x2="383" y1="284.8835" y2="284.8835"/><text fill="#000000" font-family="Source Sans Pro" font-size="18" font-weight="bold" lengthAdjust="spacingAndGlyphs" textLength="10" x="296" y="278.5857">5</text><text fill="#000000" font-family="Source Sans Pro" font-size="18" lengthAdjust="spacingAndGlyphs" textLength="61" x="310" y="278.5857">find({...})</text><polygon fill="#000000" points="300,317.497,290,321.497,300,325.497,296,321.497" style="stroke: #000000; stroke-width: 1.0;"/><line style="stroke: #000000; stroke-width: 1.0; stroke-dasharray: 2.0,2.0;" x1="294" x2="388" y1="321.497" y2="321.497"/><text fill="#000000" font-family="Source Sans Pro" font-size="18" font-weight="bold" lengthAdjust="spacingAndGlyphs" textLength="10" x="306" y="315.1993">6</text><text fill="#000000" font-family="Source Sans Pro" font-size="18" lengthAdjust="spacingAndGlyphs" textLength="62" x="320" y="315.1993">[results]</text><polygon fill="#000000" points="170.5,354.1106,160.5,358.1106,170.5,362.1106,166.5,358.1106" style="stroke: #000000; stroke-width: 1.0;"/><line style="stroke: #000000; stroke-width: 1.0; stroke-dasharray: 2.0,2.0;" x1="164.5" x2="288" y1="358.1106" y2="358.1106"/><text fill="#000000" font-family="Source Sans Pro" font-size="18" font-weight="bold" lengthAdjust="spacingAndGlyphs" textLength="10" x="176.5" y="351.8129">7</text><text fill="#000000" font-family="Source Sans Pro" font-size="18" lengthAdjust="spacingAndGlyphs" textLength="62" x="190.5" y="351.8129">[results]</text><polygon fill="#000000" points="47.5,422.7242,37.5,426.7242,47.5,430.7242,43.5,426.7242" style="stroke: #000000; stroke-width: 1.0;"/><line style="stroke: #000000; stroke-width: 1.0; stroke-dasharray: 2.0,2.0;" x1="41.5" x2="158.5" y1="426.7242" y2="426.7242"/><text fill="#000000" font-family="Source Sans Pro" font-size="18" font-weight="bold" lengthAdjust="spacingAndGlyphs" textLength="10" x="53.5" y="420.4265">8</text><text fill="#000000" font-family="Source Sans Pro" font-size="18" lengthAdjust="spacingAndGlyphs" textLength="62" x="67.5" y="420.4265">[results]</text></g></svg>