<?xml version="1.0" encoding="UTF-8" standalone="yes"?><svg xmlns="http://www.w3.org/2000/svg" xmlns:xlink="http://www.w3.org/1999/xlink" height="650px" style="width:482px;height:650px;" version="1.1" viewBox="0 0 482 650" width="482px"><defs/><g><rect fill="#FFFFFF" height="222.8967" style="stroke: #000000; stroke-width: 1.2;" width="327.5" x="144" y="211.9032"/><rect fill="#2C4870" height="37.9868" style="stroke: #2C4870; stroke-width: 1.0;" width="71" x="276.5" y="250.9724"/><text fill="#FFFFFF" font-family="Outage-Cut" font-size="12" lengthAdjust="spacingAndGlyphs" textLength="57" x="283.5" y="266.9674">Related</text><text fill="#FFFFFF" font-family="Outage-Cut" font-size="12" lengthAdjust="spacingAndGlyphs" textLength="43" x="290.5" y="278.9608">Model</text><line style="stroke: #051A38; stroke-width: 2.0; stroke-dasharray: 5.0,5.0;" x1="36" x2="36" y1="41.9868" y2="649.1785"/><line style="stroke: #051A38; stroke-width: 2.0; stroke-dasharray: 5.0,5.0;" x1="182" x2="182" y1="41.9868" y2="649.1785"/><line style="stroke: #051A38; stroke-width: 2.0; stroke-dasharray: 5.0,5.0;" x1="311.5" x2="311.5" y1="285.4658" y2="649.1785"/><line style="stroke: #051A38; stroke-width: 2.0; stroke-dasharray: 5.0,5.0;" x1="411.5" x2="411.5" y1="41.9868" y2="649.1785"/><rect fill="#2C4870" height="37.9868" style="stroke: #2C4870; stroke-width: 1.0;" width="57" x="8" y="3"/><text fill="#FFFFFF" font-family="Outage-Cut" font-size="12" lengthAdjust="spacingAndGlyphs" textLength="21" x="26" y="18.9951">API</text><text fill="#FFFFFF" font-family="Outage-Cut" font-size="12" lengthAdjust="spacingAndGlyphs" textLength="43" x="15" y="30.9885">Client</text><rect fill="#2C4870" height="37.9868" style="stroke: #2C4870; stroke-width: 1.0;" width="57" x="154" y="3"/><text fill="#FFFFFF" font-family="Outage-Cut" font-size="12" lengthAdjust="spacingAndGlyphs" textLength="37" x="164" y="18.9951">Some</text><text fill="#FFFFFF" font-family="Outage-Cut" font-size="12" lengthAdjust="spacingAndGlyphs" textLength="43" x="161" y="30.9885">Model</text><rect fill="#2C4870" height="25.9934" style="stroke: #2C4870; stroke-width: 1.0;" width="99" x="362.5" y="14.9934"/><text fill="#FFFFFF" font-family="Outage-Cut" font-size="12" lengthAdjust="spacingAndGlyphs" textLength="85" x="369.5" y="30.9885">Datasource</text><polygon fill="#000000" points="170.5,75.9868,180.5,79.9868,170.5,83.9868,174.5,79.9868" style="stroke: #000000; stroke-width: 1.0;"/><line style="stroke: #000000; stroke-width: 1.0;" x1="36.5" x2="176.5" y1="79.9868" y2="79.9868"/><text fill="#000000" font-family="Source Sans Pro" font-size="18" font-weight="bold" lengthAdjust="spacingAndGlyphs" textLength="10" x="43.5" y="73.6891">1</text><text fill="#000000" font-family="Source Sans Pro" font-size="18" lengthAdjust="spacingAndGlyphs" textLength="85" x="57.5" y="73.6891">sift({...}, {...})</text><rect fill="#C05E00" height="3" style="stroke: #C05E00; stroke-width: 1.0;" width="478.5" x="3" y="109.1382"/><line style="stroke: #FFBB7B; stroke-width: 0.0;" x1="3" x2="481.5" y1="109.1382" y2="109.1382"/><line style="stroke: #FFBB7B; stroke-width: 0.0;" x1="3" x2="481.5" y1="112.1382" y2="112.1382"/><rect fill="#C05E00" height="23.0757" style="stroke: #FFBB7B; stroke-width: 0.0;" width="187" x="148.75" y="98.6004"/><text fill="#FFFFFF" font-family="Source Sans Pro" font-size="12" font-weight="bold" lengthAdjust="spacingAndGlyphs" textLength="170" x="154.75" y="114.4019">gather all the data we'll need ...</text><polygon fill="#000000" points="400,155.6761,410,159.6761,400,163.6761,404,159.6761" style="stroke: #000000; stroke-width: 1.0;"/><line style="stroke: #000000; stroke-width: 1.0;" x1="182.5" x2="406" y1="159.6761" y2="159.6761"/><text fill="#000000" font-family="Source Sans Pro" font-size="18" font-weight="bold" lengthAdjust="spacingAndGlyphs" textLength="10" x="189.5" y="153.3784">2</text><text fill="#000000" font-family="Source Sans Pro" font-size="18" lengthAdjust="spacingAndGlyphs" textLength="61" x="203.5" y="153.3784">find({...})</text><polygon fill="#000000" points="193.5,192.2897,183.5,196.2897,193.5,200.2897,189.5,196.2897" style="stroke: #000000; stroke-width: 1.0;"/><line style="stroke: #000000; stroke-width: 1.0; stroke-dasharray: 2.0,2.0;" x1="187.5" x2="411" y1="196.2897" y2="196.2897"/><text fill="#000000" font-family="Source Sans Pro" font-size="18" font-weight="bold" lengthAdjust="spacingAndGlyphs" textLength="10" x="199.5" y="189.9919">3</text><text fill="#000000" font-family="Source Sans Pro" font-size="18" lengthAdjust="spacingAndGlyphs" textLength="62" x="213.5" y="189.9919">[results]</text><rect fill="none" height="222.8967" style="stroke: #000000; stroke-width: 1.2;" width="327.5" x="144" y="211.9032"/><polygon fill="#F1E4CD" points="144,211.9032,226,211.9032,226,214.9032,216,224.9032,144,224.9032,144,211.9032" style="stroke: #000000; stroke-width: 1.2;"/><text fill="#000000" font-family="Outage-Cut" font-size="12" font-weight="bold" lengthAdjust="spacingAndGlyphs" textLength="37" x="159" y="221.8983">loop</text><text fill="#666666" font-family="Source Sans Pro" font-size="12" font-style="italic" font-weight="bold" lengthAdjust="spacingAndGlyphs" textLength="176" x="241" y="225.7048">[for every relation being included]</text><polygon fill="#000000" points="264.5,274.9724,274.5,278.9724,264.5,282.9724,268.5,278.9724" style="stroke: #000000; stroke-width: 1.0;"/><line style="stroke: #000000; stroke-width: 1.0;" x1="182.5" x2="270.5" y1="278.9724" y2="278.9724"/><text fill="#000000" font-family="Source Sans Pro" font-size="18" font-weight="bold" lengthAdjust="spacingAndGlyphs" textLength="10" x="189.5" y="272.6746">4</text><text fill="#000000" font-family="Source Sans Pro" font-size="18" lengthAdjust="spacingAndGlyphs" textLength="56" x="203.5" y="272.6746">include</text><rect fill="#2C4870" height="37.9868" style="stroke: #2C4870; stroke-width: 1.0;" width="71" x="276.5" y="250.9724"/><text fill="#FFFFFF" font-family="Outage-Cut" font-size="12" lengthAdjust="spacingAndGlyphs" textLength="57" x="283.5" y="266.9674">Related</text><text fill="#FFFFFF" font-family="Outage-Cut" font-size="12" lengthAdjust="spacingAndGlyphs" textLength="43" x="290.5" y="278.9608">Model</text><polygon fill="#000000" points="400,323.9592,410,327.9592,400,331.9592,404,327.9592" style="stroke: #000000; stroke-width: 1.0;"/><line style="stroke: #000000; stroke-width: 1.0;" x1="312" x2="406" y1="327.9592" y2="327.9592"/><text fill="#000000" font-family="Source Sans Pro" font-size="18" font-weight="bold" lengthAdjust="spacingAndGlyphs" textLength="10" x="319" y="321.6615">5</text><text fill="#000000" font-family="Source Sans Pro" font-size="18" lengthAdjust="spacingAndGlyphs" textLength="61" x="333" y="321.6615">find({...})</text><polygon fill="#000000" points="323,360.5728,313,364.5728,323,368.5728,319,364.5728" style="stroke: #000000; stroke-width: 1.0;"/><line style="stroke: #000000; stroke-width: 1.0; stroke-dasharray: 2.0,2.0;" x1="317" x2="411" y1="364.5728" y2="364.5728"/><text fill="#000000" font-family="Source Sans Pro" font-size="18" font-weight="bold" lengthAdjust="spacingAndGlyphs" textLength="10" x="329" y="358.275">6</text><text fill="#000000" font-family="Source Sans Pro" font-size="18" lengthAdjust="spacingAndGlyphs" textLength="62" x="343" y="358.275">[results]</text><polygon fill="#000000" points="193.5,397.1863,183.5,401.1863,193.5,405.1863,189.5,401.1863" style="stroke: #000000; stroke-width: 1.0;"/><line style="stroke: #000000; stroke-width: 1.0; stroke-dasharray: 2.0,2.0;" x1="187.5" x2="311" y1="401.1863" y2="401.1863"/><text fill="#000000" font-family="Source Sans Pro" font-size="18" font-weight="bold" lengthAdjust="spacingAndGlyphs" textLength="10" x="199.5" y="394.8886">7</text><text fill="#000000" font-family="Source Sans Pro" font-size="18" lengthAdjust="spacingAndGlyphs" textLength="62" x="213.5" y="394.8886">[results]</text><rect fill="#C05E00" height="3" style="stroke: #C05E00; stroke-width: 1.0;" width="478.5" x="3" y="462.3378"/><line style="stroke: #FFBB7B; stroke-width: 0.0;" x1="3" x2="481.5" y1="462.3378" y2="462.3378"/><line style="stroke: #FFBB7B; stroke-width: 0.0;" x1="3" x2="481.5" y1="465.3378" y2="465.3378"/><rect fill="#C05E00" height="23.0757" style="stroke: #FFBB7B; stroke-width: 0.0;" width="107" x="188.75" y="451.7999"/><text fill="#FFFFFF" font-family="Source Sans Pro" font-size="12" font-weight="bold" lengthAdjust="spacingAndGlyphs" textLength="90" x="194.75" y="467.6014">... then sift it! ...</text><line style="stroke: #000000; stroke-width: 1.0;" x1="182.5" x2="224.5" y1="513.4892" y2="513.4892"/><line style="stroke: #000000; stroke-width: 1.0;" x1="224.5" x2="224.5" y1="513.4892" y2="526.4892"/><line style="stroke: #000000; stroke-width: 1.0;" x1="183.5" x2="224.5" y1="526.4892" y2="526.4892"/><polygon fill="#000000" points="193.5,522.4892,183.5,526.4892,193.5,530.4892,189.5,526.4892" style="stroke: #000000; stroke-width: 1.0;"/><text fill="#000000" font-family="Source Sans Pro" font-size="18" font-weight="bold" lengthAdjust="spacingAndGlyphs" textLength="10" x="189.5" y="506.5779">8</text><text fill="#000000" font-family="Source Sans Pro" font-size="18" lengthAdjust="spacingAndGlyphs" textLength="23" x="203.5" y="506.5779">sift</text><rect fill="#C05E00" height="3" style="stroke: #C05E00; stroke-width: 1.0;" width="478.5" x="3" y="555.027"/><line style="stroke: #FFBB7B; stroke-width: 0.0;" x1="3" x2="481.5" y1="555.027" y2="555.027"/><line style="stroke: #FFBB7B; stroke-width: 0.0;" x1="3" x2="481.5" y1="558.027" y2="558.027"/><rect fill="#C05E00" height="23.0757" style="stroke: #FFBB7B; stroke-width: 0.0;" width="180" x="152.25" y="544.4892"/><text fill="#FFFFFF" font-family="Source Sans Pro" font-size="12" font-weight="bold" lengthAdjust="spacingAndGlyphs" textLength="163" x="158.25" y="560.2907">... and return only what's left!</text><polygon fill="#000000" points="47.5,601.5649,37.5,605.5649,47.5,609.5649,43.5,605.5649" style="stroke: #000000; stroke-width: 1.0;"/><line style="stroke: #000000; stroke-width: 1.0; stroke-dasharray: 2.0,2.0;" x1="41.5" x2="181.5" y1="605.5649" y2="605.5649"/><text fill="#000000" font-family="Source Sans Pro" font-size="18" font-weight="bold" lengthAdjust="spacingAndGlyphs" textLength="10" x="53.5" y="599.2672">9</text><text fill="#000000" font-family="Source Sans Pro" font-size="18" lengthAdjust="spacingAndGlyphs" textLength="108" x="67.5" y="599.2672">[sifted results]</text></g></svg>