<svg xmlns="http://www.w3.org/2000/svg" xmlns:xlink="http://www.w3.org/1999/xlink" height="650px" style="width:482px;height:650px;" version="1.1" viewBox="0 0 482 650" width="482px"><defs></defs><g><polygon fill="#FFFFFF" height="222.8967" style="stroke: #000000; stroke-width: 1.2;" width="327.5" x="144" y="211.9032" points="144,211.9032 155.29354813031387,213.39115005027205 164.78096010303125,213.18525049072858 174.89497847633902,212.28896794427354 186.19704735360574,212.95679451693948 195.72567159321625,212.83928720507473 206.59782471740618,212.9665793376619 216.88750018237624,212.5218492566485 226.3822288964875,213.3408198387472 236.29972847609315,212.09529222123027 247.55591472249944,212.16843867901414 256.9773499777075,212.8352171638392 268.0055890996009,213.20192957000043 278.32038322952576,212.9390860383276 287.92924955300987,213.40038980211764 297.93500430404674,213.32721996965054 308.78784342156723,212.08256138994992 319.4829789046198,212.2794272807071 328.75275682867505,213.10264912323262 338.8657295717858,212.59381404350214 348.912111092126,213.16268458572384 360.19311949645635,212.57356106216255 370.40064644929953,212.84495190094393 380.702662225347,212.8711343139287 390.55462851177435,212.33465588273182 400.0190954192076,213.16073009598702 410.7698470405303,213.2249727021547 421.52208635711577,212.4907795239117 431.6439664090285,211.99631225067358 441.35204350890126,213.33549165673256 451.08174146921374,212.15598713274747 461.85063622845337,213.00623210502025 472.24395074974746,212.34806757251434 471.93557148380205,222.84253403872253 471.6455016663531,232.25703627055347 472.75285012146924,242.3571170693603 471.6547510745004,252.53467022338387 472.26393082540017,262.9961218716138 472.6504581763875,273.45618881477145 471.8026382273529,283.90976225388636 471.91582248499617,293.30267001325495 472.06987348233815,304.43945859366625 472.7760858145775,314.4023730657239 472.32536553486716,324.6995193542466 472.3340109430719,334.86745295353256 472.4246120338794,344.8726126887076 472.6879367849324,353.78325902586954 471.8431759518571,365.1088666978151 471.834684658912,375.46695550835506 472.9157274601748,384.5769191310752 471.86070340301376,395.22180478757656 472.54573892604094,405.8259679698549 471.9752397231059,415.27676208396514 471.59362095955294,425.2083304122174 472.8929647002369,435.37241524203455 462.3623766783858,436.05506556075306 451.45972844283096,435.4015745546367 440.8749000146054,435.85826980242746 431.1274116782006,435.2968423979055 420.5476803984493,434.8051460072329 410.15649841108825,434.94065699681414 400.90876574628055,435.6138832089655 389.8373984231148,436.2254368101876 380.6080067430157,434.9941368488526 370.4423167896457,435.5899098992977 359.12976043706294,435.9220663537435 349.32310965738725,435.0642227825174 338.6867700277362,435.4483190379269 329.4233577400446,435.5082797781961 319.1618610970909,435.50615581720376 308.0413628028473,434.9209142219206 298.4029700530227,435.8769014411537 287.9854245822644,435.01026657714283 278.1268937314162,435.7907866843907 267.5902796492446,436.14601938754095 256.97246011404786,436.21705945419853 246.57253216498066,434.86592798681704 236.82400300819427,435.82412871196175 226.31818589137401,435.18738174137434 216.419874091167,435.3911413790356 206.40143487788737,435.0259195040144 196.18826848769095,436.0614977550158 185.80524559190962,435.44178129734246 175.47010815725662,435.18055506820565 165.36023597512394,435.64230605542434 155.44437542394735,435.0400354758767 144.69530914002098,435.57522220620194" ></polygon><polygon fill="#2C4870" height="37.9868" style="stroke: #2C4870; stroke-width: 1.0;" width="71" x="276.5" y="250.9724" points="276.5,250.9724 287.2515279456441,251.4240679830849 298.24822429419567,251.6367176851794 307.2796575829188,251.16089911482538 318.0380109353657,251.24515949076283 328.31568023221513,251.91791867374684 337.7210251831983,252.42299335860423 347.6370388090145,251.55043243945818 348.70564349216875,264.8940099342015 348.0650937285973,277.1505573605557 348.3304400371853,290.3303139287334 338.4059244150828,289.46947763355524 328.15588027538195,290.1805441382628 318.02511716687246,289.6806972754009 307.49919890186607,289.0319464167867 297.4205196684092,289.49123195275274 288.01079978690734,289.97686201853753 277.1855021795491,290.32397852310055" ></polygon><text fill="#FFFFFF" font-family="Outage-Cut" font-size="12" lengthAdjust="spacingAndGlyphs" textLength="57" x="283.5" y="266.9674">Related</text><text fill="#FFFFFF" font-family="Outage-Cut" font-size="12" lengthAdjust="spacingAndGlyphs" textLength="43" x="290.5" y="278.9608">Model</text><polyline style="stroke: #051A38; stroke-width: 2.0; stroke-dasharray: 5.0,5.0;" x1="36" x2="36" y1="41.9868" y2="649.1785" points="36,41.9868 37.11089909216389,52.11229445751994 37.323434789897874,62.948542505490494 37.1638441599207,73.10270968028925 36.21819978556596,83.69510617472751 37.11172883177642,92.82327747079071 37.433341244235635,103.65199970720734 36.534041355131194,113.09471975053532 37.32781794760376,123.47352685574718 37.0392761999974,133.08415199911437 36.87716922769323,144.0069975407018 36.67275529552717,154.2567354461281 36.62851480697282,164.71357470138966 37.414916704175994,174.0777041325576 36.46279101097025,184.6660260067965 37.39857881201897,195.08920203506804 37.41120442526881,205.08852896658502 36.27365519525483,214.77993143038097 37.204372907057405,224.8427226563185 36.16426303598564,234.80460379479072 37.18982221966144,245.47532511508118 36.70860261563212,255.27695074831567 36.25762395642232,265.4817556170737 36.06657657714095,275.0355284989051 36.84921106242109,285.4726912008484 36.96349880530033,295.1608727779538 37.46424657991156,305.1426620030556 36.440069948206656,315.80329307969265 36.40570205426775,326.1483212017362 37.28257248317823,336.2818258351502 37.47749770875089,346.23680756125026 36.12798798631411,356.1425504230179 36.1919037939515,366.80183764483553 36.10915166675113,377.34109972432435 36.42382851673756,386.93049545749676 37.46627325634472,397.1394519422675 36.29275189898908,407.66507438541856 36.35368233954068,416.9346206662379 36.62053911143448,427.6861130020197 37.25693445804063,437.37893603216213 37.261459519620985,448.0907512916694 36.2490814832272,456.97932851295155 37.262751168455,467.26433491149095 37.48417474993039,478.13741564946764 37.232104556285776,488.68628184981634 36.8232658324996,498.7420884735596 36.636407292215154,508.7741995488886 36.893085036892444,519.0955911894403 36.057818513014354,528.0604416864945 37.062494439887814,538.185571428199 36.25390361063182,549.3615781131815 37.45818894042168,559.0245640110088 36.49212967674248,568.8766440361084 36.85381142247934,579.4965893900246 36.96643805585336,589.5225420369705 37.29621456563473,599.4228385294441 37.10572816897184,608.7096933247122 37.284938020049594,619.9247213822571 37.37004450510722,629.0803084139674 36.439969491097145,639.5162417879237 36.71132620505523,649.3854207316963" ></polyline><polyline style="stroke: #051A38; stroke-width: 2.0; stroke-dasharray: 5.0,5.0;" x1="182" x2="182" y1="41.9868" y2="649.1785" points="182,41.9868 182.26822630048264,53.37694418746284 183.0653382516466,62.98499339666394 183.482459659921,72.53411959130898 183.15959112846758,82.81823710438384 183.41902812721673,93.64250660561484 183.44390078191645,103.62005562113065 182.8567919926718,113.70130258247593 182.10164171969518,123.95888877047967 182.86572048184462,134.41110562232538 183.01433909859043,144.02705445745184 182.71288042224478,154.67968883629518 182.44147547113243,164.45841571426055 183.37426133581903,174.5985839090075 182.17268603737466,184.6670035920051 183.06374636269175,194.0822585246884 182.64134268672206,205.11051983985382 182.64152007224038,214.28170981190837 182.21902392222546,225.09212732407875 182.88853446079884,234.52768290982667 182.44697840919252,245.15343125472802 182.15779216762166,255.68979642694316 182.50611300289165,265.49639842787195 182.2462614903925,274.94273395623856 182.41844807355665,285.9234274390039 182.6330867157085,295.9237425057516 182.7960873148404,306.5745735523537 183.46389989741147,315.4283523139039 183.17540895566344,325.8574340603688 182.82109636056703,336.3696384235839 182.36779172287788,345.5898471040454 182.68081664817873,356.191144153218 182.45079548284411,366.57026021677774 182.7453516664682,375.96251097988517 182.92151065252256,386.7335753777356 182.3691921363352,397.2975128525641 183.4172176605789,406.4670350490557 182.0704872137867,416.590252076778 183.45037664554548,426.9981103970285 182.0063098478131,437.7723564354033 182.86991693545133,447.5857395716686 182.99065197329037,457.9763558187213 182.456706113182,467.90012872906976 182.43207627697848,477.92887525258635 182.07029203977436,487.29922942905677 183.13694149279036,498.64429249502183 183.36692542396486,508.149067033677 183.1431352669606,518.3865235363905 183.48764779395424,528.6070072610884 183.10978404758498,538.9203359972887 183.4260568866739,548.4220578653188 183.42770701099653,559.584367855904 182.57587092614267,568.504642833797 182.18713886116166,578.9401159057618 182.94129661098123,588.8407711845529 183.47034681029618,599.3586862016123 182.9285653193947,609.1830001198288 183.42080223350786,620.1875099901124 182.8170586815104,629.0372876239902 182.37348846311215,639.1865887062067 183.45013948972337,649.9971455682153" ></polyline><polyline style="stroke: #051A38; stroke-width: 2.0; stroke-dasharray: 5.0,5.0;" x1="311.5" x2="311.5" y1="285.4658" y2="649.1785" points="311.5,285.4658 312.00813303596806,296.6558646204197 312.70032964251004,305.8310506646837 311.7635058424203,316.021453359971 311.5315282221418,327.19811588649037 312.6139832092449,336.1856869519976 311.59615008567926,346.87136636824647 311.6934942827793,357.2370712371269 311.9158099544002,366.62720606408817 312.8580970451003,376.90800711709096 312.70520502573345,387.39803770225734 312.0035883488599,397.00034859406287 312.0918874030467,407.149114646001 312.9880265389802,418.1879755809806 312.1709720683284,427.3265574122983 312.04060823854525,437.0734994682523 312.97273954818957,447.2252422224838 312.2486488218419,457.98865977990806 311.78020662488416,467.48839378587553 311.82800457964186,478.0887214954091 312.3573526679538,488.15176761244976 312.4982387544587,498.7520152217227 311.8151788156247,508.56324315018077 311.8837012540316,518.1318518461314 312.2278116075322,528.228109507561 312.6076153778704,538.740858106923 312.33779002854135,548.4435003391794 312.29477779963054,558.5220965182805 312.396464012214,569.1288275317521 312.9893686786527,578.7765018224086 312.3535478444537,589.5846737080391 311.6869885837659,599.5783379363568 311.68409437302034,610.1544357867721 311.67781118140556,619.4023365436233 312.1139333070023,629.7723111665522 312.68683901790064,640.1778230682264 312.1800034743501,650.1121863227654" ></polyline><polyline style="stroke: #051A38; stroke-width: 2.0; stroke-dasharray: 5.0,5.0;" x1="411.5" x2="411.5" y1="41.9868" y2="649.1785" points="411.5,41.9868 412.89551563852,52.50694859378743 412.225971154985,62.52900975044993 412.68598454922903,73.04300968251772 412.05796346010175,83.41077693870811 411.9694057435263,92.96333307064597 411.90852302953135,103.21443085883676 412.2515271481825,113.20219799930567 412.8045174176805,123.40101681736108 411.6817801829893,133.1473417614096 411.53403521270957,143.35409024228963 412.003712582984,154.06730026515297 412.29240394127555,164.4069502088757 411.86708274204284,174.2799287102183 412.64887092087884,184.1233083791976 412.2626335917739,194.7941877748477 412.78171318618115,204.09816338057428 412.83622059912886,214.48290013920254 412.7268389472738,225.00684534117724 412.5426508439705,235.45059255297846 412.741051254794,245.21736338297862 412.47461823769845,255.8026266885266 412.71339850721415,264.9778537588417 411.8998345215805,274.8422671087024 412.7347316913074,285.4995405244992 412.13608880119864,296.28007278803926 412.71763500291854,305.301425421961 412.59141060186084,316.22224370003283 411.66887680394575,326.82622762240015 411.7944706113776,336.42123357430984 412.30268711363897,345.9090927293327 412.77671466057654,355.7452641501773 412.8135208351305,366.3667839555466 412.81128021131735,376.6826078072534 412.12501242069993,387.153339638497 412.7278726856457,396.2888980001217 412.3505134062143,406.3825603209622 412.2350166621618,417.6424509900756 412.5800222954713,427.8104014761129 412.7029010549886,438.0899276267533 411.5501879018266,447.2555999672715 411.8560940111056,457.0002668301266 412.38886157539673,468.32844018553027 412.4185923857149,477.8442004023637 411.81053474219516,488.2017044173087 412.4368819076335,497.7095777417247 412.5331089569954,508.95502678143197 412.03910522919614,517.7300292112473 411.5072460795054,529.1753313611981 412.3966752854176,538.1695360598821 411.92385137209203,548.961241925965 412.9248865375994,558.4738162107396 412.2223850659793,568.2250709372616 412.4151505307527,579.7835288442895 412.2639452670701,589.6750470125288 412.8870242952835,598.9550178083477 412.4878600256052,608.8101366250377 411.9784625037573,618.8857422292247 411.7269122081343,629.2940259425862 411.6748186121695,639.2473324905059 411.6321449538227,649.5971326930066" ></polyline><polygon fill="#2C4870" height="37.9868" style="stroke: #2C4870; stroke-width: 1.0;" width="57" x="8" y="3" points="8,3 20.74290001692716,4.021163538331166 31.617740817903538,3.383161870529875 43.08691096089314,3.808305837213993 54.92455307268537,3.1638639320153743 66.19721868936904,3.7813966339454055 65.60535459010862,16.277874841718997 65.94510197092313,28.626647473459258 65.64349095593207,41.985344517555276 54.503458228101955,41.82767428881321 42.76414670031518,42.39300359918103 31.40468105983455,41.39407672923822 20.186640471313154,41.37717520962302 8.370651170029305,41.02347014045641" ></polygon><text fill="#FFFFFF" font-family="Outage-Cut" font-size="12" lengthAdjust="spacingAndGlyphs" textLength="21" x="26" y="18.9951">API</text><text fill="#FFFFFF" font-family="Outage-Cut" font-size="12" lengthAdjust="spacingAndGlyphs" textLength="43" x="15" y="30.9885">Client</text><polygon fill="#2C4870" height="37.9868" style="stroke: #2C4870; stroke-width: 1.0;" width="57" x="154" y="3" points="154,3 166.6056537247263,4.110418072203174 177.0957141721854,3.640254081808962 189.50976207891947,3.5302560838172212 200.87774522220718,3.669139438890852 211.37445757631212,3.0299195267725736 211.96788343053777,16.913835984436858 212.19054559152573,28.904376133957072 212.09671980305575,41.831306711582656 199.83247479042038,41.33577693817038 189.3036778925918,41.22068692352455 177.30608040916266,42.272196207706074 165.89558197765143,41.05680654516742 154.5933040449163,41.427525513268264" ></polygon><text fill="#FFFFFF" font-family="Outage-Cut" font-size="12" lengthAdjust="spacingAndGlyphs" textLength="37" x="164" y="18.9951">Some</text><text fill="#FFFFFF" font-family="Outage-Cut" font-size="12" lengthAdjust="spacingAndGlyphs" textLength="43" x="161" y="30.9885">Model</text><polygon fill="#2C4870" height="25.9934" style="stroke: #2C4870; stroke-width: 1.0;" width="99" x="362.5" y="14.9934" points="362.5,14.9934 374.20013433136046,15.898114541626162 385.4558432967169,15.419140380655042 395.99843749857973,15.411150617838464 406.84940905182157,16.076180545111747 418.96267331240233,15.72007383821681 429.47498199588154,15.365580882375687 440.34667596872896,16.317891319712253 450.93638934590854,15.899331238783523 461.7550174255157,15.343117591074295 462.3154402481159,28.92113940261062 461.5626109695295,41.9062051848026 450.7171207747888,42.364834860943446 440.9202405894175,41.69719786736947 428.55212515208405,41.84083633618262 418.1174328151392,42.014234786432425 407.69080576859415,41.957063401395644 396.4890299276449,41.30779716749508 385.1115797255188,41.22306441333909 374.78876707842574,42.48390024392698 362.9449531758437,41.780280781489054" ></polygon><text fill="#FFFFFF" font-family="Outage-Cut" font-size="12" lengthAdjust="spacingAndGlyphs" textLength="85" x="369.5" y="30.9885">Datasource</text><polygon fill="#000000" style="stroke: #000000; stroke-width: 1.0;" points="170.5,75.9868 181.29025028808974,81.18588959791064 170.79298772872426,85.04326027601324 175.37212535459548,81.39296445953492" ></polygon><polyline style="stroke: #000000; stroke-width: 1.0;" x1="36.5" x2="176.5" y1="79.9868" y2="79.9868" points="36.5,79.9868 46.77672810293734,80.60173350903038 56.974482446094044,80.38697427573912 67.9092225972563,81.01931677553635 76.52226251363754,80.88996593681928 87.70752873760648,80.67485609236006 97.22383737005293,80.5771038076358 107.06031966721639,81.4075007373916 117.73889507201966,81.0932305350883 126.99959426163696,80.22551643224266 136.91408870962914,80.23690337796994 146.9021815819433,80.14958572170995 157.547791451565,80.41968249103353 166.7780166801531,80.94369721172676 177.73632265126798,80.83345899153333" ></polyline><text fill="#000000" font-family="Source Sans Pro" font-size="18" font-weight="bold" lengthAdjust="spacingAndGlyphs" textLength="10" x="43.5" y="73.6891">1</text><text fill="#000000" font-family="Source Sans Pro" font-size="18" lengthAdjust="spacingAndGlyphs" textLength="85" x="57.5" y="73.6891">sift({...}, {...})</text><polygon fill="#C05E00" height="3" style="stroke: #C05E00; stroke-width: 1.0;" width="478.5" x="3" y="109.1382" points="3,109.1382 13.243067979834914,110.51894599555693 23.934860306370883,109.78644795280583 34.95186328254343,110.38965884428639 44.884683359736336,110.32071302198041 55.11071113612938,110.0074447078647 64.53561803118197,109.53869756749067 74.35869179134495,109.99055683748033 84.95022161939787,109.223553787872 96.12732260834001,110.47155837023332 105.04204100194795,109.51735030668955 115.49760485814262,109.16758594529405 125.27072928709654,109.19759893273171 136.76762980717345,110.54530638498422 146.37806008112162,110.25591481158212 157.052552508059,109.7280498231545 167.36991528282684,109.27025369724892 176.69665724088614,109.89053427202329 187.60655177261756,110.46448422416746 196.6126277496384,109.30658530031964 207.79515600516802,109.25075678662564 218.23982446571122,109.21533971240446 227.5866496450282,109.27955482627898 238.58848351943348,109.49910176843572 247.77638423030672,109.43822448975574 257.97136914948777,110.5412955947237 268.06443080957723,109.24018372264858 278.945106713121,110.30090395740866 289.28003241929235,110.30109880522527 298.3046547345063,109.16388865881767 309.4622171086659,110.38648886438627 319.3034788240836,109.37944615977052 330.06245717489236,109.33370920533947 340.4671400859158,109.8596635371929 349.4569280364678,109.27736809915099 360.4721498533269,109.23333036289718 370.39787206017553,109.64469670092389 379.997423494128,109.57756419056263 390.1456559385726,109.49872773089614 400.6557785091533,109.20446182165928 411.09092004546636,109.93111297355667 421.5016058988228,109.70281189698893 431.73572868225637,109.93228398130908 440.9002438651202,109.62136545865964 451.62588863522086,110.0011551770864 462.36813316664364,110.17229376286436 472.7665676653625,110.5979412814619 482.0047279318096,110.41308804410677 481.577882084297,112.4057375532126 472.17372149622634,113.30639635487627 462.3391477338291,112.39838945232499 451.6526188286284,113.44299442002252 441.7717178033472,112.82249030862171 431.0826214859312,112.31405591389797 421.62281053767674,112.14162446600552 410.554792090978,112.4392229357751 400.2165525850687,112.9749945071077 390.2768959395212,113.38049790153913 380.0941099873844,112.91475343478545 369.8231785934063,113.41463815625924 360.4166283072791,113.39922373364847 349.80655645352226,113.020390656499 340.3410718917521,112.54047112162392 329.40963305394735,112.5916107085783 319.93590227630193,113.25466879347972 308.61391022973066,112.75198096102271 299.0611614770669,112.21220712417438 288.96334092055486,112.2447914517967 278.45304018843126,112.22492964794095 268.4805722511351,113.20311224525962 257.80363876393403,112.17703560129907 248.3131388595325,113.46640603530854 237.3965021787917,113.5916706864506 228.07774857224604,112.90314019129313 217.66366095142712,113.15348669509571 207.74628601582162,113.42486383435484 197.7129605640239,112.18313689513765 186.6855710791947,112.6828032655891 176.35680661248716,113.12121884334069 166.992106364582,113.3695371731434 156.6354732398031,113.60190405179914 146.78487281753723,113.13826688106805 136.65868036291704,112.97609961249567 126.19793719045127,112.3417620311508 116.18154701568525,112.14223029669542 105.76712415366406,112.74969153253063 94.88863400389977,113.6148195755219 85.7658197504392,113.11883212470151 74.73155186911382,113.02148624877613 64.21360564024089,113.13277010894548 54.86076857405249,112.55619385787453 44.23824284595537,112.528366547033 34.624340577118225,112.36711763085499 24.311515208378623,112.93208688225299 14.03812787486172,112.64675011073872 4.025679371086881,113.02315462189894" ></polygon><polyline style="stroke: #FFBB7B; stroke-width: 0.0;" x1="3" x2="481.5" y1="109.1382" y2="109.1382" points="3,109.1382 13.588631217506654,110.08077558742538 24.299825010632976,109.6647006510308 34.53952699068171,110.0349767378781 44.06306145174498,110.05365995150227 55.217682367069344,109.77199828794859 64.80080227986315,110.2143315585114 75.74130521415971,110.0717180351045 84.67243575276015,110.62216110639442 94.90527942144818,109.36879968499001 106.07494709034393,109.86397475581784 116.31606727094699,110.57071928093377 126.55972363628658,109.14247729461808 135.99071376951056,109.72559974990021 146.15948202271025,109.49415860425383 156.79068913588677,110.11581848440859 167.31992599438686,109.5970384089293 176.42888669102163,110.60788562551774 187.05981634189916,109.619202787943 197.50056763070612,109.25989945437927 208.0972687689156,109.6213835621735 218.2522077043565,110.57391799714118 227.67768329407696,110.27027799964584 238.11812823759433,110.3220006132748 248.01350053767615,109.96674387746192 257.59076598447126,109.74427494553551 268.91477121610404,109.18348209962882 278.48567102758324,109.68111292873677 289.3557418077673,110.25599991374351 298.3577969072564,110.38039113844447 308.597282139671,109.77259449307043 319.23750426596206,109.38424298151098 329.2931724304946,109.45087924129497 339.64610242381667,110.36465838267635 350.5564149984286,110.53481616843659 360.168757742236,110.08608350723684 370.3077570366315,109.68196098769717 379.8058363796542,109.59419732827395 391.19424448538047,109.3349546492815 400.26214639754807,109.99283077272288 411.1241434460573,109.35056210712231 421.44870356585005,109.4409223313693 431.90583230660303,109.35304168921597 441.4947299127504,110.34249460087325 451.90755954645846,109.97787149513773 462.34356525838547,109.45407854633108 472.5512525121223,110.376515492752 482.3250078385463,110.31141372684091" ></polyline><polyline style="stroke: #FFBB7B; stroke-width: 0.0;" x1="3" x2="481.5" y1="112.1382" y2="112.1382" points="3,112.1382 13.249149781906917,112.3800411023682 24.693461750445767,113.13852273028046 34.91125041916669,113.40295441502407 44.22440576690318,112.50624909829516 55.339226274979,112.42007677951064 64.55959899597207,112.44673715061676 75.24134124947484,112.32347696770616 85.89811996504804,113.0189874637423 95.04588046911213,112.25893978304397 105.27867236487975,112.40702744184695 115.47425414751127,112.7097879171621 126.01016976862425,112.60408368108496 136.64772780198714,113.57098374080546 145.86523563911683,113.30313112687021 156.2578330873363,113.3761321991466 165.9268316110903,112.76867829258721 176.60024820224558,113.34497518879529 186.72130568330718,112.59914666293356 197.40505267361155,112.16600524233822 206.86976658155086,113.39161951777227 218.21825180575493,112.2903476333728 228.41325306685317,113.5198797909094 238.52989691535518,112.80772335345559 248.3431355549948,113.155476592087 258.59084143498757,112.67175632722378 268.338838538036,112.54893149058502 277.99219935610535,113.11863764289468 288.9825229276159,113.31492912462149 298.8905512752887,112.7954707244195 308.9483811361417,113.03006887512915 319.00337355653,113.30055575918108 329.6303256423127,112.30294499192554 339.21445957714667,112.70593478735704 349.18136938120114,113.55337851676326 359.9690445399262,113.59828680167142 369.98312291420206,112.86824941432737 379.969786989978,112.54161866982635 391.3272915300069,112.69417163841594 401.30371349845854,112.64509687498379 411.65538315703833,112.91728105356619 421.40183997955745,112.3532745150866 430.8517037255271,113.13017179684415 441.22333233526814,113.48127848475873 451.8750692037194,113.51902612375729 462.09749325209003,112.94530708606057 472.2045445359319,112.82666335925627 482.06333342625294,112.55887418969236" ></polyline><polygon fill="#C05E00" height="23.0757" style="stroke: #FFBB7B; stroke-width: 0.0;" width="187" x="148.75" y="98.6004" points="148.75,98.6004 159.82839808928676,100.01887913945093 169.77284699797423,99.99063669075686 180.79982886257736,99.50723285461272 190.69043072725697,98.96237512736543 201.82618825830932,99.27611429908275 211.35504407233867,98.63877043012026 221.68853109967634,99.87979181600231 232.15639418385558,99.35902795079592 242.99664456490424,99.64604475500956 253.4410327822099,99.95932542928922 263.5262225986484,99.27487984451427 273.72977116661303,99.25293606042824 284.31333615275156,99.4515199413333 294.61497549951963,99.89304166380744 305.3730319084911,99.03266554035208 316.0370421970471,98.6368260377828 326.71833333243734,99.43764069991148 336.8238074411638,98.92910186003856 335.956032258342,110.70691912124678 336.1909775804961,122.40886996426283 326.73893873508655,122.52413207055665 315.83381530861107,122.19492366870995 304.9008117639071,123.10653735134414 295.2529670723661,122.50179192373193 283.80953591287175,122.79586257828063 274.16542173995776,121.78708844662773 263.28977307796254,123.17266721460632 253.80986154627865,121.98712743814698 242.985787421814,121.9911475557195 233.10780013456096,121.78747821804731 222.88665894509484,122.21884718393571 212.2971811818035,122.16300377839374 201.84134780680228,122.5763511491999 190.41288283891546,121.95194569074678 180.57997592821857,123.04306388991549 170.83657385981886,123.07397481876555 160.14778225765446,121.8157305944072 149.33868312614504,122.77583979298956" ></polygon><text fill="#FFFFFF" font-family="Source Sans Pro" font-size="12" font-weight="bold" lengthAdjust="spacingAndGlyphs" textLength="170" x="154.75" y="114.4019">gather all the data we&#39;ll need ...</text><polygon fill="#000000" style="stroke: #000000; stroke-width: 1.0;" points="400,155.6761 411.3199091494316,160.1473279762607 400.49441432685126,164.97574712646323 405.08825388073456,161.02927250690422" ></polygon><polyline style="stroke: #000000; stroke-width: 1.0;" x1="182.5" x2="406" y1="159.6761" y2="159.6761" points="182.5,159.6761 193.15509769416795,159.6928825137032 203.9446676938731,159.84185466655194 213.45926047999157,160.30973890151958 223.73459558376237,160.90946743877734 233.30852235508658,159.73958786712623 244.80302032765888,160.37933323935735 254.97906917739996,160.34674101528375 263.9951305701609,159.9007103248326 275.0624876955355,160.41834591848905 285.50551227279095,160.28111794773153 294.84970702894503,160.3127127745714 304.68733795677235,160.31579421642832 316.05629340868285,159.76161734429783 324.8865683900448,160.49765907340347 334.9489420886492,160.15271009896546 346.17235230542315,159.89648161661475 355.23936043396105,160.41380936531945 365.7673099515856,159.7968489828812 375.9888793440983,159.72698852136395 386.6842522705506,160.07110295894685 397.1310569349129,160.47731103010605 407.00655763060786,161.05884125033057" ></polyline><text fill="#000000" font-family="Source Sans Pro" font-size="18" font-weight="bold" lengthAdjust="spacingAndGlyphs" textLength="10" x="189.5" y="153.3784">2</text><text fill="#000000" font-family="Source Sans Pro" font-size="18" lengthAdjust="spacingAndGlyphs" textLength="61" x="203.5" y="153.3784">find({...})</text><polygon fill="#000000" style="stroke: #000000; stroke-width: 1.0;" points="193.5,192.2897 184.2355944934534,197.68552760212944 194.71054773498327,201.58626536923722 190.57429517363198,196.41093697448989" ></polygon><polyline style="stroke: #000000; stroke-width: 1.0; stroke-dasharray: 2.0,2.0;" x1="187.5" x2="411" y1="196.2897" y2="196.2897" points="187.5,196.2897 197.9759002650707,197.64320196319633 207.87938016147183,197.23955907431693 218.05036499395712,197.21894677126576 228.806165486934,196.53583362899982 238.9627279781694,197.04109072712046 249.3985491628568,196.32082241788768 258.69725662305825,196.29621977362578 268.99513791131113,196.74427898802125 280.1976715121948,196.84757125951612 290.04135775947105,196.72895191042946 300.6372662954965,197.57866508098115 310.02423620820906,196.66939281314873 319.58557821618706,196.52637593544816 330.78071416830875,196.67336410927848 340.916946213354,196.95253009189648 350.45390767270766,197.13871378909127 361.63175691590163,196.3074223237697 370.6659286708934,196.9794408416262 381.5353730037092,196.41302273705398 391.4476694950668,196.8939994586751 401.96924310779787,197.04366127032583 412.20300795848016,196.6399475047717" ></polyline><text fill="#000000" font-family="Source Sans Pro" font-size="18" font-weight="bold" lengthAdjust="spacingAndGlyphs" textLength="10" x="199.5" y="189.9919">3</text><text fill="#000000" font-family="Source Sans Pro" font-size="18" lengthAdjust="spacingAndGlyphs" textLength="62" x="213.5" y="189.9919">[results]</text><polygon fill="none" height="222.8967" style="stroke: #000000; stroke-width: 1.2;" width="327.5" x="144" y="211.9032" points="144,211.9032 154.30213534215,212.51445860293396 164.85789993498474,212.85387848148756 174.72271262831055,212.5009867062902 185.24844702146947,212.74326671095267 196.1294218469411,212.84901649883184 206.59532609721646,212.9877983927138 216.93556669715326,212.1429814965807 226.40356025088113,212.34871059789955 237.54056997376028,213.11518363532312 246.64849536761176,212.0776306582259 257.23746762191877,212.34966318862215 267.61197564785834,212.81442988855932 277.1421271030558,213.29020965349562 288.43615924357437,211.98694993340112 298.8073492872063,212.59328853274863 309.2249814942479,212.12774099915922 318.22163038968574,212.83047705999277 329.4437521492364,212.8807828459533 339.5072205095785,212.4582397915067 349.8207948675845,212.19386342802252 360.28016469127033,212.70605383632872 369.89408028684556,213.08153682044875 380.37390618852805,212.2002797357848 390.99072442995384,213.32685032876842 400.5548030009959,212.06749982695263 411.45870872878004,212.75940948218275 421.51076547894627,212.5017615873942 431.7243359879358,212.3102539131062 442.1100587687688,212.35773067228664 451.7718367864145,213.00658048345875 462.2424871828407,213.21826446003914 471.8632341105258,211.98791679955255 471.90623905835673,223.19544198296035 471.65706316032447,232.25449339601047 471.5365368007915,242.4500333190071 472.7763615990989,253.73447390845482 471.9409608495189,263.08411324953465 471.88027700735256,274.0019995563767 472.213749403134,283.509398421407 471.53620202548336,293.08240604223914 472.39135405339766,304.3844804401143 471.62171349232085,313.2639045951831 471.60549397114664,323.3779038986909 472.51676108897664,333.79267655144 472.631531872903,345.0620841179215 472.27248580160085,354.3905255298378 472.29410712060053,364.2780971393779 472.1323968442157,374.38846399636753 472.30113124172203,384.7466489969298 471.6689525281545,395.38612326286676 472.9919557432877,404.94983091521317 471.8518801818136,415.2231194567641 472.16461256332695,425.67060774488743 472.32582008861937,435.3517985245144 462.3871102259727,435.1499415984308 451.8625177630456,435.88873636153767 441.83804154233076,436.22476422217915 432.0403574195225,436.22351057864034 421.72905095864553,435.22601665371803 410.23010385315865,436.2158708252409 401.05813533300534,435.0749050277682 390.7323214521166,436.12858238794615 380.83073804108426,435.19771125937586 370.32570491789375,436.0721424996318 359.72511861193925,435.02953037132283 348.8535694835009,434.81259519596824 339.1201820021961,436.27298548539875 329.0976841537049,436.2975223830599 318.80808944732416,435.0220356985392 307.9773140990874,435.12601503254155 298.8566054807743,435.6310143721221 288.75398568063974,435.1212025006698 277.1562985704513,434.9697881067568 268.2086785112042,436.0449030822074 256.8617473450722,435.0853471489554 246.37861862708814,434.8808694986092 236.24672988115344,436.2785578392377 226.38798243144993,435.0552842891939 216.48502940661274,435.73751997227555 205.82692528981715,435.59240202630644 196.21045150910504,436.01109491639545 185.6906376107363,436.16944146728383 176.16880661901087,435.66574493005646 165.4148336632643,434.91583540082684 155.18821967276745,435.10600209493896 144.45115286449436,436.1003534980282" ></polygon><polygon fill="#F1E4CD" style="stroke: #000000; stroke-width: 1.2;" points="144,211.9032 154.76992859283928,213.06243247102182 165.8406060737325,211.94805737427603 175.047110665706,211.9234282865066 186.47283372131642,212.56476371729448 195.5830593156861,212.40385726228058 206.92162017140072,213.13265730190258 215.92232684628107,212.76362828299105 226.28656003519427,212.40510563325304 227.19322696723975,215.5596396409085 216.81716632051393,225.36916335805952 207.15538365413835,226.30863774224352 196.15626374904866,224.93276267108675 185.60513234827005,225.68710818077605 175.654437468487,225.70324767153878 165.3960227532745,226.02771845931355 155.18374130563882,225.4749930404935 144.1676927790977,225.80988652544264 144.29931679693982,213.18989263527263" ></polygon><text fill="#000000" font-family="Outage-Cut" font-size="12" font-weight="bold" lengthAdjust="spacingAndGlyphs" textLength="37" x="159" y="221.8983">loop</text><text fill="#666666" font-family="Source Sans Pro" font-size="12" font-style="italic" font-weight="bold" lengthAdjust="spacingAndGlyphs" textLength="176" x="241" y="225.7048">[for every relation being included]</text><polygon fill="#000000" style="stroke: #000000; stroke-width: 1.0;" points="264.5,274.9724 275.96111488330644,280.1933431665251 265.66849166399334,283.638795850596 268.8235377834644,280.30203946752715" ></polygon><polyline style="stroke: #000000; stroke-width: 1.0;" x1="182.5" x2="270.5" y1="278.9724" y2="278.9724" points="182.5,278.9724 193.64411923731677,279.53340035388953 204.67817521479446,279.8807820953965 216.34007336338982,280.0942887681607 226.85746176412795,280.01014951491504 238.32256867189426,279.4343285732042 248.8992847459158,279.69654472396485 259.78828899830114,279.30002293168343 270.59424050163943,280.0411960018404" ></polyline><text fill="#000000" font-family="Source Sans Pro" font-size="18" font-weight="bold" lengthAdjust="spacingAndGlyphs" textLength="10" x="189.5" y="272.6746">4</text><text fill="#000000" font-family="Source Sans Pro" font-size="18" lengthAdjust="spacingAndGlyphs" textLength="56" x="203.5" y="272.6746">include</text><polygon fill="#2C4870" height="37.9868" style="stroke: #2C4870; stroke-width: 1.0;" width="71" x="276.5" y="250.9724" points="276.5,250.9724 287.8915455076079,251.60646312779988 297.52301953398694,251.61279126981515 307.83586240134076,252.04396872423365 317.4773685198245,251.5397266808735 327.3625010416977,251.6923083494488 337.73167776140133,252.2543075282896 348.2329539124621,251.38297436098344 347.7469659212511,264.4995511343457 348.7785033870023,277.17637051403494 347.52292893640697,289.7877766290501 338.0731263835748,289.04098454998416 327.395297398641,289.90729802249075 317.31427069166335,290.2779894546427 307.9430278165298,290.35684352329076 297.6742283449607,290.4337828062296 287.40653398820916,289.7312275751781 277.70243935880717,289.4975620103821" ></polygon><text fill="#FFFFFF" font-family="Outage-Cut" font-size="12" lengthAdjust="spacingAndGlyphs" textLength="57" x="283.5" y="266.9674">Related</text><text fill="#FFFFFF" font-family="Outage-Cut" font-size="12" lengthAdjust="spacingAndGlyphs" textLength="43" x="290.5" y="278.9608">Model</text><polygon fill="#000000" style="stroke: #000000; stroke-width: 1.0;" points="400,323.9592 410.33479009976145,328.28918040446547 400.61246220197063,332.87954414585215 404.7880283957347,328.16383820151054" ></polygon><polyline style="stroke: #000000; stroke-width: 1.0;" x1="312" x2="406" y1="327.9592" y2="327.9592" points="312,327.9592 323.46637303295495,328.58201529721805 333.4409043950857,328.08819886863307 344.31558343775885,328.8972527571775 354.5771848043919,329.2676515386727 365.27385599862066,329.0364992997663 374.7807894107343,329.34791662004386 385.30907700756677,329.0582487592062 396.38775558600264,328.17371535238885 406.8092187218135,329.1057335007524" ></polyline><text fill="#000000" font-family="Source Sans Pro" font-size="18" font-weight="bold" lengthAdjust="spacingAndGlyphs" textLength="10" x="319" y="321.6615">5</text><text fill="#000000" font-family="Source Sans Pro" font-size="18" lengthAdjust="spacingAndGlyphs" textLength="61" x="333" y="321.6615">find({...})</text><polygon fill="#000000" style="stroke: #000000; stroke-width: 1.0;" points="323,360.5728 313.3861259496771,365.19776700929475 323.16844469413627,369.61234050794707 319.3718143895967,364.83444361403787" ></polygon><polyline style="stroke: #000000; stroke-width: 1.0; stroke-dasharray: 2.0,2.0;" x1="317" x2="411" y1="364.5728" y2="364.5728" points="317,364.5728 328.82267556590443,364.80668120776505 338.47048055509936,365.68222209220954 348.7123712882943,364.75863161395506 359.8818733269841,364.68993684396816 370.6785914556564,365.135783331969 380.10848503482225,365.57295448767223 391.34626550808196,365.38499684309323 401.63048289861126,365.61565253770647 411.0462350148009,365.9610887965301" ></polyline><text fill="#000000" font-family="Source Sans Pro" font-size="18" font-weight="bold" lengthAdjust="spacingAndGlyphs" textLength="10" x="329" y="358.275">6</text><text fill="#000000" font-family="Source Sans Pro" font-size="18" lengthAdjust="spacingAndGlyphs" textLength="62" x="343" y="358.275">[results]</text><polygon fill="#000000" style="stroke: #000000; stroke-width: 1.0;" points="193.5,397.1863 183.75116529420484,401.33950540650284 194.0958510733908,405.3693973047763 190.6428670034511,401.3723560086789" ></polygon><polyline style="stroke: #000000; stroke-width: 1.0; stroke-dasharray: 2.0,2.0;" x1="187.5" x2="311" y1="401.1863" y2="401.1863" points="187.5,401.1863 198.31995338461516,402.6649358433776 208.29120075908332,402.08524750725945 218.7015764940297,401.9655306782212 229.24114040079678,401.6041579662694 239.8920148777154,402.50971278041715 249.81467023049476,401.71674039628004 260.91581200986786,401.53816659230387 270.7480172704284,401.9721776039211 280.53671546664555,402.5815274253825 291.3085900101966,402.6486268914875 301.192393136172,401.8173154332314 312.14131470641587,401.93374231498336" ></polyline><text fill="#000000" font-family="Source Sans Pro" font-size="18" font-weight="bold" lengthAdjust="spacingAndGlyphs" textLength="10" x="199.5" y="394.8886">7</text><text fill="#000000" font-family="Source Sans Pro" font-size="18" lengthAdjust="spacingAndGlyphs" textLength="62" x="213.5" y="394.8886">[results]</text><polygon fill="#C05E00" height="3" style="stroke: #C05E00; stroke-width: 1.0;" width="478.5" x="3" y="462.3378" points="3,462.3378 13.77537066771084,463.83662190919017 24.566214822859383,462.7167811721072 34.01653885650151,462.5942391688211 44.04007489010295,462.75246370224954 53.99265722592331,463.1986927804744 65.10204214907122,463.1782376381077 74.52050982093677,463.4160169121085 84.76128708775295,462.3618387939848 96.0218392032808,463.640058020849 105.18911853804195,462.55119560381604 116.45333387424547,463.43502301515286 126.33678876344325,462.8055431706805 136.0768549488263,462.3574444838075 145.80585081138193,463.22505264917595 156.68112690710373,463.4913680793459 165.9271084328722,463.39717207932586 176.7847999834054,462.552613771192 186.3957774028469,462.5642757222729 196.47089149856916,462.51381497936995 207.58924951937857,462.5376081849888 217.7962712524483,463.2304783913048 228.4501260832432,462.7409337706838 238.49068093246356,463.4149438018419 248.05538390094821,463.83033309401685 257.77358560552665,463.6533812780606 267.9448436133072,463.19432060061695 278.1216480888158,463.52472744872534 289.1625172200567,462.8392830058208 299.7332047005827,463.8134441503996 308.8372864104742,462.8354615662454 319.9893709898385,462.9728027084118 329.9811175031502,462.9984120489305 339.8921009344419,463.16690972612446 350.6043128563917,463.35168459966985 359.44814556123464,463.5537472630592 370.3468045893698,463.47706835346503 379.76739901200443,463.0780684853878 391.09412113033176,463.5769120948596 400.3189476349468,463.235949269633 411.13295932540876,462.44159850806204 421.638586280035,463.1537541342175 431.8460347626871,463.2894811401118 441.1907378103621,462.52209195298815 451.0093738211346,463.8330291143127 461.90371594596826,462.97873288953883 472.72568767038246,463.1536954678802 481.97527167282533,463.3241806127105 481.8146367998561,466.72528233066873 472.20055186804484,466.3806593179677 461.54397718091695,465.85780099467115 451.6085455572961,465.4040573265145 441.2341368833131,466.20829977912103 431.03728613921476,465.97047487997656 421.2570240181931,466.02449391435107 410.509579390015,466.795741577537 400.6342650146071,466.2924885439195 390.1626728053993,466.45684538737146 380.81345937460264,465.5100229239531 369.7781143404886,465.39297903808506 359.44760547155784,465.38581602847876 350.558637830954,465.9395942838371 339.87941858618524,465.5293586551186 329.7062454109696,466.0749532372199 319.4364594072031,466.0740712961622 308.54952592190193,465.9951707358912 298.7746364433033,465.57130063164254 288.89659503805024,466.6310454580441 279.01562206286144,465.8640056167703 267.8878526298772,465.9190164216768 257.6019880295253,465.58606624256095 248.72430760362158,465.4984524292147 237.5987576622756,466.7697693061989 227.21987497913824,466.66451073731037 218.09706475772236,465.90154752440026 207.13383782210667,465.67070631487036 197.00828407619156,466.6274386591019 187.02643004845004,466.67798088213635 176.08440407310354,466.3070134014331 167.074765749167,466.1436469196549 156.04947453584464,465.90598961456885 146.3427040938618,466.14344405350016 136.7845044809501,466.59092323321124 126.05066703123747,465.5113867629759 115.95083374263592,466.58017137800084 105.51504583900301,466.0990854873296 95.77029685440078,466.05617085764857 85.94576724950859,466.05243348995896 75.6844117381078,466.67712241913864 65.09153139546414,465.892525169437 55.24701117502526,466.5076913429864 44.09641734647664,466.5070317839479 33.681252460411876,465.55095676812084 24.719702097050103,466.75457282738967 14.159275475562799,466.71360253661146 3.187645308324136,466.3173559878694" ></polygon><polyline style="stroke: #FFBB7B; stroke-width: 0.0;" x1="3" x2="481.5" y1="462.3378" y2="462.3378" points="3,462.3378 13.439523464323893,462.7356138975799 24.20612807855743,463.7272841495203 34.47234705201984,462.77395337682424 44.481325367205535,462.7429761457231 54.2670408431391,463.33138650133947 65.36108861120289,462.85852761626916 74.44936948541324,463.2374254631784 85.14688142255554,463.6307461814929 94.85902957207564,462.50181100996883 105.18103158810584,463.15147306003814 115.23809359782685,463.58946610919406 125.2262692405258,463.82066006273703 136.77367949118948,462.4951234893149 145.73136781792633,462.9219001466615 156.79417650458313,463.1046224615045 166.09380709031407,462.7951359695496 176.26774372070273,462.58245798796156 187.38036447896698,463.5677704755424 197.01841176460007,463.2761401370142 207.75847363621338,462.6458489644781 217.8779369997816,462.6809116406573 227.25837687347226,462.98252599478906 237.93635300586507,463.4310166554267 248.0999986750068,462.63627057745794 258.49856228926063,463.77223830264734 269.16012328292453,462.56305179642254 278.90845398536993,462.43076894213186 288.71487329892824,462.96121116461904 298.92418483592945,463.060870880631 308.89522159643747,463.51885598981494 319.1240937926265,462.43480516203886 328.84188260500395,463.4172109707931 339.6866072350319,463.2954013167389 349.7993346581363,463.6442193343744 359.6124452834135,463.3078445191702 370.6230952900243,463.29665504514446 380.6473443420934,462.7784212521717 390.52153715180174,462.6302763369374 400.8795411553544,463.18588345336934 410.2692542983752,462.76365805314595 421.63610868584936,463.67357305055225 432.0834446856799,462.68668712188696 442.07492631548456,463.45093013650944 452.38685907649614,463.04489391392303 461.76789079357576,463.45469263244627 472.7430924258435,463.8295257463094 482.5037691530306,463.06427592856085" ></polyline><polyline style="stroke: #FFBB7B; stroke-width: 0.0;" x1="3" x2="481.5" y1="465.3378" y2="465.3378" points="3,465.3378 13.728198698278456,466.8098399149228 24.724715892037256,465.9765035282096 34.084129387928925,466.29185613805635 44.8606698584936,466.6308355241988 54.4065870076834,465.6487187454684 64.4862536635656,466.4469942699859 74.96860307982895,466.8205555498341 85.4839570046789,466.2404278081583 95.62288838016376,466.4748384951588 104.98613623563608,465.5004855446957 115.41200958135381,465.40704128020184 125.62520561184479,466.4896310594838 135.3801015576452,465.42526994810646 145.8670884497325,466.1465308978429 156.81365944292307,466.35193260551637 165.953869764002,465.7746564131437 177.38606668196795,465.8260216451224 186.95152126374265,465.77566181334873 196.58037297924025,465.80416031207164 207.38843601101885,465.8162513153136 218.1336800651649,465.94649863803966 227.99725157164644,466.4960557735965 237.3923501562564,465.55053812348956 248.79617332965077,466.78490432644935 257.81959828510725,466.6155229232015 267.8947808169734,466.665966265972 278.5799671770271,466.53766692024396 288.44938687285884,466.1606063955903 299.65392770904026,465.39926192341113 309.84281299330104,466.0383808419781 318.62057023063943,465.9757257895751 329.9267934555102,466.22393349117806 339.4535861268311,466.30876130484717 350.32414465485016,465.34889559601174 359.88731777129004,465.75294419938905 370.83146105868417,465.62765405748246 379.74509810994886,465.89994316282423 391.15931131728865,465.8233055550579 401.5470841567109,466.2874255632257 411.07456349414514,466.81185483888 420.67386508486805,466.7364147445394 431.02139129140886,465.8073641436847 440.8997920861272,466.4781937825235 451.5582335173878,466.01737989592107 462.00583555079237,466.60549624685405 472.41722368504924,466.71932562850157 482.8890420862008,466.0745629366927" ></polyline><polygon fill="#C05E00" height="23.0757" style="stroke: #FFBB7B; stroke-width: 0.0;" width="107" x="188.75" y="451.7999" points="188.75,451.7999 200.89392523018176,451.9514154028311 210.5361344681354,452.1511246495811 221.93799400471613,452.8527353627305 231.93835552264932,451.92847773038557 242.8464276886079,453.29307222321404 254.22455985627596,452.37227701851407 263.73812044735524,452.25208875387216 274.66079951114943,453.1238718984114 285.26014264482063,451.92369834405145 297.04854182130657,452.4778404567787 297.096979465452,464.3862302952269 296.8888817860279,475.49446899697125 286.24159598683474,476.26437337879963 274.5824138187105,476.04897931133803 264.9439888577676,476.22018318864923 254.33719908066564,475.1756098224729 242.54911260085652,475.28133496441353 232.6907386224019,475.7442157535994 222.1402512057918,475.95780196887847 210.55467919700322,475.2487842373963 200.29741611033688,476.31860227472555 190.01232095225714,475.15361481168713" ></polygon><text fill="#FFFFFF" font-family="Source Sans Pro" font-size="12" font-weight="bold" lengthAdjust="spacingAndGlyphs" textLength="90" x="194.75" y="467.6014">... then sift it! ...</text><polyline style="stroke: #000000; stroke-width: 1.0;" x1="182.5" x2="224.5" y1="513.4892" y2="513.4892" points="182.5,513.4892 194.1850900000427,514.5848074536079 203.79001052107196,514.8695712626686 214.0330336500192,513.8574745323749 225.4329479560256,513.5933983960895" ></polyline><polyline style="stroke: #000000; stroke-width: 1.0;" x1="224.5" x2="224.5" y1="513.4892" y2="526.4892" points="224.5,513.4892 225.24849178723525,527.7813898694476" ></polyline><polyline style="stroke: #000000; stroke-width: 1.0;" x1="183.5" x2="224.5" y1="526.4892" y2="526.4892" points="183.5,526.4892 193.8764570247149,527.9556013311267 204.22943101509009,527.6236376457855 215.58478049107362,526.7080356636325 225.442859833478,526.740110537783" ></polyline><polygon fill="#000000" style="stroke: #000000; stroke-width: 1.0;" points="193.5,522.4892 184.99125577160157,527.5040919392377 193.7858873741934,531.0660544764723 190.7002201154828,527.4445040895844" ></polygon><text fill="#000000" font-family="Source Sans Pro" font-size="18" font-weight="bold" lengthAdjust="spacingAndGlyphs" textLength="10" x="189.5" y="506.5779">8</text><text fill="#000000" font-family="Source Sans Pro" font-size="18" lengthAdjust="spacingAndGlyphs" textLength="23" x="203.5" y="506.5779">sift</text><polygon fill="#C05E00" height="3" style="stroke: #C05E00; stroke-width: 1.0;" width="478.5" x="3" y="555.027" points="3,555.027 14.283701934291921,555.5714364730502 23.527705769914082,555.388287996755 34.2338519854907,555.6177110305271 44.202909445130025,555.7961036460456 54.706245640287804,556.4211279666033 64.77605101887008,555.299094453103 74.9113075717283,556.4438824179797 85.79255774111161,556.4943814874841 96.02483711353544,555.2866269117203 106.15352613547759,556.4704323700844 115.22936789937161,555.2231637439672 126.35200958923647,555.1750361076538 135.93863226374256,555.820702498544 145.9881446192368,556.1625477125617 155.9182923047189,555.738804212071 167.19734828139931,556.1310165382438 176.76112962365792,556.049254420328 186.7881973973064,555.2704784467333 197.19559896744764,555.202973296864 206.96328925735193,556.5069358164892 217.97805666295122,555.1410309108887 228.24504607720442,555.1573384759231 238.27344965136186,555.8406407107814 247.38045425382384,555.1049150332092 258.2744141750488,556.0847770712553 268.22325335826935,555.0785097691678 278.0427504203014,555.5053403738402 289.0806735497155,555.6115064803726 299.4790877320981,556.0192834262252 308.9188889341596,555.4869864314078 318.7505057755549,555.3487484008056 329.2846128533276,555.5204628030751 339.44261005396464,556.2190902564889 350.5768299589992,555.5193319683876 359.3393026045175,555.4221416773489 370.41634257322784,555.6439147485635 380.24163602340076,556.2277838861319 390.6371361624071,556.4447173505305 400.2007460730926,556.0133302364247 411.13317741100417,555.8691422877582 421.1749009598104,555.5971918664854 431.8382948364644,555.514597853411 440.8115947746243,556.1396264868072 451.9604618794312,555.5309416080108 461.7566105271241,555.1397380920807 471.40846932351195,555.8117863918869 482.8762972546974,555.2401941280095 482.523818962276,558.4041125944332 472.81682022519044,558.0380000360292 461.6338306014213,558.4210476758872 451.6884966899438,558.441384969743 442.0269141199806,559.2808671519142 431.5440684807304,559.2790637627459 421.67888491599024,558.3776918032654 410.65939112038586,558.8434938872215 400.48802332119885,559.2313348326115 390.06988824767495,558.7345196611695 380.3229836827477,558.8959274227946 370.43822710110044,558.7905600344511 359.3879613458066,558.3415858570934 349.4557130562039,558.6824958410562 339.12174361028246,559.487583416163 328.7922910815255,559.2170969543495 320.0024903851954,558.3146680707559 309.79582492072905,559.4828498680126 299.0736112086515,559.327319148344 289.2116625860058,558.0706678666156 279.1680052067586,559.2925878252117 268.44905255967524,558.1641933105402 257.7944395333516,558.4156823257199 248.53192448983873,559.2017430623509 237.97785586845202,559.3565866196277 227.9336079726013,559.2373165987647 216.84638320887734,558.3160879630577 207.7023607154647,559.1925752356165 196.742987910593,558.2419773408892 187.67347278346415,558.3640930573438 177.41389743532727,559.2993045274616 166.068981304074,559.3721828844846 157.02173723104352,559.3076107661454 146.99954599522562,559.4456656406383 136.111601044714,559.2473178227647 125.50378387157114,558.7602106595859 115.17845466396645,559.328230549696 105.78726249047527,559.1484420867619 95.76979842697341,558.7656306436966 85.16206982819533,558.791153460972 74.49524950321566,559.4921966434904 64.97108912143757,559.1260266201552 54.513065554546195,558.0437583762669 44.46825028627279,559.267310224006 34.13615356811521,558.1544606416701 24.793575552220645,558.0317008716502 14.172948017506178,559.3806706046435 3.135689679183997,558.2306130423658" ></polygon><polyline style="stroke: #FFBB7B; stroke-width: 0.0;" x1="3" x2="481.5" y1="555.027" y2="555.027" points="3,555.027 13.452977015775568,556.3636196887801 24.857232011549986,555.5106220481666 33.84189399908931,555.1099811295262 44.24884552005282,555.8930337827169 54.893048764317925,555.6925678432435 64.50294888603372,555.5730882587359 75.4560232854379,555.7465988298627 85.33053605928225,555.5661821708763 94.73104079192545,555.8108981231908 105.50707410740608,556.0516159429662 116.44360313321307,556.4609873105055 126.00593972139737,555.8854638666362 136.33016130380443,556.2167315795068 146.59319483869254,556.2200252197199 156.22171497657806,556.0731737742881 166.03454488074217,555.1483463534369 176.6978567589837,555.1480791959893 186.97202848427074,556.1197259994206 197.10039191048568,555.1256645707163 207.92448683418675,556.1408703668258 217.93536176590956,555.990744873181 227.34100350926306,556.0954369441588 237.87924467998133,555.6152926475024 247.5842840284569,555.3171202950161 257.7307028518741,555.1608002759731 267.83898877224163,556.4413680034904 278.6946996392414,556.4850790320179 288.26845330015766,556.2332692798209 298.54350094759747,556.3172943236987 308.6763250571377,556.0504455418541 319.8910597582505,556.3720282237027 329.42534444633947,555.3341057164344 339.4900288079304,556.2282571531814 349.15945051825946,555.7748271424771 360.62865014266,555.6540571632777 369.98352551587067,555.0433393712137 380.05813505350187,556.2428375205473 390.21342021462914,555.028695801504 400.6849059338526,555.328494874293 411.6491080501184,555.1768988871463 421.90592099503255,556.3873768158937 431.78217292298103,556.3554724890255 441.1117436902402,555.764478892319 451.4043189170099,555.7760977583221 461.25427435671617,555.2520041551888 471.9359880642507,555.6518683525483 482.6685348304454,556.3547617598651" ></polyline><polyline style="stroke: #FFBB7B; stroke-width: 0.0;" x1="3" x2="481.5" y1="558.027" y2="558.027" points="3,558.027 14.218177377850688,559.1883787394017 24.635989488961986,558.0560090624476 34.751034490132525,559.3068655597726 43.9578247966438,559.0730463068448 54.49360686365485,558.2563354736176 64.82757132374087,558.4076957805064 75.56336444364167,559.1419269556627 85.06452700688178,558.0783102079276 95.59993314972654,559.0178317081863 106.23130590607354,559.4376857765001 115.71436394437991,558.8624813873303 125.79419427089138,558.574094542184 136.75549848523102,558.3510859218641 146.4687591004978,559.2736068629874 156.25719401716165,558.2325467125029 166.85549051548165,558.7936247495218 177.44037051699766,558.3812371502845 187.6731718588209,558.6249643184692 197.43319768512598,558.2687874372332 206.96627126853323,559.1726649955363 217.87585142057165,558.5472187516261 227.02882918194078,558.5134046154544 237.90747994363815,559.1948185290657 247.49646307313756,559.0466219561622 258.4506703576523,558.4332584233471 268.007773309245,559.0740425927779 278.2369074971845,558.4923527901974 288.73527922904594,559.358030946225 299.65761713084675,559.081462561151 309.703145419334,559.364323117652 319.67142576653686,559.4391741772397 329.23762397260015,559.1008398924005 339.60303948124846,558.3104763731808 349.7905116091144,558.8558111285074 359.8426982701873,558.3655634268634 370.42483771067253,558.7303910768806 380.8261710483445,559.1189058885193 391.20796270799764,558.5030882385308 401.0388226408356,558.223621582727 410.8744368390946,558.7855562858731 421.51845369323263,559.3101819861895 430.6390203575185,558.333794937118 441.7701349822143,558.4622383338847 451.72595264604587,558.5872799827466 462.19536263689105,559.2021780974446 472.44124958976244,559.1907066146359 482.89034391311,558.22625193151" ></polyline><polygon fill="#C05E00" height="23.0757" style="stroke: #FFBB7B; stroke-width: 0.0;" width="180" x="152.25" y="544.4892" points="152.25,544.4892 162.45926238084212,544.7092781487627 172.66761047556065,545.2859659950955 182.4577705526026,545.0498663577491 192.25558299117256,545.9232195804834 203.5125128349755,545.478802863905 212.46824187913444,545.1075764305897 223.52214968856424,544.9901490139782 232.88207227212843,545.1181490105118 242.29136264242698,544.8640798506567 253.53535097581334,545.6233462775599 263.0105132444296,545.2185648485793 273.7273253443418,545.2299674192218 282.43615759001113,545.470242329804 292.33206428482663,545.1952107960133 302.6132517128717,544.8190340442125 312.98155326221604,544.9647429045763 323.66525051835924,544.9883684340639 332.6455449317582,545.0450632569155 333.0583699402632,556.9985498546987 332.91820080019534,568.9354857148161 322.7626385272015,567.6004413348879 312.3610191893531,568.0433438142087 303.4041246405104,568.367774149871 293.3443452937063,569.0526916043624 282.6831731076818,568.8287342832215 272.4866672916105,568.9612491709437 262.3147840718739,568.8163507096493 252.62872748053633,568.0123850529804 243.12992736452725,568.5253560459265 233.1163773314329,568.8634855252482 222.45757657755166,567.9622214499419 213.41422463057097,568.8346786231292 203.4830222678138,567.5726108972473 193.24768508505076,567.6118273180933 182.5060843230458,567.5739706417104 173.73933620925527,568.761325546892 162.4524614722468,568.4951480713231 153.11305220914073,569.0174581703055" ></polygon><text fill="#FFFFFF" font-family="Source Sans Pro" font-size="12" font-weight="bold" lengthAdjust="spacingAndGlyphs" textLength="163" x="158.25" y="560.2907">... and return only what&#39;s left!</text><polygon fill="#000000" style="stroke: #000000; stroke-width: 1.0;" points="47.5,601.5649 38.764336774125695,606.1608481162717 48.13948140863795,610.4263459591917 44.48538265004754,606.240804046162" ></polygon><polyline style="stroke: #000000; stroke-width: 1.0; stroke-dasharray: 2.0,2.0;" x1="41.5" x2="181.5" y1="605.5649" y2="605.5649" points="41.5,605.5649 52.0328462155303,606.8004070599587 62.78642496757675,606.8314869093034 72.40496637870092,606.716005439174 81.94726638344582,605.9432499159617 92.62345105817076,606.8571660214826 102.9676338788122,606.9867669625697 111.5348918865202,606.3711870268477 122.2748434668174,606.5379473223608 131.720811885898,605.8982132688421 141.91881709627341,605.7645422037482 152.4574316513026,605.7711584474915 161.86837746703532,606.6962029729062 171.836681116838,606.8972743152432 181.668606550782,606.6877752448223" ></polyline><text fill="#000000" font-family="Source Sans Pro" font-size="18" font-weight="bold" lengthAdjust="spacingAndGlyphs" textLength="10" x="53.5" y="599.2672">9</text><text fill="#000000" font-family="Source Sans Pro" font-size="18" lengthAdjust="spacingAndGlyphs" textLength="108" x="67.5" y="599.2672">[sifted results]</text></g></svg>